<svg width="24" height="24" viewBox="0 0 24 24" fill="none" xmlns="http://www.w3.org/2000/svg">
<g id="Close">
<path id="Union" fill-rule="evenodd" clip-rule="evenodd" d="M18.0298 5.1648L18.8313 5.96626C19.053 6.18794 19.053 6.54604 18.8313 6.76772L13.6133 11.9971L12.0047 10.3885L17.2284 5.1648C17.4501 4.94311 17.8082 4.94311 18.0298 5.1648ZM5.1648 5.97199L5.97194 5.16484C6.19362 4.94316 6.55172 4.94316 6.7734 5.16484L11.9971 10.3885L10.3885 11.9972L5.1648 6.77345C4.94311 6.55177 4.94311 6.19367 5.1648 5.97199ZM17.2208 18.8295L11.9971 13.6058L13.6001 12.0029L18.8238 17.2266C19.0455 17.4482 19.0455 17.8063 18.8238 18.028L18.0223 18.8295C17.8006 19.0512 17.4425 19.0512 17.2208 18.8295ZM5.1648 18.0281L5.96626 18.8296C6.18794 19.0512 6.54604 19.0512 6.76772 18.8296L11.9914 13.6058L10.3828 11.9972L5.1648 17.2266C4.94311 17.4483 4.94311 17.8064 5.1648 18.0281Z" fill="white"/>
</g>
</svg>
