<svg width="24" height="24" viewBox="0 0 24 24" fill="none" xmlns="http://www.w3.org/2000/svg">
<g id="Share">
<path id="Union" fill-rule="evenodd" clip-rule="evenodd" d="M11.5999 2.41012L10.3899 3.62012L7.43994 6.57012H10.6599L11.9999 5.23012L13.3399 6.57012H16.5599L13.6099 3.62012L12.3999 2.41012C12.1799 2.19012 11.8199 2.19012 11.5899 2.41012H11.5999ZM10.86 6.56006V15.6601C10.86 15.9701 11.12 16.2301 11.43 16.2301H12.57C12.88 16.2301 13.14 15.9701 13.14 15.6601V6.56006H10.86ZM20.55 21.7601H3.45C3.14 21.7601 2.88 21.5001 2.88 21.1901V9.4201C2.88 9.1101 3.14 8.8501 3.45 8.8501H9.72001L7.44 11.1301H5.16V19.4901H18.84V11.1301H16.56L14.28 8.8501H20.55C20.86 8.8501 21.12 9.1101 21.12 9.4201V21.1901C21.12 21.5001 20.86 21.7601 20.55 21.7601Z" fill="white"/>
</g>
</svg>
