<svg width="24" height="24" viewBox="0 0 24 24" fill="none" xmlns="http://www.w3.org/2000/svg">
<g id="Menu">
<path id="Union" fill-rule="evenodd" clip-rule="evenodd" d="M20.44 6.38H3.56C3.25072 6.38 3 6.63073 3 6.94V8.07C3 8.37928 3.25072 8.63 3.56 8.63H20.44C20.7493 8.63 21 8.37928 21 8.07V6.94C21 6.63073 20.7493 6.38 20.44 6.38ZM3.56 10.88H20.44C20.75 10.88 21 11.13 21 11.44V12.56C21 12.87 20.75 13.12 20.44 13.12H3.56C3.25 13.12 3 12.87 3 12.56V11.44C3 11.13 3.25 10.88 3.56 10.88ZM3.56 15.37H20.44C20.7493 15.37 21 15.6207 21 15.93V17.06C21 17.3693 20.7493 17.62 20.44 17.62H3.56C3.25072 17.62 3 17.3693 3 17.06V15.93C3 15.6207 3.25072 15.37 3.56 15.37Z" fill="white"/>
</g>
</svg>
