<svg width="46" height="49" viewBox="0 0 46 49" fill="none" xmlns="http://www.w3.org/2000/svg">
              <g clip-path="url(#clip0_2_12125)">
                <path d="M2.59196 23.0175L4.48191 21.9164V17.3768L2.58325 16.2861L2.59196 23.0175Z" stroke="#666666" stroke-width="0.554869" stroke-linejoin="round"></path>
                <path d="M21.0996 26.9691L23.0227 25.8802V23.626L21.0996 24.7219V26.9691Z" stroke="#666666" stroke-width="0.554869" stroke-linejoin="round"></path>
                <path d="M10.3677 9.64648V11.8608L6.48156 14.0734L4.5498 12.9636L10.3677 9.64648Z" stroke="#666666" stroke-width="0.554869" stroke-linejoin="round"></path>
                <path d="M22.6343 2.54066L24.8778 1.2627V3.47528L24.5469 3.65389L22.6343 2.54066Z" stroke="#666666" stroke-width="0.554869" stroke-linejoin="round"></path>
                <path d="M20.6345 3.61523V5.80875L18.6052 6.94105V4.74927L20.6345 3.61523Z" stroke="#666666" stroke-width="0.554869" stroke-linejoin="round"></path>
                <path d="M43.3557 11.8428V14.0346L37.1528 17.6222V15.4304L43.3557 11.8428Z" stroke="#666666" stroke-width="0.554869" stroke-linejoin="round"></path>
                <path d="M16.3408 12.454C18.1872 11.3928 18.8248 12.1367 20.6712 13.1962L26.8166 16.7283C26.8828 16.7665 26.9002 16.7855 26.9681 16.8185C27.3513 16.6607 27.7781 16.4543 27.8617 15.844C27.9505 15.1972 27.6927 14.9648 27.3008 14.7394L20.9185 11.072C19.0721 10.0108 18.229 9.45764 16.3826 10.5171L16.1614 10.661C15.8758 10.8882 15.5866 11.2437 15.5552 11.6824C15.5343 11.9685 15.6284 12.3846 15.975 12.7228C16.0221 12.6777 16.0708 12.6343 16.1196 12.5945L16.3408 12.4505V12.454Z" stroke="#666666" stroke-width="0.554869" stroke-linejoin="round"></path>
                <path d="M29.971 15.7014C29.9658 16.1557 29.8596 16.5875 29.668 16.9759V16.9811C29.6383 17.0349 29.6105 17.0869 29.5809 17.1389C29.5791 17.1424 29.5774 17.1458 29.5756 17.1493C29.546 17.1996 29.5164 17.2482 29.4833 17.2967C29.4798 17.3036 29.4746 17.3088 29.4711 17.314C29.4398 17.3591 29.4084 17.4025 29.3753 17.4458C29.3684 17.4562 29.3596 17.4649 29.3509 17.4753C29.3196 17.5135 29.29 17.5533 29.2569 17.5898C29.2464 17.6019 29.2342 17.614 29.222 17.6262C29.1907 17.6608 29.1611 17.6938 29.128 17.7267C29.1123 17.7423 29.0949 17.758 29.0792 17.7718C29.0496 17.7996 29.02 17.829 28.9904 17.8551C28.9677 17.8741 28.9451 17.8915 28.9224 17.9105C28.8963 17.9331 28.8702 17.9556 28.8423 17.9764C28.8127 17.999 28.7813 18.0198 28.7517 18.0423C28.7291 18.0579 28.7082 18.0753 28.6855 18.0891C28.6315 18.1256 28.5758 18.1602 28.5201 18.1932L28.3685 18.2816C27.2467 18.9336 26.0048 19.0931 24.7454 19.0931C23.486 19.0931 22.258 18.7273 21.1449 18.0874L14.4874 14.2605C13.5799 13.7385 13.1479 12.6669 13.1479 11.623L13.1392 13.5426L13.1479 13.5565V13.9674C13.1479 15.0113 13.6896 15.9459 14.5971 16.4661L21.1222 20.1925C22.2353 20.8323 23.4825 21.1514 24.728 21.1514C25.9734 21.1514 27.245 20.8254 28.3668 20.1734L28.5183 20.085C29.4206 19.5613 29.9606 18.6319 29.971 17.5967V15.6633C29.971 15.6771 29.971 15.6893 29.971 15.7032V15.7014Z" stroke="#666666" stroke-width="0.554869" stroke-linejoin="round"></path>
                <path d="M16.752 3.68848L18.6053 4.74969V6.94147L16.752 5.88026V3.68848Z" stroke="#666666" stroke-width="0.554869" stroke-linejoin="round"></path>
                <path d="M35.2996 14.3701V16.5619L37.1529 17.6231V15.4313L35.2996 14.3701Z" stroke="#666666" stroke-width="0.554869" stroke-linejoin="round"></path>
                <path d="M20.6345 5.80875L35.4179 14.2395L35.2995 14.3695L37.3671 13.1661L20.6345 3.61523V5.80875Z" stroke="#666666" stroke-width="0.554869" stroke-linejoin="round"></path>
                <path d="M24.8515 19.0892C23.6043 19.0892 22.3588 18.7701 21.2458 18.1303L14.6736 14.3536C13.6999 13.7935 13.078 12.7462 13.1442 11.6278C13.2017 10.6567 13.6093 9.96485 14.4646 9.4724C16.8266 8.11467 19.7617 8.11467 22.1237 9.4724L28.506 13.1398C29.4274 13.6704 29.9778 14.6224 29.9726 15.6836C29.9674 16.7379 29.3647 17.7002 28.4502 18.2326L28.3683 18.2811C27.2466 18.9331 26.1109 19.0926 24.8532 19.0926L24.8515 19.0892ZM16.1612 10.6342C15.8755 10.8613 15.5863 11.2168 15.555 11.6555C15.5289 12.0075 15.6734 12.5641 16.2605 12.9231L22.7438 16.6494C24.4613 17.6361 26.6038 17.0188 27.2048 16.7171C27.7447 16.4466 27.8789 16.0027 27.8789 15.6715C27.8789 15.2224 27.6925 14.964 27.3006 14.7386L20.9183 11.0711C19.0719 10.0099 18.2288 9.43078 16.3824 10.4903L16.1612 10.6342Z" fill="#666666" stroke="#666666" stroke-width="0.554869" stroke-linejoin="round"></path>
                <path d="M41.5025 10.7816L39.292 12.0613L22.5577 2.50865L24.8082 1.22723L22.9548 0.166016L16.752 3.68778L18.6053 4.74899L20.6346 3.61495L37.3672 13.1658L35.2996 14.3692L37.153 15.4304L43.3558 11.8428L41.5025 10.7816Z" fill="#666666" stroke="#666666" stroke-width="0.554869" stroke-linejoin="round"></path>
                <path d="M23.0226 23.6262L4.54638 12.9638L10.3678 9.64494L8.53183 8.55078L1.16015 12.6881C1.01557 12.7696 0.895378 12.8841 0.811768 13.0193L2.62682 14.0649L21.0996 24.7204L23.0226 23.6262Z" fill="#666666" stroke="#666666" stroke-width="0.554869" stroke-linejoin="round"></path>
                <path d="M13.8533 34.5671V29.5264C13.8533 29.5264 14.2661 29.7709 15.2067 30.3032C16.6229 31.1043 17.0723 32.5747 17.0723 33.851C17.0723 35.2867 16.0341 35.7983 15.2363 35.3353C14.5709 34.9486 13.8533 34.5654 13.8533 34.5654V34.5671Z" stroke="#666666" stroke-width="0.554869" stroke-linejoin="round"></path>
                <path d="M33.3834 27.917C32.9235 27.6586 32.4271 27.5147 31.9254 27.4835H31.9185C31.8488 27.4783 31.7791 27.4765 31.7095 27.4765C31.7042 27.4765 31.7007 27.4765 31.6955 27.4765C31.6276 27.4765 31.5614 27.4783 31.4935 27.4835C31.4847 27.4835 31.476 27.4852 31.4673 27.4852C31.4046 27.4904 31.3419 27.4956 31.2792 27.5043C31.2653 27.506 31.2496 27.5095 31.2357 27.5112C31.1782 27.5199 31.1224 27.5286 31.065 27.539C31.0458 27.5424 31.0266 27.5476 31.0092 27.5511C30.957 27.5615 30.9047 27.5736 30.8542 27.5875C30.8298 27.5945 30.8054 27.6031 30.7793 27.6101C30.734 27.6239 30.6887 27.6361 30.6434 27.6517C30.6121 27.6621 30.5807 27.6759 30.5476 27.6864C30.5093 27.7002 30.4727 27.7124 30.4344 27.728C30.3943 27.7436 30.356 27.7627 30.3159 27.78C30.2881 27.7921 30.2585 27.8043 30.2306 27.8181C30.1627 27.8511 30.0965 27.8858 30.0303 27.9239L29.8543 28.0245C28.5497 28.7666 27.4923 29.8331 26.7642 31.0902C26.0431 32.3335 25.6442 33.7623 25.6442 35.2449V44.1022C25.6442 45.309 26.2713 46.3911 27.3216 46.9945L25.8375 46.1535L25.8288 46.1362L25.4143 45.8986C24.3639 45.2952 23.7368 44.2131 23.7368 43.0063V34.149C23.7368 32.6681 24.1357 31.2393 24.8569 29.9943C25.585 28.7389 26.6423 27.6707 27.947 26.9286L28.1229 26.828C29.1733 26.2315 30.4205 26.2298 31.4708 26.8194H31.4743L31.6833 26.9407L33.3799 27.917L33.4182 27.9378C33.4043 27.9308 33.3921 27.9239 33.3782 27.917H33.3834Z" stroke="#666666" stroke-width="0.554869" stroke-linejoin="round"></path>
                <path d="M28.1317 44.0797C30.2673 42.852 31.2009 40.7314 31.2009 38.276V29.7863C31.2009 29.6979 31.1905 29.6112 31.1748 29.5262C31.5928 29.3684 32.0649 29.384 32.4533 29.6112C32.9045 29.8748 33.1745 30.3412 33.1745 30.8631V39.3528C33.1745 41.8082 32.2408 43.9289 30.1053 45.1565L29.8318 45.2953C29.4381 45.4496 28.9121 45.5328 28.4522 45.3091C28.1526 45.1652 27.7886 44.8288 27.6475 44.2878C27.7206 44.267 27.792 44.2444 27.86 44.2184L28.1334 44.0797H28.1317Z" stroke="#666666" stroke-width="0.554869" stroke-linejoin="round"></path>
                <path d="M45.3327 19.3466L43.3556 18.2021L41.4343 19.3466L43.4061 20.4529L45.3327 19.3466Z" stroke="#666666" stroke-width="0.554869" stroke-linejoin="round"></path>
                <path d="M39.8074 22.5216L37.8844 21.3789L35.9265 22.5216L37.8844 23.6262L39.8074 22.5216Z" stroke="#666666" stroke-width="0.554869" stroke-linejoin="round"></path>
                <path d="M41.4345 19.3467L43.4064 20.453L41.607 27.7826L40.2988 23.9591L41.4345 19.3467Z" stroke="#666666" stroke-width="0.554869" stroke-linejoin="round"></path>
                <path d="M37.8845 23.626L35.9266 22.5215L38.6684 30.5985L35.9075 41.8435L37.8845 42.9411L40.6454 31.6961L37.8845 23.626Z" stroke="#666666" stroke-width="0.554869" stroke-linejoin="round"></path>
                <path d="M41.6069 34.5088L43.4062 39.7663L41.4309 38.6687L40.938 37.2329L41.6069 34.5088Z" stroke="#666666" stroke-width="0.554869" stroke-linejoin="round"></path>
                <path d="M20.969 33.1556C20.9533 30.1315 19.4954 28.2917 16.8163 26.7537C16.407 26.5196 16.029 26.3011 15.6859 26.1034L13.8151 25.0283L11.8572 26.1658L13.8151 27.2964C14.1425 27.4854 14.5014 27.6918 14.8881 27.912C17.5654 29.4518 19.0251 31.2898 19.0407 34.3139C19.0442 34.9069 18.9432 35.415 18.769 35.8468C18.6715 36.0878 18.553 36.3045 18.4137 36.497C18.1959 36.7987 17.9085 37.0207 17.6211 37.2062L19.572 36.0722L19.579 36.067L19.5825 36.0635C19.9831 35.8052 20.3315 35.4306 20.5806 34.9416L20.5841 34.9347C20.8262 34.4544 20.9725 33.8648 20.969 33.1539V33.1556Z" stroke="#666666" stroke-width="0.554869" stroke-linejoin="round"></path>
                <path d="M14.9838 37.4268L14.834 37.3401C15.1841 37.5412 15.5673 37.7615 15.9854 38.0025C18.8159 39.629 20.1137 41.7098 20.1137 45.0876C20.1137 45.9893 19.6695 46.891 18.9379 47.4268C18.8717 47.4753 18.8003 47.5222 18.7289 47.5638L20.6798 46.4453V46.4419C21.049 46.2251 21.3626 45.9234 21.6047 45.5662C21.927 45.0928 22.0593 44.3576 22.0593 43.7888C22.0593 40.437 20.7808 38.5348 17.9955 36.917C17.1855 37.6591 16.0463 37.8325 15.1667 37.5014C15.0517 37.458 14.9402 37.406 14.8357 37.3453" stroke="#666666" stroke-width="0.554869" stroke-linejoin="round"></path>
                <path d="M18.7324 47.5603V47.5637C18.8021 47.5204 18.8718 47.4753 18.9397 47.4268C18.8718 47.4736 18.8038 47.5204 18.7324 47.562V47.5603Z" stroke="#666666" stroke-width="0.554869" stroke-linejoin="round"></path>
                <path d="M18.1873 44.332C17.4557 43.9106 15.787 42.9482 15.787 42.9482L13.8291 44.0858L16.3217 45.5215L16.327 45.525L16.7712 45.7226C17.5672 45.9741 18.1873 45.5631 18.1873 44.3459C18.1873 44.3406 18.1873 44.3354 18.1873 44.332V44.332Z" stroke="#666666" stroke-width="0.554869" stroke-linejoin="round"></path>
                <path d="M18.1874 44.3324C18.1822 43.1411 17.6318 41.5493 15.7871 40.2314V42.9486C15.7871 42.9486 17.4558 43.911 18.1874 44.3324V44.3324Z" stroke="#666666" stroke-width="0.554869" stroke-linejoin="round"></path>
                <path d="M15.787 40.231C15.6581 40.1391 15.524 40.0472 15.3811 39.9587C14.9822 39.7073 13.8291 39.0449 13.8291 39.0449V44.0857L15.787 42.9482V40.231Z" stroke="#666666" stroke-width="0.554869" stroke-linejoin="round"></path>
                <path d="M15.8112 30.735C15.6317 30.5772 15.4314 30.4315 15.2067 30.3032C14.2661 29.7709 13.8533 29.5264 13.8533 29.5264V34.5671L15.8112 33.4296V30.735Z" stroke="#666666" stroke-width="0.554869" stroke-linejoin="round"></path>
                <path d="M13.8533 34.5672C13.8533 34.5672 14.5709 34.9487 15.2363 35.3371C15.9819 35.7706 16.9364 35.351 17.0583 34.1216C16.4348 33.7626 15.8112 33.4297 15.8112 33.4297L13.8533 34.5672V34.5672Z" stroke="#666666" stroke-width="0.554869" stroke-linejoin="round"></path>
                <path d="M8.66421 37.5017L3.95936 34.7984L7.01986 38.0912V39.1524L3.95936 38.9392L8.66421 41.6425V43.21L0.592285 38.5733V37.0266L4.95572 37.4358L0.592285 32.8407V31.2939L8.66246 35.9324V37.5017H8.66421Z" fill="#CCCCCC"></path>
                <path d="M5.35287 29.0775L8.66246 30.9797V32.5472L5.35287 30.645L0.592285 30.3243V28.6197L3.84614 28.9821L0.592285 25.6303V23.9258L5.35287 29.0775Z" fill="#CCCCCC"></path>
                <path d="M29.8596 28.0249L29.9554 27.9712C31.0197 27.366 32.3383 27.3209 33.4026 27.9261C34.4739 28.5347 35.1149 29.6341 35.1149 30.8618V39.3515C35.1149 42.4952 33.4165 45.4222 30.6818 46.9949C29.6906 47.5637 28.5201 47.5966 27.508 47.092C26.3445 46.5112 25.6477 45.2852 25.6477 43.9882V35.2436C25.6477 33.7628 26.0466 32.3339 26.7677 31.0889C27.4959 29.8335 28.5532 28.7654 29.8579 28.0232L29.8596 28.0249ZM30.1069 45.1552C32.2425 43.9275 33.1762 41.8068 33.1762 39.3515V30.8618C33.1762 30.3398 32.9062 29.8734 32.455 29.6098C32.0039 29.3463 31.4116 29.3653 30.9465 29.6289L30.8194 29.7C28.8249 30.8323 27.5847 32.9564 27.5847 35.2436V43.8703C27.6056 44.6644 28.0829 45.1292 28.4521 45.3078C28.9138 45.5297 29.4381 45.4482 29.8317 45.2939L30.1052 45.1552H30.1069Z" fill="#666666" stroke="#666666" stroke-width="0.554869" stroke-linejoin="round"></path>
                <path d="M45.3328 19.3467L43.4063 20.453L41.6069 27.7826L39.8076 22.5216L37.8845 23.6262L40.6454 31.6963L37.8845 42.9413L39.8076 41.835L41.6069 34.5088L43.4063 39.7663L45.3328 38.6843L42.5685 30.5969L45.3328 19.3467Z" fill="#666666" stroke="#666666" stroke-width="0.554869" stroke-linejoin="round"></path>
                <path d="M21.0996 24.7216L1.02781 13.1436V13.1488L0.811813 13.0205C0.719493 13.1696 0.667236 13.343 0.667236 13.5251V21.8518L2.59028 23.0188V16.2943L21.0979 26.9706V24.7233L21.0996 24.7216Z" fill="#999999" stroke="#999999" stroke-width="0.554869" stroke-linejoin="round"></path>
                <path d="M15.9855 38.0023C15.6266 37.796 15.2922 37.6035 14.9839 37.4266L14.8323 37.3399C16.3321 38.2121 19.0268 37.3399 19.0111 34.2933C18.9954 31.2692 17.5375 29.4294 14.8585 27.8914C13.0939 26.877 11.8572 26.166 11.8572 26.166V45.169C11.8572 45.169 14.2471 46.6429 15.9855 47.5359C18.3091 48.7271 20.1137 46.9082 20.1137 45.0892C20.1137 41.7114 18.816 39.6323 15.9855 38.0041V38.0023ZM13.8534 29.5248C13.8534 29.5248 13.8638 29.5317 13.883 29.5421C13.8917 29.5473 13.9039 29.5543 13.9178 29.5629C13.9283 29.5681 13.9387 29.5751 13.9509 29.582C14.1216 29.6826 14.524 29.9167 15.2068 30.3016C15.3113 30.3606 15.4089 30.4247 15.503 30.4906C15.5256 30.5062 15.5448 30.5218 15.5674 30.5374C15.6423 30.5929 15.7137 30.6502 15.7817 30.7091C15.7904 30.7178 15.8008 30.7247 15.8113 30.7316C16.7519 31.5692 17.0724 32.776 17.0724 33.8494C17.0724 34.0817 17.0428 34.2881 16.994 34.4719C16.987 34.4962 16.9818 34.5222 16.9749 34.5447C16.9627 34.5846 16.9487 34.6193 16.9348 34.6557C16.9243 34.6817 16.9156 34.7077 16.9052 34.732C16.8912 34.7649 16.8738 34.7962 16.8564 34.8274C16.8442 34.8516 16.832 34.8759 16.8181 34.8985C16.8007 34.9279 16.7815 34.9539 16.7641 34.9817C16.7484 35.0042 16.7345 35.025 16.7188 35.0458C16.6996 35.0701 16.6787 35.0927 16.6596 35.1152C16.6422 35.1343 16.6247 35.1534 16.6056 35.1724C16.5847 35.1932 16.5638 35.2123 16.5411 35.2297C16.522 35.247 16.5011 35.2626 16.4819 35.2782C16.4593 35.2938 16.4366 35.3094 16.414 35.325C16.3931 35.3389 16.3704 35.3528 16.3478 35.3649C16.3251 35.377 16.3025 35.3892 16.2781 35.3996C16.2537 35.41 16.2311 35.4204 16.2067 35.4291C16.184 35.4377 16.1596 35.4464 16.1353 35.4533C16.1091 35.4603 16.0847 35.4672 16.0586 35.4724C16.036 35.4776 16.0116 35.4828 15.9872 35.4863C15.9611 35.4898 15.9332 35.4915 15.9053 35.495C15.8827 35.495 15.8583 35.4984 15.8357 35.4984C15.8078 35.4984 15.7782 35.4967 15.7503 35.495C15.7277 35.495 15.705 35.4932 15.6824 35.4898C15.6528 35.4863 15.6231 35.4794 15.5918 35.4724C15.5709 35.4672 15.55 35.4655 15.5291 35.4585C15.496 35.4499 15.4629 35.4377 15.4298 35.4239C15.4124 35.4169 15.3967 35.4135 15.3793 35.4065C15.3305 35.3857 15.2817 35.3614 15.233 35.3337C14.5676 34.9453 13.8499 34.5638 13.8499 34.5638V29.523L13.8534 29.5248ZM16.7711 45.7204L16.3269 45.5227L16.3216 45.5192L13.829 44.0835V39.0427C13.829 39.0427 14.9821 39.7051 15.381 39.9565C15.5221 40.045 15.658 40.1369 15.7869 40.2288C17.6315 41.5466 18.182 43.1384 18.1872 44.3297C18.1872 44.3349 18.1872 44.3401 18.1872 44.3436C18.1872 45.5608 17.5688 45.9718 16.7711 45.7204Z" fill="#999999" stroke="#999999" stroke-width="0.554869" stroke-linejoin="round"></path>
              </g>
              <defs>
                <clipPath id="clip0_2_12125">
                  <rect width="45" height="48.0822" fill="white" transform="translate(0.5)"></rect>
                </clipPath>
              </defs>
            </svg>