<?xml version="1.0" encoding="UTF-8"?>
<svg id="Layer_2" data-name="Layer 2" xmlns="http://www.w3.org/2000/svg" version="1.1" viewBox="0 0 500 500">
  <defs>
    <style>
      .cls-1 {
        fill: #bcbec0;
      }

      .cls-1, .cls-2, .cls-3, .cls-4, .cls-5, .cls-6 {
        stroke-width: 0px;
      }

      .cls-2 {
        fill: #808285;
      }

      .cls-3 {
        fill: #feb710;
      }

      .cls-7 {
        opacity: .9;
      }

      .cls-4 {
        fill: #212121;
      }

      .cls-5 {
        fill: #4e7cbf;
      }

      .cls-6 {
        fill: #fff;
      }
    </style>
  </defs>
  <rect class="cls-4" width="500" height="500"/>
  <g>
    <path class="cls-5" d="M196.6,334.7c-1.8,0-3.6-.5-5.2-1.4-5-2.9-10.5-5.9-10.5-5.9-.4-.2-.7-.7-.7-1.1v-38.8c0-.5.2-.9.7-1.1.4-.2.9-.2,1.3,0,0,0,3.2,1.9,10.3,6,13,7.4,14.9,21,14.9,28.4s-2.2,10.5-6,12.7c-1.5.8-3.1,1.3-4.8,1.3h0ZM182.7,325.5c1.6.9,5.9,3.2,10,5.6,2.4,1.4,5.1,1.5,7.4.2,3-1.7,4.7-5.5,4.7-10.5s-1.8-19.4-13.6-26.2c-4-2.3-6.8-3.9-8.4-4.9v35.8h0Z"/>
    <g>
      <path class="cls-6" d="M141.7,348.8l-36-20.8,23.4,25.3v8.2l-23.4-1.6,36,20.8v12.1l-61.8-35.7v-11.9l33.4,3.2-33.4-35.4v-11.9l61.8,35.7v12.1h0Z"/>
      <path class="cls-6" d="M116.3,284l25.4,14.6v12.1l-25.4-14.6-36.5-2.5v-13.1l24.9,2.8-24.9-25.8v-13.1l36.5,39.6h0Z"/>
    </g>
    <g>
      <path class="cls-2" d="M110.3,192.9l-14.5-8.4c-.4-.2-.9-.2-1.3,0-.4.2-.6.7-.6,1.1v51.8c0,.5.3.9.7,1.1.2.1.4.2.6.2s.4,0,.6-.2l14.5-8.5c.4-.2.6-.7.6-1.1v-34.9c0-.5-.2-.9-.6-1.1h0ZM108.3,228.2l-11.9,7v-47.3c0,0,11.9,6.9,11.9,6.9v33.4Z"/>
      <path class="cls-2" d="M174.7,164.9v2.9c0,8.5,4.4,16.1,11.7,20.3l50,28.7c8.6,4.9,18.3,7.6,28.3,7.6s19.9-2.7,28.5-7.7l1.2-.7c7.2-4.2,11.6-11.7,11.8-20.1,0,0,0-.1,0-.2v-14.9s0,0,0,0c0-8.5-4.5-16.2-11.9-20.5l-48.9-28.2c-18.5-10.7-41.5-10.7-60,0-6.9,4-10.3,9.6-10.8,17.6,0,.9,0,1.8,0,2.7v12.1c0,.1,0,.3,0,.4ZM250.2,187.3l-49.6-28.7c-.3-.2-.5-.3-.8-.5l1.4-.9c11.5-6.6,16.1-3.8,26.4,2.5,1.7,1,3.5,2.1,5.5,3.3l45.8,26.5c-6.6,2-18.5,3.7-28.6-2.1h0ZM287.6,180.6c0,.4,0,.9-.1,1.4,0,.7-.2,1.3-.5,1.8,0,0,0,0,0,0,0,0,0,.1,0,.2-.4.9-1,1.8-2,2.6,0,0,0,0,0,0,0,0,0,0-.1,0-.8.6-1.8,1.1-2.8,1.5,0,0,0,0,0,0-.1,0-.3-.2-.5-.3l-47.1-27.2c-2-1.1-3.7-2.2-5.4-3.2-6.3-3.8-10.9-6.6-16.4-6.6s-7.6,1.2-12.7,4.2c0,0,0,0,0,0l-1.7,1.1s0,0-.1,0c0,0,0,0-.1.1-1.5-1.8-2.1-3.9-2.1-5.6,0-.2,0-.3,0-.4.2-3.3,2.7-5.7,4.1-6.9l1.6-1.1c13-7.5,19-4.1,32.1,3.5l50.2,29c2.7,1.5,3.7,3.1,3.8,5.8h0ZM303.6,195.5s0,0,0,.1c0,7.5-4,14.3-10.5,18.1l-1.2.7c-8.2,4.8-17.6,7.4-27.2,7.4s-18.8-2.5-27-7.2l-50-28.7c-6.6-3.8-10.5-10.6-10.5-18.1v-3.2c0-.1,0-.3,0-.4v-2.6c1.9,4.1,4.8,7.4,8.4,9.5l51,29.4c9,5.2,18.7,7.9,28.2,7.9s.3,0,.5,0c.1,0,.2,0,.3,0,7.3,0,15.9-.6,24.5-4.8.2,0,.4-.2.6-.3.3-.1.6-.3.9-.4.5-.3,1.1-.6,1.6-.9,0,0,0,0,0,0l.6-.4h0s.5-.3.5-.3c.5-.3.9-.5,1.3-.8.1,0,.2-.2.4-.3l.3-.3c.2-.1.4-.3.6-.4.2-.1.3-.3.5-.4l.3-.3c.1-.1.3-.2.4-.3.2-.2.4-.4.6-.6l.2-.2c0,0,.2-.2.3-.2.3-.3.5-.5.8-.8h0c0-.2.1-.2.2-.3.3-.3.5-.6.8-.9h0c0-.1,0-.2.1-.2.3-.4.5-.7.8-1.1h0c.3-.5.5-.9.7-1.3,0,0,0,0,0,0,.2-.4.4-.8.6-1.1v3.9h0Z"/>
      <path class="cls-2" d="M203,106.6l14.2,8.2c0,0,.1,0,.2,0,0,0,0,0,.1,0,.1,0,.2,0,.3,0s.2,0,.3,0c0,0,0,0,.1,0,0,0,.1,0,.2,0l14.9-8.4,111.3,63.7s0,0,0,0c0,0,0,0,0,0,0,0,0,.1,0,.2,0,0,0,0,0,.2,0,0,0,0,0,0,0,0,0,0,0,0,0,0,0,0,0,0,0,0,0,.1,0,.2v16.9c0,.5.2.9.6,1.1l14.2,8.2h0c.2.1.4.2.6.2s.2,0,.3,0c0,0,0,0,.1,0,0,0,.1,0,.2,0,0,0,0,0,0,0,0,0,0,0,0,0l47.5-27.6c.4-.2.6-.7.6-1.1v-16.9s0,0,0,0c0,0,0,0,0,0,0,0,0-.1,0-.2,0,0,0-.1,0-.2,0,0,0-.1,0-.2,0,0,0,0,0-.1,0,0,0,0-.1-.1,0,0,0,0,0-.1,0,0-.1,0-.2-.1,0,0,0,0,0,0h0l-14.2-8.2c-.4-.2-.9-.2-1.3,0l-16.3,9.5-110.3-63.2.5-.2c.4-.2.7-.7.7-1.1v-17c0-.5-.2-.9-.6-1.1-.1,0-.2-.1-.4-.1,0,0-.1,0-.2-.1l-14.2-8.2c-.4-.2-.9-.2-1.3,0l-47.5,27.1s0,0,0,0c0,0,0,0,0,0,0,0-.1,0-.2.1,0,0,0,0-.1,0,0,0,0,0-.1.1,0,0,0,0,0,.1,0,0,0,.1,0,.2,0,0,0,0,0,.1,0,0,0,.1,0,.2,0,0,0,0,0,.1,0,0,0,0,0,0,0,0,0,0,0,0v16.9c0,.5.2.9.6,1.1h0ZM204.9,90.9l11.6,6.7v13.9l-11.6-6.7v-13.9h0ZM219.1,97.6l13-7.3v13.9l-13,7.3v-13.9h0ZM234.6,104.2v-13.9l124.3,71.3-12,7-112.4-64.4h0ZM347,173.1l11.6,6.7v13.9l-11.6-6.7v-13.9h0ZM406.1,167.5l-44.9,26.1v-13.9l41.1-23.9,3.9-2.2v13.9ZM258.9,84.3l-7.7-4.5,13.3-7.6v14l-1.2.6s-4.5-2.6-4.5-2.6Z"/>
      <path class="cls-2" d="M252.9,241.7c0,0,0-.1,0-.2,0,0,0,0,0-.1,0,0,0-.1-.1-.2,0,0,0,0,0,0,0,0-.2-.1-.3-.2,0,0,0,0,0,0l-124.8-72.4,27.9-16c.4-.2.6-.7.6-1.1v-17s0,0,0-.1c0,0,0-.1,0-.2,0,0,0,0,0-.1,0,0,0-.1,0-.2,0,0,0,0,0-.1,0,0,0-.1-.1-.2,0,0,0,0-.1,0,0,0,0,0-.1-.1l-14.1-8.4c-.4-.2-.9-.2-1.3,0l-56.5,31.8c-1.3.7-2.4,1.8-3.1,3-.2.3-.2.7-.2,1,0,.3.3.6.6.8l13.9,8,140.9,81.6v16.6c0,.5.2.9.6,1.1.2.1.4.2.6.2s.4,0,.6-.2l14.7-8.4c.4-.2.7-.7.7-1.1v-17.3c0,0,0-.1,0-.2,0,0,0-.1,0-.1h0ZM124.9,167.1l-12.2-7.1,12.1-6.9,28.6-16.4v14.1l-28.5,16.3ZM238.2,265.6v-14.3l1.8-1,10.4-5.9v14.4l-12.2,6.9h0Z"/>
      <path class="cls-2" d="M216.2,344.6l9.7-5.7h0c0,0,0,0,.1-.1,3.4-2.2,6.1-5.3,8-9.1,0,0,0,0,0,0,2.1-4.1,3.1-8.9,3.1-14.3h0c-.1-22.2-9.8-37.3-32.5-50.4l-23-13.3c-.4-.2-.9-.2-1.3,0l-15,8.8c-.4.2-.6.7-.6,1.1,0,.5.2.9.6,1.1l15,8.7,8.2,4.7c21.7,12.5,31.1,27,31.2,48.2,0,4.2-.6,8-2,11.3-.7,1.7-1.6,3.3-2.6,4.7-.8,1.1-1.6,2-2.5,2.7-.2,0-.3.1-.5.3-5.5,5.1-13.7,6.8-20.3,4.2-.8-.3-1.6-.7-2.3-1.1h-.1c-.6-.4-1.4-.2-1.8.4-.4.6-.1,1.4.5,1.8h0s0,0,0,0l1,.6h0l7.7,4.4c21.7,12.5,31,28.5,31,53.4s-3.2,13.1-8.5,17c0,0-.1,0-.2.1,0,0-.1,0-.2.1-.3.2-.7.5-1.1.7-.2.1-.4.3-.5.5,0,0,0,0,0,0,0,0,0,0,0,0-.3.5-.2,1.1.3,1.5.2.2.6.4.9.4s.4,0,.6-.2l14.9-8.6c0,0,.1,0,.2-.1,2.8-1.7,5.4-4.1,7.3-7,2.7-4,3.7-10.1,3.7-14.4,0-24.3-8.6-39.7-29.4-52.6h0ZM220.3,336.6c1.5-3.6,2.2-7.8,2.2-12.3-.1-22.2-9.8-37.3-32.5-50.4l-21.3-12.3,12.4-7.3,22.3,12.9c21.7,12.5,31.1,27,31.2,48.2,0,4.9-.9,9.4-2.8,13.1,0,0,0,0,0,0-1.7,3.4-4.2,6.2-7.2,8.1,0,0,0,0,0,0l-6.1,3.6c.7-1.2,1.3-2.4,1.9-3.8h0ZM239.7,410.2c-1.8,2.6-4.1,4.8-6.7,6.4,0,0-.1,0-.1.1l-6.1,3.5c2.5-3.8,3.8-8.4,3.8-12.9,0-25.9-9.7-42.6-32.3-55.6l-.4-.3c4.5,0,9-1.2,12.9-3.6,0,0,0,0,.1,0l2.7-1.6c21.1,12.6,29.4,27.1,29.4,51.1s-.9,9.4-3.3,13h0Z"/>
      <path class="cls-2" d="M215.9,401.4c0-7.1-2.5-20.8-18.9-32.6-1.1-.8-2.1-1.5-3.2-2.1-3-1.9-11.6-6.8-11.9-7.1-.4-.2-.9-.2-1.3,0-.4.2-.6.7-.6,1.1v38.8s0,0,0,0,0,0,0,0c0,.1,0,.2,0,.3,0,0,0,0,0,0,0,.1,0,.2.1.3,0,0,0,0,0,.1,0,0,0,.1.1.2,0,0,0,0,.1,0,0,0,0,0,.1.1h0s0,0,0,0h0s19.1,11.1,19.1,11.1c0,0,0,0,0,0,0,0,0,0,.1,0l3.4,1.5s0,0,.1,0c1.3.4,2.5.6,3.6.6,1.8,0,3.4-.5,4.8-1.5,1.9-1.4,4.1-4.4,4.1-10.9s0,0,0-.1h0s0,0,0,0ZM213.2,399.1c-.6-.3-1.2-.7-1.9-1.1-1.6-.9-3.4-2-5.1-3,0,0,0,0,0,0-.4-.2-.8-.5-1.2-.7-.1,0-.3-.2-.4-.2-1-.6-2-1.1-2.8-1.6-.2,0-.3-.2-.5-.3-.1,0-.3-.2-.4-.3,0,0-.1,0-.2-.1-.6-.3-1.1-.6-1.6-.9,0,0,0,0,0,0-.6-.3-1.1-.6-1.4-.8v-17.6c12.1,9.5,15.2,20,15.7,26.7h0ZM182.5,362.9c2.8,1.6,7.8,4.5,9.9,5.9.8.5,1.7,1.1,2.5,1.7v19.5l-12.4,7.3v-34.3h0ZM210.3,410.4c-1.9,1.4-4.3,1.1-6,.5l-3.3-1.5-17.2-9.9,2.1-1.2,10.3-6c.5.3,1.1.7,2,1.1.3.2.6.3.9.5.7.4,1.4.8,2.2,1.3,0,0,.2.1.3.2,3.8,2.2,8.7,5,11.8,6.8,0,4-1.1,6.8-3.1,8.2h0Z"/>
      <path class="cls-2" d="M197.3,295.8c-1.5-1.3-3.1-2.5-4.9-3.5-7.1-4-10.3-6-10.3-6-.4-.2-.9-.2-1.3,0-.4.2-.7.7-.7,1.1v38.8s0,0,0,0,0,0,0,0c0,0,0,0,0,.1,0,0,0,.1,0,.2,0,0,0,0,0,.1,0,0,0,.1,0,.2,0,0,0,0,0,.1,0,0,0,0,.1.1,0,0,0,0,.1,0,0,0,0,0,.1,0,0,0,0,0,0,0,0,0,0,0,0,0,0,0,5.5,3,10.5,5.9,1.7,1,3.4,1.5,5.2,1.5s3-.3,4.3-1c3.5-1.8,5.8-5.7,6.3-10.7,0-.5-.2-1-.6-1.2-3.7-2.1-7.4-4.2-8.9-5v-20c0-.4-.2-.7-.4-1h0ZM191.1,294.6c1.4.8,2.7,1.7,4,2.8v19.4l-9.6,5.6-2.9,1.7v-34.3c1.7,1,4.4,2.6,8.4,4.9ZM199.7,331.4c-2.2,1.1-4.8,1-7.1-.3-3.2-1.9-6.5-3.7-8.6-4.9l12.4-7.2c1.4.7,4.7,2.6,8.1,4.5-.6,3.7-2.3,6.6-4.9,7.9h0Z"/>
      <path class="cls-2" d="M332,274.2s0,0,0,0c0,0,0,0,0,0l-14.9-8.6s0,0-.1,0c-8.4-4.7-18.4-4.6-26.8.1l-1.3.8c-10,5.7-18.4,14-24.2,24.1-5.7,9.9-8.8,21.2-8.8,32.6v68.2c0,9.8,5,18.5,13.5,23.4l2.9,1.7c0,.1.2.2.4.3l11.4,6.5s0,0,0,0c.5.3.9.5,1.4.8,3.8,1.9,7.9,2.8,12,2.8s9.3-1.2,13.5-3.6c21.3-12.3,34.6-35.3,34.6-59.9v-65.3c0-9.8-5.1-18.6-13.5-23.6h0ZM305.3,406.6l-2,1c-1.5.6-4.1,1.3-6.7,1,0,0,0,0,0,0-.3,0-.7-.1-1-.2-.6-.1-1.1-.3-1.7-.6-.1,0-.3-.1-.4-.2-1.2-.7-3.5-2.3-4.7-5.6.2,0,.3-.1.5-.2,0,0,0,0,.1,0l2.1-1.1s0,0,0,0c15.8-9.1,24.2-25,24.2-45.8v-65.3c0-.4,0-.7,0-1.1,1.7-.5,3.4-.5,4.9-.2,0,0,0,0,.1,0,.3,0,.6.1.8.2,0,0,0,0,0,0,.3,0,.5.2.8.3,0,0,.1,0,.2,0,.3.1.5.3.8.4,1.5.9,2.8,2.1,3.6,3.6.8,1.5,1.3,3.1,1.3,4.9v65.3c0,3.1-.2,6.1-.6,8.9-2.1,15.4-9.7,27.3-22.3,34.6h0ZM313,289.5v65.3c0,19.8-7.9,34.9-22.8,43.5l-2,1s-.1,0-.2,0c0-.5-.1-1-.1-1.5v-66.4c0-17.1,9.2-33,24.1-41.5l1-.6s0,0,0,0c0,0,0,0,0,.1h0ZM274.2,414.5c0-.1-.2-.2-.3-.3l-3.2-1.8c-7.6-4.4-12.2-12.3-12.2-21.1v-68.2c0-11,2.9-21.8,8.4-31.3,5.6-9.6,13.6-17.6,23.2-23.1l1.3-.8c7.6-4.3,16.7-4.4,24.4,0,0,0,0,0,.1,0l4.7,2.7c-.2,0-.4,0-.7,0-.6,0-1.1,0-1.7,0h-.1c-.6,0-1.1,0-1.6,0h-.2c-.6,0-1.1.1-1.5.2,0,0-.2,0-.2,0h-.1c-.5,0-.9.2-1.4.2,0,0-.2,0-.3,0h-.2c-.4.1-.8.2-1.2.3-.1,0-.3,0-.4.1h-.4c-.3.2-.6.3-.9.4-.2,0-.4.1-.5.2l-.5.2c-.2,0-.4.2-.7.3-.2.1-.5.2-.7.3l-.5.2c-.2,0-.3.1-.5.2-.5.3-1.1.6-1.6.8l-1.3.8c-1.5.9-3,1.8-4.4,2.8-5.1,3.5-9.6,7.6-13.6,12.4,0,0,0,0,0,0-2.3,2.8-4.3,5.7-6.1,8.8-5.7,9.9-8.8,21.2-8.8,32.6v68.2c0,5.7,1.7,11.1,4.8,15.5l-1.2-.7h0Z"/>
      <path class="cls-2" d="M402.7,295.6l21.1-86.2s0,0,0,0c0,0,0-.1,0-.2,0,0,0,0,0,0,0,0,0,0,0-.1,0,0,0-.1,0-.2,0,0,0,0,0-.1,0,0,0-.1,0-.2,0,0,0,0,0-.1,0,0,0-.1-.1-.2,0,0,0,0,0,0,0,0,0,0,0,0,0,0,0,0,0,0l-15.1-8.8c-.4-.2-.9-.2-1.3,0l-14.7,8.8s0,0,0,0c0,0-.1,0-.2.1,0,0,0,0,0,0,0,0,0,.1-.1.2,0,0,0,0,0,0,0,0,0,.2,0,.2,0,0,0,0,0,0,0,0,0,0,0,0l-7.7,31.2-2.3-6.9c0,0,0,0,0-.1,0,0,0,0,0,0,0,0-.1-.2-.2-.2,0,0,0,0,0,0,0,0-.2-.1-.2-.2,0,0,0,0,0,0l-14.7-8.8c-.4-.2-.9-.2-1.3,0l-15,8.8s0,0,0,0c0,0,0,0,0,0,0,0,0,0,0,0,0,0-.1.1-.2.2,0,0,0,0,0,.1,0,0,0,.2-.1.2,0,0,0,0,0,0,0,.1,0,.2,0,.3,0,0,0,0,0,0,0,0,0,0,0,0,0,0,0,.2,0,.3,0,0,0,0,0,0l20.9,61.8-21.1,86.2c-.1.6.1,1.1.6,1.4l15.1,8.4s.1,0,.2,0c0,0,0,0,.1,0,.1,0,.2,0,.4,0h0s0,0,0,0c.1,0,.2,0,.3,0,0,0,0,0,0,0,0,0,0,0,.1,0,0,0,0,0,0,0,0,0,0,0,0,0l14.7-8.5c.3-.2.5-.5.6-.8l7.6-31.1,2.3,6.9c.1.3.3.6.6.7l15.1,8.4s0,0,0,0c0,0,0,0,0,0,0,0,0,0,0,0,0,0,0,0,.1,0,0,0,.1,0,.2,0,0,0,0,0,0,0s0,0,0,0c0,0,0,0,0,0,0,0,.1,0,.2,0,0,0,0,0,0,0,0,0,.2,0,.2,0,0,0,0,0,0,0l14.7-8.3c.5-.3.8-.9.6-1.5l-21-61.9h0ZM407.4,201.8l12.6,7.3-.7.4-11.5,6.6-12.5-7.1,12.2-7.3h0ZM385.3,244.6l8.2-33.5,12.8,7.2-12.5,51.2-8.5-24.9h0ZM365.5,226.3l12.2,7.3-2.5,1.4-9.7,5.6-12.4-7,12.4-7.3h0ZM372.7,296c0-.2,0-.5,0-.7l-19.9-59,11.6,6.6,20.9,61.3-20.7,84.5-12.8-7.1,20.9-85.6h0ZM390.2,346.7l4-16.3,11.3,33.1-11.8-6.6-3.5-10.2h0Z"/>
    </g>
    <g>
      <path class="cls-1" d="M237.6,249.4l-153.8-89.1c0,0-.2,0-.2-.1l-1.4-.8c-.6-.4-1.4-.2-1.8.4-.8,1.4-1.3,2.9-1.3,4.6v64.1c0,.4.2.9.6,1.1l14.7,9c.4.2.9.3,1.3,0,.4-.2.7-.7.7-1.1v-49.5l139.8,81c.2.1.4.2.6.2s.4,0,.6-.2c.4-.2.6-.7.6-1.1v-17.3c0-.5-.2-.9-.6-1.1h0Z"/>
      <path class="cls-1" d="M198.4,351.6l-.4-.2c4.1,0,8.3-1,12-3.1,4.6-2.7,12.3-9.3,12.2-24.1-.1-22.2-9.8-37.3-32.5-50.4l-23-13.3c-.4-.2-.9-.2-1.3,0-.4.2-.6.7-.6,1.1v146.2c0,.4.2.9.6,1.1.2.1,18.5,11.5,31.7,18.3,4,2,8,3.1,11.8,3.1s7.4-1,10.6-3c6.7-4.1,11.1-12,11.1-20.1,0-25.9-9.7-42.6-32.3-55.6h0ZM204.2,325.2c0,0,0,.2,0,.3,0,0,0,.2,0,.3,0,.2-.1.4-.2.6v.4c-.2.1-.2.2-.3.3,0,.2-.2.4-.3.5v.3c-.2.1-.3.2-.3.3-.1.2-.2.3-.3.5v.2c-.2.1-.3.2-.4.3-.1.2-.3.3-.4.5-.1.1-.2.3-.3.4-.1.1-.3.3-.4.4-.1.1-.3.2-.4.3-.1.1-.3.2-.4.3-.1,0-.3.2-.4.3-.1,0-.3.2-.5.2-.2,0-.3.1-.5.2-.2,0-.3.1-.5.2-.2,0-.3,0-.5.1-.1,0-.3,0-.5,0-.2,0-.3,0-.5,0h-.1c-.1,0-.2,0-.3,0-.2,0-.3,0-.6,0h-.2c0,0-.2,0-.3,0-.2,0-.3,0-.5,0h-.3c0,0-.1,0-.2-.1-.2,0-.4-.1-.7-.2,0,0-.1,0-.2,0,0,0,0,0-.1,0-.3-.1-.6-.3-1-.5h0c-4-2.4-8.3-4.7-10-5.6v-35.8c1.7,1,4.4,2.6,8.4,4.8,0,0,0,0,0,0,.7.4,1.4.8,2.2,1.4,0,0,.2.1.3.2h.2c.5.5,1.1,1,1.6,1.4,0,0,0,0,.1.1,0,0,0,0,0,0,8,7.1,9.2,17.5,9.2,23s-.2,3.1-.6,4.5h0ZM182.5,362.9c2.8,1.6,7.8,4.5,9.9,5.9,1,.6,2,1.3,3,2.1,15.5,11.1,17.8,23.9,17.9,30.5h0c0,4.4-1.1,7.5-3.1,9-1.9,1.4-4.3,1.1-6,.5l-3.3-1.5-18.4-10.7v-35.8h0Z"/>
    </g>
  </g>
  <g>
    <g class="cls-7">
      <polygon class="cls-3" points="27.8 274.5 36.3 337.1 56.8 351.8 472 283.4 463.5 220.8 442.9 206.1 27.8 274.5"/>
    </g>
    <g>
      <path class="cls-4" d="M169.1,313.1l-.9-5.6,5.5-.9-4.9-29.8-5.5.9-.9-5.6,20.9-3.5c2.5-.4,4.7-.3,6.7.2,2,.5,3.6,1.5,4.9,2.9,1.3,1.4,2.1,3.1,2.5,5.2v.6c.4,1.9.3,3.5-.2,4.8-.5,1.3-1.2,2.4-2.1,3.2-.9.8-1.8,1.5-2.6,1.9l.2.9c.9,0,2,.4,3.1.9,1.2.5,2.2,1.3,3.1,2.4.9,1.1,1.6,2.6,1.9,4.6v.6c.5,2.3.3,4.3-.5,6.1-.8,1.8-2,3.3-3.8,4.4-1.7,1.2-3.8,2-6.2,2.4l-21,3.5h0ZM177.1,287.5l8.3-1.4c2-.3,3.5-1.1,4.6-2.3,1-1.2,1.4-2.7,1.1-4.4v-.6c-.4-1.7-1.2-3-2.6-3.8-1.4-.8-3.1-1-5.1-.7l-8.3,1.4,1.9,11.8h0ZM180.1,305.4l8.3-1.4c2.1-.4,3.7-1.1,4.7-2.4,1-1.2,1.4-2.7,1.1-4.5v-.5c-.4-1.8-1.2-3.1-2.6-3.9-1.4-.8-3.1-1.1-5.3-.7l-8.3,1.4,2,12h0Z"/>
      <path class="cls-4" d="M220.2,304.7l-6.8-41.1,25.9-4.3,1,5.8-19.6,3.2,2,11.8,17.9-3,1,5.8-17.9,3,2,12,19.9-3.3,1,5.8-26.2,4.3h0Z"/>
      <path class="cls-4" d="M273.4,295.8l-5.9-35.4-12.6,2.1-1-5.8,31.6-5.2,1,5.8-12.6,2.1,5.9,35.4-6.3,1.1h0Z"/>
      <path class="cls-4" d="M301.5,291.2l4.9-43.1,11.2-1.9,18.5,39.2-6.5,1.1-4.3-9.2-16.1,2.7-1.1,10.1-6.6,1.1h0ZM309.8,273.8l12.9-2.1-9.6-20.6-.9.2-2.4,22.6h0Z"/>
    </g>
  </g>
</svg>