<svg width="32" height="32" viewBox="0 0 32 32" fill="none" xmlns="http://www.w3.org/2000/svg">
<g clip-path="url(#clip0_311_16)">
<circle cx="16" cy="16" r="16" fill="white"/>
<path d="M27.3137 4.68631C24.2917 1.66428 20.2738 0 16 0C11.7262 0 7.70827 1.66428 4.68631 4.68631C1.66435 7.70834 0 11.7262 0 16C0 20.2738 1.66428 24.2917 4.68631 27.3137C7.70834 30.3357 11.7262 32 16 32C20.2738 32 24.2917 30.3357 27.3137 27.3137C30.3357 24.2917 32 20.2738 32 16C32 11.7262 30.3357 7.70827 27.3137 4.68631ZM30.9629 16.0263L29.0096 14.6072L27.4303 9.63007L28.1843 7.30975C29.9892 9.82884 30.9633 12.8394 30.9633 16C30.9633 16.0088 30.963 16.0176 30.9629 16.0263ZM28.9706 23.4718H25.944L24.3501 18.5664L28.5228 15.5349L30.9094 17.2689C30.7254 19.4755 30.0624 21.5835 28.9706 23.4718ZM20.7269 27.0873L16.5184 24.0296V21.4897L20.9363 18.2798L23.3538 18.8549L24.9628 23.8069L20.7269 27.0873ZM11.2696 27.0899L7.05037 23.7663L8.64864 18.8472L11.0413 18.2636L15.4816 21.4896V24.0296L11.2696 27.0899ZM1.09049 17.2689L3.47715 15.5349L7.6498 18.5666L6.05595 23.4718H3.02943C1.93762 21.5836 1.27461 19.4755 1.09049 17.2689ZM5.48175 10.1327H10.783L12.4557 12.2644L10.8369 17.2463L8.41089 17.8381L4.05536 14.6736L5.48175 10.1327ZM13.2296 4.49244H18.7703L20.3884 9.47207L18.7313 11.6112H13.261L11.6031 9.4984L13.2296 4.49244ZM26.5022 10.1327L27.9434 14.6744L23.5816 17.8435L21.1707 17.2699L19.542 12.2575L21.188 10.1327H26.5022ZM16 20.5848L11.8274 17.5533L13.4212 12.6479H18.5789L20.1727 17.5533L16 20.5848ZM27.4144 6.32446L26.5138 9.09595H21.3562L19.7623 4.19069L22.2385 2.39164C23.8335 3.12384 25.3025 4.14127 26.5806 5.41933C26.8725 5.71127 27.15 6.01351 27.4144 6.32446ZM21.1115 1.92912L19.0103 3.45572H12.9898L10.8886 1.92912C12.5053 1.34289 14.2291 1.03672 16 1.03672C17.7709 1.03672 19.4947 1.34289 21.1115 1.92912ZM5.41933 5.4194C6.6974 4.14134 8.16643 3.1239 9.76145 2.39171L12.2376 4.19076L10.6437 9.09602H5.4861L4.58561 6.32453C4.85004 6.01358 5.12753 5.71127 5.41933 5.4194ZM3.81567 7.30975L4.56114 9.60422L2.98948 14.6078L1.03699 16.0263C1.03699 16.0176 1.03665 16.0088 1.03665 16C1.03672 12.8394 2.01082 9.82891 3.81567 7.30975ZM3.6874 24.5085H6.31734L10.7479 27.9986L11.4868 30.273C9.22187 29.5597 7.14651 28.3078 5.41933 26.5806C4.77457 25.9358 4.19663 25.2421 3.6874 24.5085ZM12.6818 30.5961L11.8273 27.9661L15.9999 24.9345L20.1726 27.9661L19.318 30.5961C18.2416 30.8386 17.1304 30.9633 16 30.9633C14.8696 30.9633 13.7583 30.8386 12.6818 30.5961ZM26.5807 26.5807C24.8535 28.3078 22.7781 29.5598 20.5131 30.273L21.2551 27.9895L25.75 24.5085H28.3126C27.8034 25.2421 27.2254 25.9358 26.5807 26.5807Z" fill="black"/>
</g>
<defs>
<clipPath id="clip0_311_16">
<rect width="32" height="32" fill="white"/>
</clipPath>
</defs>
</svg>
