<svg width="70" height="103" viewBox="0 0 70 103" fill="none" xmlns="http://www.w3.org/2000/svg">
<path d="M70 63.5C70 69.299 65.299 74 59.5 74C53.701 74 49 69.299 49 63.5C49 57.701 53.701 53 59.5 53C65.299 53 70 57.701 70 63.5Z" fill="white"/>
<path fill-rule="evenodd" clip-rule="evenodd" d="M0 15C0 6.71573 6.71573 0 15 0H55C63.2843 0 70 6.71573 70 15V30H55V27C55 18.7157 48.2843 12 40 12H29C20.7157 12 14 18.7157 14 27V66C14 74.2843 20.7157 81 29 81H33H40H70V88C70 96.2843 63.2843 103 55 103H15C6.71573 103 0 96.2843 0 88V15Z" fill="white"/>
</svg>
