<svg width="65" height="69" viewBox="0 0 65 69" fill="none" xmlns="http://www.w3.org/2000/svg">
<path d="M64.6495 68.9994C63.27 67.3413 64.3157 63.4544 61.7599 61.7441C59.7397 59.6042 58.0121 56.4992 54.8426 56.0512C50.9926 55.868 47.1483 57.6643 43.3423 56.6866C38.3983 57.2106 47.35 53.7267 44.6592 52.1178C41.6474 51.9093 38.6058 52.694 35.5598 52.5334C33.8522 52.9223 32.477 52.9969 34.5171 51.4022C36.7987 50.1018 38.6853 46.6883 34.7287 46.4418C30.927 46.3023 27.1523 47.1265 23.3847 47.4632C22.4286 45.1527 18.2717 46.4615 16.2529 44.8527C19.0587 43.2903 21.66 41.3842 24.5241 39.9261C27.472 36.6098 20.6627 36.3464 18.4862 36.1097C15.5142 35.7279 12.4498 36.3548 9.64466 37.1578C8.34474 37.2001 9.73075 34.3064 7.42599 34.3262C4.75499 33.6556 2.48944 32.5299 0 31.3226C3.32821 31.6438 4.96695 28.7262 7.59946 27.9598C10.0488 27.5048 16.0924 27.416 14.7129 23.608C13.7312 21.0905 7.55939 21.7879 8.93716 19.1703C7.54135 17.4234 3.19211 15.2215 3.28346 13.9691C5.67075 14.9637 11.7139 13.8704 8.12937 10.7495C6.96626 9.50937 6.65116 7.7805 5.1076 6.72461C7.94369 5.67139 1.49682 2.35044 6.08474 2.63825C8.14471 3.54636 10.9187 4.4711 10.9156 1.812C12.6272 4.04719 15.5282 4.38699 17.5555 6.25618C20.9112 8.13256 20.7947 2.11277 21.5917 0.00634177C23.207 -0.228321 23.5309 5.50896 26.1719 4.76497C26.7998 7.90349 27.7361 11.1013 29.4494 13.832C30.3089 15.762 33.3491 18.3514 33.6546 14.5603C34.4757 12.3403 35.1591 10.0725 35.6591 7.75993C37.4151 7.13696 37.543 4.14806 38.5928 2.6229C38.9849 1.12859 39.995 -1.65885 40.2294 1.52826C41.2523 3.82291 40.7551 8.77102 43.7627 8.60479C42.8705 12.0831 43.8564 15.6831 43.4601 19.215C43.2981 21.3578 44.598 27.3677 46.9336 23.3146C48.7506 20.3519 51.8136 18.5613 53.9105 15.8142C54.9916 17.2413 52.1432 22.289 54.5825 23.3583C54.0043 26.2308 51.6872 28.9596 51.3789 31.9871C51.5522 35.2527 58.5078 28.7962 56.3583 32.4534C55.3497 35.2189 54.6166 38.1224 53.1618 40.7174C53.4758 43.9464 59.3986 37.5251 58.2123 41.0485C58.2322 43.666 54.8766 46.4907 56.3981 48.718C57.4821 47.6515 60.9087 46.2794 58.9354 49.0688C57.2235 51.7314 56.239 55.807 58.8616 58.2316C61.3023 61.0238 65.104 63.5103 64.9577 67.624C64.7616 67.9748 65.3412 69.0089 64.6508 68.999L64.6495 68.9994Z" fill="#0F7A21"/>
</svg>
