<svg width="1000" height="750" viewBox="0 0 1000 750" fill="none" xmlns="http://www.w3.org/2000/svg">
<g clip-path="url(#clip0_451_191)">
<path d="M1000 0H0V750H1000V0Z" fill="#009C00"/>
</g>
<rect x="66.5" y="48.5" width="432" height="654" stroke="white" stroke-width="3"/>
<rect x="66.5" y="307.5" width="42" height="134" stroke="white" stroke-width="3"/>
<rect x="42.5" y="348.5" width="24" height="54" stroke="white" stroke-width="3"/>
<circle cx="498.5" cy="374.5" r="67" stroke="white" stroke-width="3"/>
<mask id="path-6-inside-1_451_191" fill="white">
<path fill-rule="evenodd" clip-rule="evenodd" d="M186 232H68V521H186V232ZM68 229H65V232V521V524H68H186H189V521V232V229H186H68Z"/>
</mask>
<path fill-rule="evenodd" clip-rule="evenodd" d="M186 232H68V521H186V232ZM68 229H65V232V521V524H68H186H189V521V232V229H186H68Z" fill="#F41010"/>
<path d="M68 232V229H65V232H68ZM186 232H189V229H186V232ZM68 521H65V524H68V521ZM186 521V524H189V521H186ZM65 229V226H62V229H65ZM65 524H62V527H65V524ZM189 524V527H192V524H189ZM189 229H192V226H189V229ZM68 235H186V229H68V235ZM71 521V232H65V521H71ZM186 518H68V524H186V518ZM183 232V521H189V232H183ZM65 232H68V226H65V232ZM68 232V229H62V232H68ZM68 521V232H62V521H68ZM68 524V521H62V524H68ZM68 521H65V527H68V521ZM186 521H68V527H186V521ZM189 521H186V527H189V521ZM186 521V524H192V521H186ZM186 232V521H192V232H186ZM186 229V232H192V229H186ZM186 232H189V226H186V232ZM68 232H186V226H68V232Z" fill="white" mask="url(#path-6-inside-1_451_191)"/>
<path d="M187.5 430.821C205.327 418.454 217 397.84 217 374.5C217 351.16 205.327 330.546 187.5 318.179" stroke="white" stroke-width="3"/>
<circle cx="146" cy="375" r="1.5" fill="#EC1E1E" stroke="white" stroke-width="3"/>
<rect x="930.5" y="702.5" width="432" height="654" transform="rotate(-180 930.5 702.5)" stroke="white" stroke-width="3"/>
<rect x="930.5" y="443.5" width="42" height="134" transform="rotate(-180 930.5 443.5)" stroke="white" stroke-width="3"/>
<rect x="954.5" y="402.5" width="24" height="54" transform="rotate(-180 954.5 402.5)" stroke="white" stroke-width="3"/>
<mask id="path-13-inside-2_451_191" fill="white">
<path fill-rule="evenodd" clip-rule="evenodd" d="M811 519H929V230H811V519ZM929 522H932V519V230V227H929H811H808V230V519V522H811H929Z"/>
</mask>
<path fill-rule="evenodd" clip-rule="evenodd" d="M811 519H929V230H811V519ZM929 522H932V519V230V227H929H811H808V230V519V522H811H929Z" fill="#F41010"/>
<path d="M929 519V522H932V519H929ZM811 519H808V522H811V519ZM929 230H932V227H929V230ZM811 230V227H808V230H811ZM932 522V525H935V522H932ZM932 227H935V224H932V227ZM808 227V224H805V227H808ZM808 522H805V525H808V522ZM929 516H811V522H929V516ZM926 230V519H932V230H926ZM811 233H929V227H811V233ZM814 519V230H808V519H814ZM932 519H929V525H932V519ZM929 519V522H935V519H929ZM929 230V519H935V230H929ZM929 227V230H935V227H929ZM929 230H932V224H929V230ZM811 230H929V224H811V230ZM808 230H811V224H808V230ZM811 230V227H805V230H811ZM811 519V230H805V519H811ZM811 522V519H805V522H811ZM811 519H808V525H811V519ZM929 519H811V525H929V519Z" fill="white" mask="url(#path-13-inside-2_451_191)"/>
<path d="M809.5 320.179C791.673 332.546 780 353.16 780 376.5C780 399.84 791.673 420.454 809.5 432.821" stroke="white" stroke-width="3"/>
<circle cx="851" cy="376" r="1.5" transform="rotate(-180 851 376)" fill="#EC1E1E" stroke="white" stroke-width="3"/>
<defs>
<clipPath id="clip0_451_191">
<rect width="1000" height="750" fill="white"/>
</clipPath>
</defs>
</svg>
