<svg width="80" height="80" viewBox="0 0 80 80" fill="none" xmlns="http://www.w3.org/2000/svg">
<path d="M14.5502 38.1383C15.3485 38.1383 15.9956 37.4911 15.9956 36.6928C15.9956 35.8945 15.3485 35.2473 14.5502 35.2473C13.7518 35.2473 13.1047 35.8945 13.1047 36.6928C13.1047 37.4911 13.7518 38.1383 14.5502 38.1383Z" fill="black"/>
<path d="M25.6298 38.0778C25.0433 38.4506 24.8702 39.2285 25.2431 39.815C26.187 41.2997 26.6861 43.0194 26.6861 44.788C26.6859 46.5567 26.187 48.2763 25.2431 49.7608C24.8703 50.3474 25.0434 51.1252 25.6298 51.498C25.8392 51.6313 26.0728 51.6947 26.3039 51.6947C26.72 51.6947 27.1273 51.4885 27.3672 51.1113C28.568 49.2225 29.2028 47.0361 29.203 44.7883C29.203 42.5406 28.5681 40.3541 27.3672 38.465C26.9942 37.8781 26.2166 37.7047 25.6298 38.0778Z" fill="black"/>
<path d="M21.8939 41.9369C21.5209 41.3505 20.7431 41.1772 20.1566 41.5503C19.5702 41.9233 19.397 42.7011 19.77 43.2877C20.0545 43.7352 20.205 44.2539 20.205 44.788C20.205 45.322 20.0547 45.8409 19.77 46.2881C19.397 46.8745 19.57 47.6523 20.1564 48.0253C20.3658 48.1586 20.5995 48.2222 20.8306 48.2222C21.2466 48.2222 21.6539 48.0159 21.8936 47.6389C22.4355 46.7872 22.7219 45.8012 22.7219 44.7878C22.722 43.7745 22.4358 42.7886 21.8939 41.9369Z" fill="black"/>
<path d="M79.6316 31.1713C79.3955 30.9352 79.0755 30.8027 78.7416 30.8027H68.9552V21.0159C68.9552 20.3209 68.3919 19.7575 67.6967 19.7575C67.6964 19.7575 67.6967 19.7575 67.6964 19.7575C62.4205 19.7575 58.1272 24.0505 58.1269 29.3269V30.8025H40.2787V22.4961C40.2787 21.8011 39.7153 21.2377 39.0203 21.2377C32.7591 21.2377 27.1997 25.045 24.9105 30.8025H4.34344C1.94844 30.8028 0 32.7516 0 35.1467C0 35.3128 0.0096875 35.4811 0.02875 35.647C0.0303125 35.6606 0.0320312 35.6742 0.0340625 35.6877C0.888125 41.4689 3.79844 46.7764 8.22937 50.6327C10.7884 52.86 13.7602 54.5139 16.9464 55.5228L16.8094 55.6599C16.5733 55.8958 16.4408 56.2159 16.4408 56.5497C16.4408 56.8834 16.5733 57.2036 16.8094 57.4397C18.6753 59.3055 21.1253 60.2381 23.5763 60.238C26.0264 60.2378 28.4777 59.305 30.343 57.4398L31.1103 56.6725H32.2995L33.0669 57.4397C34.8742 59.2472 37.2775 60.2425 39.8336 60.2425C42.3897 60.2425 44.7931 59.2472 46.6005 57.4397C46.8366 57.2036 46.9691 56.8836 46.9691 56.5497C46.9691 56.5302 46.967 56.5109 46.9661 56.4914C51.0905 55.9963 55.0052 54.4744 58.3973 52.0233C62.0778 49.3641 64.9275 45.7844 66.6798 41.6306H70.4308C75.7072 41.6306 80 37.3377 80 32.0611C80 31.7274 79.8675 31.4074 79.6316 31.1713ZM19.5584 56.4705L19.7891 56.2399C21.293 56.5252 22.8294 56.6728 24.3798 56.6728H27.2831C24.9152 58.1359 21.863 58.0692 19.5584 56.4705ZM39.8333 57.7258C37.9494 57.7258 36.1784 56.9922 34.8464 55.6602L31.9592 52.7731C30.8295 51.6434 30.8295 49.8055 31.9592 48.6756C32.5064 48.1284 33.2341 47.827 34.0077 47.827C34.7816 47.827 35.5089 48.1284 36.0561 48.6756L43.8517 56.4711C42.6805 57.2867 41.2903 57.7258 39.8333 57.7258ZM70.4308 39.1139H65.8291C65.3069 39.1139 64.8391 39.4364 64.653 39.9244C61.5103 48.1742 53.8509 53.7092 45.0667 54.1266L37.8361 46.8959C36.8136 45.8734 35.4539 45.31 34.0078 45.31C32.5617 45.31 31.202 45.8731 30.1795 46.8956C28.1964 48.8791 28.0769 52.0308 29.8202 54.1555H24.3803C19.048 54.1555 13.8992 52.23 9.88234 48.7339C5.90984 45.2766 3.29859 40.5209 2.52781 35.3419C2.52062 35.2769 2.51719 35.2111 2.51719 35.1466C2.51719 34.1392 3.33656 33.3197 4.34375 33.3197H25.7917C26.3348 33.3197 26.8166 32.9711 26.9869 32.4555C28.5708 27.6538 32.8105 24.3058 37.7619 23.8167V32.0613C37.7619 32.7563 38.3253 33.3197 39.0203 33.3197H59.3852C60.0803 33.3197 60.6436 32.7563 60.6436 32.0613V29.3272C60.6439 25.8677 63.1475 22.982 66.438 22.387V32.0614C66.438 32.3952 66.5705 32.7153 66.8064 32.9513C67.0425 33.1874 67.3625 33.3199 67.6964 33.3199H77.3703C76.7756 36.6103 73.8902 39.1139 70.4308 39.1139Z" fill="black"/>
<path d="M24.6337 40.1989C24.2608 39.6124 23.483 39.4392 22.8964 39.8122C22.31 40.1852 22.1367 40.963 22.5097 41.5495C23.1244 42.5161 23.4492 43.6359 23.4492 44.7881C23.4492 45.9403 23.1244 47.0602 22.5097 48.0267C22.1369 48.6133 22.31 49.3911 22.8964 49.7641C23.1058 49.8972 23.3395 49.9608 23.5705 49.9608C23.9866 49.9608 24.3939 49.7545 24.6336 49.3774C25.5053 48.0064 25.9659 46.4195 25.9659 44.7881C25.9661 43.1567 25.5053 41.5699 24.6337 40.1989Z" fill="black"/>
</svg>
