<?xml version="1.0" encoding="UTF-8" standalone="no"?>
<!-- Created with Inkscape (http://www.inkscape.org/) -->

<svg
   version="1.1"
   id="svg2"
   width="5164"
   height="5164"
   viewBox="0 0 5164 5164"
   sodipodi:docname="vecteezy_shipwreck-icon-style_8333746.eps"
   xmlns:inkscape="http://www.inkscape.org/namespaces/inkscape"
   xmlns:sodipodi="http://sodipodi.sourceforge.net/DTD/sodipodi-0.dtd"
   xmlns="http://www.w3.org/2000/svg"
   xmlns:svg="http://www.w3.org/2000/svg">
  <defs
     id="defs6" />
  <sodipodi:namedview
     id="namedview4"
     pagecolor="#ffffff"
     bordercolor="#000000"
     borderopacity="0.25"
     inkscape:showpageshadow="2"
     inkscape:pageopacity="0.0"
     inkscape:pagecheckerboard="0"
     inkscape:deskcolor="#d1d1d1" />
  <g
     id="g8"
     inkscape:groupmode="layer"
     inkscape:label="ink_ext_XXXXXX"
     transform="matrix(1.3333333,0,0,-1.3333333,0,5164)">
    <g
       id="g10"
       transform="scale(0.1)">
      <path
         d="m 6383,11954 c -780,0 -1544,351 -2046,989 -76,98 -104,227 -72,347 32,121 117,220 233,267 l 8244,3414 c 449,187 963,65 1280,-305 l 339,-393 20026,8297 c 203,84 436,-13 520,-216 205,-493 205,-1037 0,-1531 -205,-493 -589,-879 -1083,-1083 L 14710,13823 c -478,-199 -1026,-69 -1363,324 v 0 l -303,353 -5673,-2350 c -320,-132 -655,-196 -988,-196 z m -1012,1103 c 492,-329 1129,-407 1695,-172 l 5939,2460 c 159,65 342,22 454,-109 l 492,-570 c 113,-132 295,-175 455,-109 l 19114,7918 c 297,124 529,355 652,652 71,170 100,351 90,529 L 14398,15429 c -159,-66 -342,-22 -454,108 l -526,611 c -92,107 -242,143 -372,88 L 5371,13057 v 0"
         style="fill:#100f0d;fill-opacity:1;fill-rule:evenodd;stroke:none"
         id="path12" />
      <path
         d="m 8793,10092 c -102,0 -206,39 -283,118 l -1905,1920 c -155,155 -154,407 2,563 156,154 407,154 563,-2 l 1906,-1920 c 154,-156 154,-408 -3,-563 -78,-77 -179,-116 -280,-116 v 0"
         style="fill:#100f0d;fill-opacity:1;fill-rule:evenodd;stroke:none"
         id="path14" />
      <path
         d="m 23624,10380 c -156,0 -305,92 -368,246 -84,203 13,436 215,520 l 8805,3646 c 495,205 816,685 818,1221 l 20,6029 c 1,220 178,396 398,396 0,0 1,0 2,0 220,-1 397,-180 396,-399 l -20,-6029 c -3,-859 -517,-1626 -1310,-1954 l -8805,-3647 c -50,-20 -102,-29 -151,-29 v 0"
         style="fill:#100f0d;fill-opacity:1;fill-rule:evenodd;stroke:none"
         id="path16" />
      <path
         d="m 15007,18130 c -117,0 -232,52 -309,147 -111,136 -120,329 -20,474 175,258 208,1120 -184,2067 -392,946 -1025,1533 -1332,1592 -172,33 -303,176 -321,351 -18,176 81,341 244,408 l 7083,2934 c 379,157 883,17 1383,-384 466,-373 861,-912 1112,-1518 251,-605 353,-1265 287,-1859 -71,-637 -329,-1092 -708,-1249 l -7082,-2933 c -50,-20 -102,-30 -153,-30 z m -879,4609 c 425,-377 825,-953 1100,-1616 275,-664 399,-1355 365,-1921 l 6344,2627 c 182,87 425,1020 -9,2068 -434,1050 -1266,1536 -1455,1470 l -6345,-2628 v 0"
         style="fill:#100f0d;fill-opacity:1;fill-rule:evenodd;stroke:none"
         id="path18" />
      <path
         d="m 13367,24280 c -117,0 -232,52 -309,147 -111,136 -120,329 -20,475 128,190 147,871 -156,1604 -303,733 -797,1201 -1024,1244 -172,33 -303,176 -321,351 -18,176 81,341 243,408 l 5740,2378 c 333,138 769,20 1197,-321 388,-310 716,-756 924,-1259 294,-710 335,-1525 106,-2077 -110,-267 -280,-453 -489,-540 l -5738,-2379 c -50,-22 -102,-31 -153,-31 z m -574,3783 c 321,-311 617,-753 824,-1255 208,-502 310,-1024 304,-1470 l 5025,2081 c 121,102 289,784 -41,1580 -329,796 -930,1158 -1088,1146 l -5024,-2082 z m 6161,-640 v 0 0"
         style="fill:#100f0d;fill-opacity:1;fill-rule:evenodd;stroke:none"
         id="path20" />
      <path
         d="m 12221,29683 c -117,0 -232,52 -309,147 -110,137 -119,329 -20,475 54,81 98,513 -124,1046 -203,491 -537,803 -652,827 -172,34 -303,177 -320,351 -17,174 80,340 242,407 l 4123,1708 c 533,221 1314,-337 1670,-1195 355,-858 199,-1805 -334,-2027 l -4124,-1708 c -49,-22 -101,-31 -152,-31 z m -220,2788 c 213,-243 390,-541 504,-817 114,-277 199,-613 221,-935 l 3434,1422 c 65,108 136,523 -62,1001 -199,478 -541,722 -663,751 l -3434,-1422 z m 4147,-343 z m -731,1769 v 0"
         style="fill:#100f0d;fill-opacity:1;fill-rule:evenodd;stroke:none"
         id="path22" />
      <path
         d="m 13571,33155 c -156,0 -305,92 -368,246 l -563,1359 c -84,203 13,436 216,519 203,84 436,-12 520,-215 l 563,-1359 c 84,-203 -13,-436 -216,-520 -50,-20 -102,-30 -152,-30"
         style="fill:#100f0d;fill-opacity:1;fill-rule:evenodd;stroke:none"
         id="path24" />
      <path
         d="m 15245,29111 c -156,0 -304,93 -368,246 l -645,1556 c -84,203 13,436 216,520 203,84 435,-13 519,-216 l 645,-1556 c 84,-203 -13,-436 -216,-520 -48,-19 -99,-30 -151,-30 v 0"
         style="fill:#100f0d;fill-opacity:1;fill-rule:evenodd;stroke:none"
         id="path26" />
      <path
         d="m 19948,17761 c -156,0 -304,92 -368,245 l -855,2064 c -84,203 13,436 216,520 203,84 435,-13 519,-216 l 855,-2064 c 84,-203 -13,-436 -216,-519 -49,-21 -101,-30 -151,-30 v 0"
         style="fill:#100f0d;fill-opacity:1;fill-rule:evenodd;stroke:none"
         id="path28" />
      <path
         d="m 17323,24095 c -157,0 -305,93 -369,246 l -644,1555 c -84,203 13,436 215,520 203,84 436,-13 520,-216 l 644,-1555 c 84,-203 -13,-436 -216,-520 -47,-20 -99,-30 -150,-30 v 0"
         style="fill:#100f0d;fill-opacity:1;fill-rule:evenodd;stroke:none"
         id="path30" />
      <path
         d="m 24849,21928 c -117,0 -232,52 -308,147 -111,136 -121,329 -21,474 148,217 173,989 -169,1812 -340,823 -904,1351 -1162,1400 -173,33 -303,176 -321,351 -18,175 81,340 243,407 l 6345,2628 c 703,292 1794,-530 2289,-1723 494,-1194 304,-2547 -399,-2838 l -6345,-2628 c -49,-19 -101,-30 -152,-30 z m -710,4157 c 367,-342 710,-844 947,-1418 239,-574 351,-1172 333,-1674 l 5622,2328 c 137,87 352,871 -32,1798 -385,927 -1091,1327 -1255,1291 l -5615,-2325 v 0"
         style="fill:#100f0d;fill-opacity:1;fill-rule:evenodd;stroke:none"
         id="path32" />
      <path
         d="m 23381,27435 c -117,0 -232,52 -309,147 -110,136 -120,329 -20,474 98,143 132,732 -143,1396 -275,666 -716,1058 -886,1091 -173,33 -303,176 -321,351 -18,176 81,340 244,408 l 5141,2130 c 312,129 718,22 1114,-294 352,-282 651,-688 840,-1145 423,-1021 252,-2142 -365,-2399 l -5141,-2129 c -51,-20 -103,-30 -154,-30 z m -443,3418 c 298,-308 548,-718 704,-1094 156,-376 269,-842 276,-1271 l 4435,1837 c 110,115 221,708 -50,1365 -272,657 -771,998 -929,1001 l -4436,-1838 z m 4428,1836 z m 24,7 v 0 0"
         style="fill:#100f0d;fill-opacity:1;fill-rule:evenodd;stroke:none"
         id="path34" />
      <path
         d="m 29265,21619 c -156,0 -304,92 -368,246 l -756,1824 c -20,48 -31,100 -31,153 0,220 178,398 398,398 173,0 318,-110 374,-262 l 749,-1809 c 84,-203 -13,-436 -216,-519 -48,-20 -99,-31 -150,-31"
         style="fill:#100f0d;fill-opacity:1;fill-rule:evenodd;stroke:none"
         id="path36" />
      <path
         d="m 26925,27271 c -156,0 -304,93 -368,245 l -578,1394 c -84,203 13,436 215,520 203,84 436,-13 520,-216 l 578,-1394 c 84,-203 -13,-435 -216,-519 -49,-20 -100,-30 -151,-30 v 0"
         style="fill:#100f0d;fill-opacity:1;fill-rule:evenodd;stroke:none"
         id="path38" />
      <path
         d="m 7531,9719 c -36,0 -72,1 -107,3 -545,20 -1065,204 -1504,529 l -211,158 c -679,503 -1593,503 -2272,-1 l -817,-608 c -177,-132 -425,-95 -557,81 -131,177 -95,425 81,557 l 817,608 c 964,715 2259,715 3222,1 l 212,-158 c 308,-229 675,-358 1061,-373 49,-2 100,-2 149,0 387,14 754,143 1062,373 l 211,157 c 964,714 2258,714 3222,1 l 212,-158 c 308,-229 675,-358 1060,-373 50,-2 99,-2 149,0 386,14 754,143 1063,373 l 211,158 c 964,713 2258,713 3220,0 l 212,-158 c 308,-229 675,-358 1061,-373 50,-2 99,-2 149,0 386,14 753,143 1063,373 l 211,158 c 964,713 2258,713 3221,0 l 212,-158 c 309,-229 675,-358 1061,-373 50,-2 99,-2 149,0 386,14 753,143 1063,373 l 212,158 c 963,713 2258,713 3220,0 l 212,-158 c 309,-229 675,-358 1061,-373 50,-2 99,-2 149,0 386,14 753,143 1063,373 l 211,158 c 964,713 2258,713 3221,0 l 820,-608 c 177,-132 214,-380 83,-557 -131,-177 -380,-214 -557,-83 l -820,609 c -680,503 -1593,503 -2272,-1 l -211,-157 c -439,-325 -959,-508 -1506,-529 -69,-3 -140,-3 -211,0 -545,20 -1065,204 -1503,529 l -212,158 c -679,503 -1592,503 -2272,-1 l -211,-157 c -439,-325 -959,-508 -1506,-529 -69,-3 -140,-3 -211,0 -545,20 -1065,204 -1503,529 l -212,158 c -679,503 -1592,503 -2272,-1 l -211,-157 c -439,-325 -959,-508 -1506,-529 -69,-3 -140,-3 -211,0 -545,20 -1065,204 -1503,529 l -212,158 c -678,503 -1592,503 -2272,-1 l -211,-157 c -438,-325 -959,-508 -1506,-529 -69,-3 -140,-3 -211,0 -545,20 -1065,204 -1503,529 l -211,158 c -679,503 -1592,503 -2272,-1 l -210,-156 c -438,-325 -959,-508 -1507,-530 -43,-1 -78,-2 -113,-2 v 0"
         style="fill:#100f0d;fill-opacity:1;fill-rule:evenodd;stroke:none"
         id="path40" />
      <path
         d="m 7531,6569 c -36,0 -72,1 -107,2 -545,20 -1065,204 -1504,529 l -211,158 c -679,503 -1593,503 -2272,-1 l -817,-607 c -177,-132 -425,-95 -557,81 -131,177 -95,425 81,557 l 817,609 c 964,714 2259,714 3222,0 l 211,-158 c 309,-229 676,-358 1061,-373 49,-2 100,-2 149,0 387,14 754,143 1062,373 l 211,157 c 964,714 2258,714 3222,2 l 211,-158 c 309,-229 676,-358 1061,-373 50,-2 99,-2 149,0 386,14 753,143 1063,373 l 211,157 c 964,714 2258,714 3220,0 l 212,-157 c 309,-229 676,-359 1061,-373 50,-2 99,-2 149,0 386,14 753,143 1063,373 l 211,157 c 964,714 2258,714 3221,0 l 212,-157 c 309,-229 676,-359 1061,-373 50,-2 99,-2 149,0 386,14 753,143 1063,373 l 212,157 c 963,714 2258,714 3220,0 l 211,-157 c 310,-229 676,-359 1061,-373 50,-2 99,-2 149,0 386,14 753,143 1063,373 l 211,157 c 964,713 2258,714 3221,0 l 820,-608 c 177,-131 214,-380 83,-557 -131,-177 -380,-214 -557,-82 l -820,608 c -680,503 -1593,503 -2272,0 l -211,-157 c -439,-325 -959,-508 -1506,-530 -69,-2 -140,-2 -211,0 -544,20 -1065,204 -1503,529 l -212,158 c -679,503 -1592,503 -2272,0 l -211,-157 c -439,-325 -959,-508 -1506,-530 -69,-2 -140,-3 -211,0 -544,20 -1065,204 -1503,529 l -212,158 c -678,503 -1592,503 -2272,0 l -211,-157 c -439,-325 -959,-508 -1506,-530 -69,-2 -140,-3 -211,0 -545,20 -1065,204 -1503,529 l -212,158 c -678,503 -1592,503 -2272,0 l -211,-157 c -439,-325 -959,-508 -1506,-530 -69,-2 -140,-3 -211,0 -544,20 -1065,204 -1503,529 l -211,158 c -679,503 -1592,503 -2272,-1 l -210,-157 c -438,-325 -959,-508 -1507,-530 -41,0 -76,-1 -111,-1 v 0"
         style="fill:#100f0d;fill-opacity:1;fill-rule:evenodd;stroke:none"
         id="path42" />
      <path
         d="m 7531,3420 c -36,0 -72,1 -107,2 -545,20 -1065,204 -1504,530 l -211,158 c -679,503 -1593,503 -2272,-1 l -816,-608 c -177,-132 -425,-95 -557,81 -131,177 -95,425 81,557 l 817,608 c 964,714 2259,714 3222,1 l 211,-158 c 309,-229 676,-357 1061,-373 49,-2 100,-2 149,0 387,15 754,143 1062,373 l 211,157 c 964,714 2258,714 3222,1 l 211,-158 c 309,-229 676,-357 1061,-373 50,-2 99,-2 149,0 386,15 754,143 1063,373 l 211,157 c 964,714 2258,714 3220,1 l 212,-158 c 308,-229 675,-358 1061,-373 50,-2 99,-2 149,0 386,15 753,143 1063,373 l 211,157 c 964,714 2258,714 3221,1 l 212,-158 c 309,-229 675,-358 1061,-373 50,-2 99,-2 149,0 386,15 753,143 1063,373 l 212,157 c 963,714 2258,714 3220,1 l 211,-158 c 310,-229 676,-358 1061,-373 50,-2 99,-2 149,0 386,15 753,143 1063,373 l 211,157 c 964,714 2258,714 3221,1 l 820,-608 c 177,-132 214,-381 83,-557 -131,-177 -380,-214 -557,-83 l -820,608 c -680,503 -1593,503 -2272,0 l -211,-157 c -439,-325 -959,-508 -1506,-530 -69,-2 -140,-2 -211,0 -545,20 -1065,204 -1503,530 l -212,157 c -679,503 -1592,503 -2272,0 l -211,-157 c -438,-325 -959,-508 -1506,-530 -69,-2 -140,-2 -211,0 -545,20 -1065,204 -1503,530 l -212,157 c -678,503 -1592,503 -2272,0 l -211,-157 c -438,-325 -959,-508 -1506,-530 -69,-2 -140,-2 -211,0 -545,20 -1065,204 -1503,530 l -212,157 c -678,503 -1592,503 -2272,0 l -211,-157 c -438,-325 -959,-508 -1506,-530 -69,-2 -140,-2 -211,0 -545,20 -1065,204 -1503,530 l -211,158 c -679,503 -1592,503 -2272,-1 l -210,-156 c -438,-326 -959,-509 -1507,-530 -42,-1 -77,-2 -112,-2 v 0"
         style="fill:#100f0d;fill-opacity:1;fill-rule:evenodd;stroke:none"
         id="path44" />
      <path
         d="m 29578,17704 c -156,0 -304,93 -368,245 -84,203 12,436 215,520 l 374,156 c 203,84 435,-12 520,-215 84,-203 -13,-436 -215,-520 l -374,-155 c -49,-21 -101,-31 -152,-31 v 0"
         style="fill:#100f0d;fill-opacity:1;fill-rule:evenodd;stroke:none"
         id="path46" />
      <path
         d="m 26853,16576 c -156,0 -304,92 -368,246 -84,203 13,436 216,519 l 374,154 c 203,84 436,-13 519,-216 84,-203 -13,-436 -216,-519 l -374,-154 c -49,-20 -100,-30 -151,-30"
         style="fill:#100f0d;fill-opacity:1;fill-rule:evenodd;stroke:none"
         id="path48" />
      <path
         d="m 24129,15448 c -156,0 -305,92 -368,246 -84,203 13,436 216,519 l 374,154 c 203,84 436,-13 519,-216 84,-203 -13,-436 -216,-519 l -373,-155 c -50,-19 -102,-29 -152,-29 v 0"
         style="fill:#100f0d;fill-opacity:1;fill-rule:evenodd;stroke:none"
         id="path50" />
      <path
         d="m 21405,14320 c -156,0 -305,92 -368,246 -84,203 13,436 216,520 l 374,154 c 203,84 435,-13 519,-216 84,-204 -13,-436 -216,-520 l -374,-154 c -49,-21 -101,-30 -151,-30 v 0"
         style="fill:#100f0d;fill-opacity:1;fill-rule:evenodd;stroke:none"
         id="path52" />
      <path
         d="m 18681,13191 c -155,0 -304,92 -368,245 -84,203 12,436 215,520 l 374,155 c 203,84 436,-12 520,-215 84,-203 -12,-436 -215,-520 l -374,-155 c -50,-20 -102,-30 -152,-30 v 0"
         style="fill:#100f0d;fill-opacity:1;fill-rule:evenodd;stroke:none"
         id="path54" />
    </g>
  </g>
</svg>
