<svg width="56" height="51" viewBox="0 0 56 51" fill="none" xmlns="http://www.w3.org/2000/svg">
<path d="M8.92603 36.6228L11.0334 38.6926L14.1945 37.6577L18.4093 39.7274L23.6778 38.6926L27.8927 39.7274L32.1075 38.6926H35.2686L50.0204 32.4834L51.0741 27.309L50.0204 22.1347L19.463 34.5531L18.4093 32.4834L8.92603 36.6228Z" fill="#FB0D0D"/>
<path d="M21.5705 2.47217L15.2483 4.54191C17.7772 6.1977 17.3557 7.64651 17.3557 8.68138L23.6779 5.57677V3.50704L21.5705 2.47217Z" fill="#FB0D0D"/>
<path d="M25.7853 7.64648L16.302 11.786C20.0953 13.9937 19.4631 15.5805 19.4631 16.9603L27.8927 13.8557V9.71622L25.7853 7.64648Z" fill="#FB0D0D"/>
<path d="M40.5372 3.50702L33.1613 7.64649C34.215 8.68136 35.2687 10.4061 35.2687 11.786L43.6983 8.68136L42.6446 5.57676L40.5372 3.50702Z" fill="#FB0D0D"/>
<path d="M30.4791 15.9254L19.4631 20.0649C21.5705 22.1347 21.5705 25.0476 21.5705 26.2741L33.1613 21.4447V17.7652L30.4791 15.9254Z" fill="#FB0D0D"/>
<path d="M45.8056 10.7511L35.2686 14.8906C37.376 16.9603 37.376 19.8733 37.376 21.0998L41.5908 19.03L47.913 15.9254V12.8208L45.8056 10.7511Z" fill="#FB0D0D"/>
<path fill-rule="evenodd" clip-rule="evenodd" d="M7.52558 37.21C6.28037 37.21 5.0607 36.6597 4.25929 35.6594C4.13796 35.5057 4.09326 35.3035 4.14435 35.1153C4.19543 34.9256 4.33113 34.7704 4.51632 34.6967L17.6773 29.3439C18.3941 29.0507 19.2146 29.242 19.7207 29.8221L20.2619 30.4383L52.2319 17.4295C52.556 17.2978 52.928 17.4499 53.0621 17.7681C53.3893 18.5411 53.3893 19.394 53.0621 20.1686C52.7348 20.9416 52.1218 21.5468 51.3331 21.8666L20.819 34.2796C20.0559 34.5916 19.1811 34.3878 18.6431 33.7716L18.1594 33.2182L9.10285 36.9027C8.59199 37.1097 8.05719 37.21 7.52558 37.21ZM5.91 35.4806C6.69544 35.9965 7.71236 36.1188 8.61594 35.7503L18.0971 31.8933C18.351 31.7914 18.6431 31.8588 18.8219 32.0642L19.6073 32.9579C19.7877 33.1649 20.0783 33.2323 20.3337 33.1288L50.8478 20.7142C51.322 20.5198 51.6923 20.1576 51.8887 19.6919C52.002 19.4254 52.0483 19.1416 52.0324 18.8625L20.3209 31.7616C20.0671 31.8651 19.775 31.7961 19.5962 31.5923L18.7564 30.6343C18.6096 30.4665 18.3701 30.4101 18.1626 30.4963L5.91 35.4806Z" fill="#100D0D"/>
<path fill-rule="evenodd" clip-rule="evenodd" d="M11.373 40.1294C11.2102 40.1294 11.0441 40.0683 10.9212 39.9444L7.88003 36.9341C7.63258 36.6911 7.63418 36.2959 7.88322 36.0514C8.13226 35.8099 8.53296 35.8099 8.78201 36.0545L11.8248 39.0648C12.0706 39.3094 12.0706 39.7045 11.82 39.9476C11.6955 40.0683 11.5342 40.1294 11.373 40.1294Z" fill="#100D0D"/>
<path fill-rule="evenodd" clip-rule="evenodd" d="M35.0496 39.6779C34.8006 39.6779 34.5627 39.5336 34.4621 39.2922C34.328 38.9739 34.4829 38.6086 34.8054 38.4769L48.8619 32.7603C49.6521 32.4389 50.1646 31.6863 50.1678 30.8459L50.1997 21.3931C50.2013 21.0482 50.4839 20.7722 50.8351 20.7722C50.8351 20.7722 50.8367 20.7722 50.8383 20.7722C51.1895 20.7738 51.4721 21.0544 51.4705 21.3978L51.4385 30.8506C51.4338 32.1975 50.6132 33.4 49.3472 33.9143L35.2907 39.6324C35.2109 39.6638 35.1278 39.6779 35.0496 39.6779Z" fill="#100D0D"/>
<path fill-rule="evenodd" clip-rule="evenodd" d="M21.293 27.5267C21.1062 27.5267 20.9226 27.4452 20.7997 27.2962C20.6225 27.083 20.6081 26.7804 20.7678 26.553C21.0472 26.1485 21.0998 24.797 20.474 23.3122C19.8482 21.829 18.8377 20.9086 18.3476 20.8161C18.073 20.7644 17.8639 20.5402 17.8351 20.2658C17.8064 19.9898 17.9645 19.7311 18.2247 19.6261L29.5322 15.0259C30.1372 14.7797 30.9418 14.9992 31.74 15.628C32.484 16.2128 33.1145 17.0579 33.5153 18.008C33.916 18.9566 34.0788 19.9914 33.9734 20.9227C33.8601 21.9215 33.4482 22.6349 32.8432 22.881L21.5373 27.4797C21.4574 27.511 21.3744 27.5267 21.293 27.5267ZM19.8897 20.3003C20.5682 20.8914 21.2068 21.7945 21.6458 22.834C22.0848 23.8751 22.2828 24.9585 22.2285 25.8459L32.3562 21.7271C32.6468 21.5907 33.0347 20.1278 32.3419 18.4847C31.649 16.8384 30.3208 16.0764 30.0191 16.1799L19.8897 20.3003Z" fill="#100D0D"/>
<path fill-rule="evenodd" clip-rule="evenodd" d="M18.6749 17.8842C18.4882 17.8842 18.3046 17.8026 18.1816 17.6537C18.0044 17.4404 17.9901 17.1378 18.1497 16.9089C18.3541 16.611 18.3844 15.5433 17.9007 14.394C17.417 13.2448 16.6283 12.511 16.2659 12.4436C15.9913 12.3918 15.7822 12.1676 15.7535 11.8932C15.7247 11.6173 15.8828 11.3586 16.1414 11.2535L25.3049 7.52507C25.8365 7.3087 26.5326 7.49371 27.2158 8.02837C27.8352 8.51441 28.3589 9.2137 28.6909 10.0023C29.1603 11.1156 29.2257 12.3934 28.8601 13.2589C28.6845 13.6775 28.4131 13.9691 28.0795 14.1055L18.9192 17.8355C18.8394 17.87 18.7564 17.8842 18.6749 17.8842ZM17.7586 11.9528C18.271 12.4404 18.7436 13.1334 19.074 13.9205C19.4061 14.7076 19.5689 15.526 19.5594 16.2253L27.5814 12.9625C27.7746 12.8026 28.0428 11.7333 27.516 10.4853C26.9907 9.23721 26.0313 8.66964 25.779 8.68845L17.7586 11.9528Z" fill="#100D0D"/>
<path fill-rule="evenodd" clip-rule="evenodd" d="M16.8454 9.41282C16.6586 9.41282 16.475 9.33129 16.3521 9.18234C16.1765 8.96754 16.1621 8.6665 16.3201 8.43759C16.4063 8.31059 16.4766 7.63326 16.1222 6.79757C15.7981 6.02773 15.2649 5.53855 15.0813 5.50092C14.8067 5.44761 14.5976 5.2234 14.5705 4.95059C14.5433 4.67778 14.6982 4.41751 14.9568 4.31246L21.5389 1.63449C22.3898 1.28799 23.6366 2.16287 24.2049 3.50813C24.7716 4.85338 24.5226 6.33818 23.6717 6.68625L17.088 9.36421C17.0098 9.39871 16.9268 9.41282 16.8454 9.41282ZM16.4941 5.04153C16.8342 5.42253 17.1168 5.88976 17.2987 6.3225C17.4807 6.75681 17.6164 7.28362 17.6516 7.78848L23.1337 5.55893C23.2375 5.3896 23.3508 4.73892 23.0347 3.98947C22.717 3.24002 22.171 2.85745 21.9763 2.81198L16.4941 5.04153Z" fill="#100D0D"/>
<path fill-rule="evenodd" clip-rule="evenodd" d="M19.0006 3.9691C18.7516 3.9691 18.5137 3.82485 18.4131 3.5834L17.5144 1.45263C17.3803 1.13435 17.5351 0.769028 17.8592 0.638893C18.1833 0.507189 18.5552 0.657707 18.6893 0.97599L19.5881 3.10676C19.7222 3.42504 19.5674 3.79036 19.2433 3.92206C19.1635 3.95342 19.0805 3.9691 19.0006 3.9691Z" fill="#100D0D"/>
<path fill-rule="evenodd" clip-rule="evenodd" d="M21.6729 10.3097C21.4239 10.3097 21.1876 10.1638 21.0854 9.92396L20.0557 7.48432C19.9216 7.16603 20.0765 6.80071 20.4006 6.66901C20.7246 6.53731 21.095 6.68939 21.2291 7.00768L22.2588 9.44732C22.3929 9.7656 22.2381 10.1309 21.914 10.2626C21.8374 10.2924 21.7559 10.3097 21.6729 10.3097Z" fill="#100D0D"/>
<path fill-rule="evenodd" clip-rule="evenodd" d="M29.1811 28.1053C28.9321 28.1053 28.6958 27.961 28.5937 27.7211L27.2287 24.485C27.0946 24.1667 27.2495 23.8014 27.5735 23.6697C27.8976 23.538 28.268 23.6901 28.4021 24.0084L29.767 27.2445C29.9011 27.5628 29.7463 27.9281 29.4222 28.0582C29.344 28.0912 29.261 28.1053 29.1811 28.1053Z" fill="#100D0D"/>
<path fill-rule="evenodd" clip-rule="evenodd" d="M24.9906 18.1742C24.7399 18.1742 24.5037 18.0284 24.4015 17.7885L23.3734 15.3504C23.2393 15.0322 23.3941 14.6668 23.7166 14.5351C24.0407 14.4034 24.4127 14.5555 24.5468 14.8738L25.5749 17.3119C25.709 17.6302 25.5541 17.9955 25.23 18.1272C25.155 18.1585 25.072 18.1742 24.9906 18.1742Z" fill="#100D0D"/>
<path fill-rule="evenodd" clip-rule="evenodd" d="M37.0052 21.5718C36.8185 21.5718 36.6349 21.4903 36.5135 21.3414C36.3363 21.1281 36.3204 20.8255 36.48 20.5982C36.7163 20.2579 36.7562 19.0475 36.2102 17.7572C35.6674 16.4668 34.767 15.6389 34.3552 15.5621C34.079 15.5104 33.8714 15.2861 33.8427 15.0118C33.814 14.7374 33.972 14.4787 34.2306 14.3736L44.36 10.2532C45.4823 9.79538 47.224 11.0842 48.0142 12.9547C48.8028 14.8268 48.4995 16.9481 47.3772 17.4044L37.2479 21.5248C37.1697 21.5546 37.0867 21.5718 37.0052 21.5718ZM35.8718 15.0541C36.4577 15.5903 37.0052 16.3774 37.3836 17.2774C37.7651 18.1773 37.9439 19.1149 37.9152 19.902L46.8903 16.252C47.109 16.1156 47.4523 14.8863 46.8392 13.4329C46.2246 11.9795 45.0975 11.3523 44.8357 11.4087L35.8718 15.0541Z" fill="#100D0D"/>
<path fill-rule="evenodd" clip-rule="evenodd" d="M34.6615 12.9374C34.4748 12.9374 34.2912 12.8559 34.1682 12.707C33.9926 12.4937 33.9767 12.1911 34.1363 11.9638C34.2928 11.7396 34.347 10.8161 33.908 9.775C33.469 8.73079 32.765 8.11617 32.4936 8.06443C32.2174 8.01269 32.0099 7.78848 31.9811 7.5141C31.9524 7.23815 32.1104 6.98102 32.3707 6.8744L40.5779 3.53478C41.076 3.33252 41.7241 3.50029 42.3563 3.99574C42.9183 4.43789 43.3956 5.07446 43.6973 5.79098C44.3726 7.3918 44.0996 9.14941 43.1146 9.55236L34.9074 12.8904C34.826 12.9218 34.743 12.9374 34.6615 12.9374ZM33.9543 7.57838C34.4301 8.06129 34.8292 8.70413 35.0782 9.29366C35.3273 9.88319 35.5076 10.6138 35.5188 11.2865L42.599 8.40623C42.7746 8.22592 42.9518 7.29616 42.5192 6.26606C42.0849 5.23595 41.2883 4.7013 41.0361 4.69659L33.9543 7.57838Z" fill="#100D0D"/>
<path fill-rule="evenodd" clip-rule="evenodd" d="M44.0549 22.0563C43.8059 22.0563 43.5696 21.9121 43.4674 21.6706L42.2605 18.8108C42.2286 18.7355 42.2111 18.654 42.2111 18.5709C42.2111 18.226 42.4952 17.9469 42.8464 17.9469C43.1226 17.9469 43.3541 18.1193 43.4435 18.3577L44.6392 21.194C44.7733 21.5123 44.6185 21.8776 44.2944 22.0077C44.2178 22.0391 44.1364 22.0563 44.0549 22.0563Z" fill="#100D0D"/>
<path fill-rule="evenodd" clip-rule="evenodd" d="M40.3193 13.1946C40.0702 13.1946 39.834 13.0488 39.7318 12.8104L38.8091 10.6248C38.675 10.3065 38.8298 9.9412 39.1523 9.8095C39.4764 9.6778 39.8483 9.82988 39.9824 10.1482L40.9052 12.3338C41.0393 12.6521 40.8844 13.0158 40.5603 13.1475C40.4821 13.1789 40.4007 13.1946 40.3193 13.1946Z" fill="#100D0D"/>
<path fill-rule="evenodd" clip-rule="evenodd" d="M9.35821 40.7143C9.30074 40.7143 9.24327 40.7127 9.18739 40.7096C8.31734 40.6782 7.4872 40.3897 6.78636 39.8802L6.44952 39.6324C5.36554 38.8438 3.90641 38.8438 2.82244 39.634L1.51815 40.5873C1.23559 40.7942 0.839672 40.7362 0.628944 40.4603C0.419812 40.1828 0.477283 39.7939 0.758255 39.587L2.06254 38.6337C3.60149 37.5126 5.66886 37.5126 7.20622 38.6321L7.54467 38.8798C8.03637 39.2389 8.62226 39.4411 9.23848 39.4647C9.3167 39.4678 9.39812 39.4678 9.47634 39.4647C10.0942 39.4427 10.6801 39.2405 11.1717 38.8798L11.5086 38.6337C13.0476 37.5142 15.1133 37.5142 16.6523 38.6321L16.9907 38.8798C17.4824 39.2389 18.0683 39.4411 18.6829 39.4647C18.7628 39.4678 18.841 39.4678 18.9208 39.4647C19.537 39.4427 20.1245 39.2405 20.6178 38.8798L20.9547 38.6321C22.4936 37.5142 24.5594 37.5142 26.0952 38.6321L26.4336 38.8798C26.9253 39.2389 27.5112 39.4411 28.1274 39.4647C28.2072 39.4678 28.2854 39.4678 28.3653 39.4647C28.9815 39.4427 29.5674 39.2405 30.0623 38.8798L30.3991 38.6321C31.9381 37.5142 34.0039 37.5142 35.5412 38.6321L35.8797 38.8798C36.3729 39.2389 36.9572 39.4411 37.5735 39.4647C37.6533 39.4678 37.7315 39.4678 37.8113 39.4647C38.4276 39.4427 39.0134 39.2405 39.5083 38.8798L39.8468 38.6321C41.3841 37.5142 43.4515 37.5142 44.9873 38.6321L45.3257 38.8798C45.819 39.2389 46.4033 39.4411 47.0195 39.4647C47.0993 39.4678 47.1776 39.4678 47.2574 39.4647C47.8736 39.4427 48.4595 39.2405 48.9544 38.8798L49.2912 38.6321C50.8302 37.5142 52.896 37.5142 54.4333 38.6321L55.7424 39.5854C56.025 39.7924 56.084 40.1812 55.8749 40.4587C55.6658 40.7362 55.2683 40.7942 54.9857 40.5888L53.6766 39.634C52.5911 38.8453 51.1335 38.8453 50.0495 39.6356L49.7127 39.8817C49.0119 40.3913 48.1817 40.6782 47.3085 40.7111C47.1983 40.7158 47.085 40.7158 46.9716 40.7111C46.1016 40.6798 45.2714 40.3913 44.5722 39.8817L44.2338 39.634C43.1498 38.8453 41.6922 38.8453 40.6067 39.6356L40.2698 39.8817C39.569 40.3913 38.7389 40.6782 37.8656 40.7111C37.7555 40.7158 37.6421 40.7158 37.5288 40.7111C36.6587 40.6798 35.8286 40.3913 35.1293 39.8817L34.7909 39.634C33.7069 38.8453 32.2494 38.8453 31.1638 39.6356L30.827 39.8817C30.1261 40.3913 29.296 40.6782 28.4227 40.7111C28.3126 40.7158 28.1992 40.7158 28.0859 40.7111C27.2158 40.6798 26.3857 40.3913 25.6865 39.8817L25.348 39.634C24.2656 38.8453 22.8065 38.8453 21.7209 39.6356L21.3841 39.8817C20.6849 40.3913 19.8531 40.6782 18.9799 40.7111C18.8697 40.7158 18.7564 40.7158 18.643 40.7111C17.773 40.6798 16.9428 40.3913 16.2436 39.8817L15.9068 39.634C14.8228 38.8453 13.3652 38.8453 12.2797 39.6356L11.9444 39.8802C11.2452 40.3897 10.4134 40.6766 9.5386 40.7111C9.46996 40.7127 9.41408 40.7143 9.35821 40.7143Z" fill="#100D0D"/>
<path fill-rule="evenodd" clip-rule="evenodd" d="M9.35821 45.6531C9.30074 45.6531 9.24327 45.6516 9.18739 45.65C8.31734 45.6186 7.4872 45.3302 6.78636 44.8206L6.44952 44.5729C5.36554 43.7842 3.90641 43.7842 2.82244 44.5744L1.51815 45.5261C1.23559 45.7331 0.839672 45.6751 0.628944 45.3991C0.419812 45.1216 0.477283 44.7328 0.758255 44.5258L2.06254 43.571C3.60149 42.4515 5.66886 42.4515 7.20622 43.571L7.54307 43.8187C8.03637 44.1778 8.62226 44.38 9.23688 44.4035C9.3151 44.4067 9.39652 44.4067 9.47475 44.4035C10.0926 44.3816 10.6785 44.1793 11.1702 43.8187L11.507 43.5725C13.046 42.4531 15.1117 42.4531 16.6507 43.5694L16.9875 43.8171C17.4808 44.1762 18.0667 44.3784 18.6813 44.402C18.7612 44.4051 18.8394 44.4051 18.9192 44.402C19.5354 44.38 20.1213 44.1778 20.6162 43.8171L20.9531 43.571C22.492 42.4515 24.5578 42.4515 26.0936 43.571L26.432 43.8171C26.9253 44.1762 27.5112 44.38 28.1258 44.402C28.2056 44.4051 28.2839 44.4051 28.3637 44.402C28.9799 44.38 29.5658 44.1778 30.0607 43.8171L30.3975 43.571C31.9365 42.4515 34.0023 42.4515 35.5396 43.571L35.8781 43.8171C36.3714 44.1762 36.9572 44.38 37.5719 44.402C37.6517 44.4051 37.7299 44.4051 37.8097 44.402C38.426 44.38 39.0118 44.1778 39.5067 43.8171L39.8452 43.571C41.3825 42.4515 43.4499 42.4515 44.9857 43.571L45.3225 43.8171C45.8174 44.1762 46.4017 44.38 47.0163 44.402C47.0962 44.4051 47.1744 44.4051 47.2542 44.402C47.8704 44.38 48.4563 44.1778 48.9512 43.8171L49.288 43.571C50.827 42.4531 52.8928 42.4515 54.4301 43.571L55.7392 44.5243C56.0218 44.7296 56.0808 45.1201 55.8717 45.3976C55.6626 45.6751 55.2651 45.7331 54.9825 45.5261L53.6734 44.5729C52.5879 43.7842 51.1303 43.7842 50.0463 44.5729L49.7095 44.819C49.0087 45.3286 48.1785 45.6155 47.3053 45.65C47.1951 45.6531 47.0818 45.6531 46.9684 45.65C46.1 45.6186 45.2682 45.3302 44.569 44.8206L44.2306 44.5729C43.1466 43.7842 41.6891 43.7842 40.6035 44.5729L40.2666 44.819C39.5658 45.3286 38.7357 45.6155 37.8624 45.65C37.7523 45.6531 37.6389 45.6547 37.5256 45.65C36.6571 45.6186 35.8254 45.3302 35.1261 44.8206L34.7877 44.5729C33.7053 43.7842 32.2462 43.7842 31.1606 44.5729L30.8238 44.819C30.1229 45.3286 29.2928 45.6155 28.4195 45.65C28.3094 45.6531 28.196 45.6547 28.0827 45.65C27.2126 45.6186 26.3825 45.3302 25.6833 44.8206L25.3448 44.5729C24.2625 43.7842 22.8033 43.7842 21.7177 44.5729L21.3809 44.819C20.6801 45.3286 19.8499 45.6155 18.9767 45.65C18.8665 45.6531 18.7532 45.6547 18.6398 45.65C17.7714 45.6186 16.9396 45.3302 16.2404 44.8206L15.9036 44.5729C14.8196 43.7842 13.362 43.7842 12.2765 44.5744L11.9412 44.8206C11.242 45.3302 10.4103 45.6171 9.53541 45.6516C9.46996 45.6516 9.41408 45.6531 9.35821 45.6531Z" fill="#100D0D"/>
<path fill-rule="evenodd" clip-rule="evenodd" d="M9.35844 50.5904C9.30097 50.5904 9.2435 50.5889 9.18763 50.5873C8.31757 50.5559 7.48743 50.2675 6.7866 49.7563L6.44975 49.5086C5.36578 48.7199 3.90664 48.7199 2.82267 49.5102L1.51998 50.4634C1.23742 50.6704 0.841503 50.6124 0.630775 50.3364C0.421643 50.0589 0.479114 49.6701 0.760086 49.4631L2.06437 48.5098C3.60332 47.3904 5.6707 47.3904 7.20806 48.5083L7.5449 48.756C8.0382 49.115 8.62409 49.3157 9.23871 49.3408C9.31694 49.344 9.39835 49.344 9.47658 49.3408C10.0944 49.3173 10.6803 49.1166 11.172 48.756L11.5088 48.5098C13.0478 47.3904 15.1136 47.3904 16.6525 48.5083L16.9894 48.756C17.4827 49.115 18.0686 49.3157 18.6832 49.3408C18.763 49.344 18.8412 49.344 18.921 49.3408C19.5373 49.3173 20.1247 49.1166 20.618 48.756L20.9549 48.5098C22.4938 47.3904 24.5596 47.3904 26.0954 48.5083L26.4338 48.756C26.9255 49.115 27.5114 49.3173 28.1276 49.3408C28.2075 49.344 28.2857 49.344 28.3655 49.3408C28.9817 49.3173 29.5676 49.1166 30.0625 48.756L30.3994 48.5098C31.9383 47.3904 34.0041 47.3904 35.5414 48.5083L35.8799 48.756C36.3732 49.115 36.9575 49.3173 37.5737 49.3408C37.6535 49.344 37.7317 49.344 37.8116 49.3408C38.4278 49.3173 39.0137 49.1166 39.5086 48.756L39.847 48.5098C41.3844 47.3904 43.4517 47.3904 44.9875 48.5083L45.3244 48.756C45.8192 49.115 46.4035 49.3173 47.0182 49.3408C47.098 49.344 47.1762 49.344 47.256 49.3408C47.8722 49.3173 48.4581 49.1166 48.953 48.756L49.2899 48.5098C50.8288 47.3904 52.8946 47.3904 54.432 48.5083L55.741 49.4616C56.0236 49.6685 56.0827 50.0589 55.8735 50.3349C55.6644 50.6124 55.2669 50.6704 54.9843 50.465L53.6753 49.5117C52.5897 48.7231 51.1322 48.7231 50.0482 49.5117L49.7113 49.7579C49.0105 50.2675 48.1804 50.5544 47.3071 50.5889C47.197 50.592 47.0836 50.592 46.9703 50.5889C46.1002 50.5575 45.2701 50.269 44.5708 49.7579L44.2324 49.5117C43.1484 48.7231 41.6909 48.7231 40.6053 49.5117L40.2685 49.7579C39.5692 50.2675 38.7375 50.5544 37.8642 50.5889C37.7541 50.592 37.6407 50.592 37.5274 50.5889C36.6573 50.5575 35.8272 50.269 35.128 49.7579L34.7895 49.5117C33.7072 48.7231 32.248 48.7231 31.1624 49.5117L30.8256 49.7579C30.1264 50.2675 29.2946 50.5544 28.4214 50.5889C28.3112 50.592 28.1979 50.592 28.0845 50.5889C27.2145 50.5575 26.3843 50.269 25.6851 49.7579L25.3467 49.5117C24.2643 48.7231 22.8052 48.7231 21.7196 49.5117L21.3827 49.7579C20.6835 50.2675 19.8518 50.5544 18.9785 50.5889C18.8684 50.592 18.755 50.592 18.6417 50.5889C17.7716 50.5575 16.9415 50.269 16.2422 49.7579L15.9054 49.5102C14.8214 48.7215 13.3639 48.7215 12.2783 49.5117L11.9431 49.7563C11.2438 50.2675 10.4121 50.5544 9.53724 50.5873C9.47019 50.5889 9.41432 50.5904 9.35844 50.5904Z" fill="#100D0D"/>
<path fill-rule="evenodd" clip-rule="evenodd" d="M44.5547 28.1946C44.3057 28.1946 44.0694 28.0488 43.9672 27.8105C43.8331 27.4922 43.9864 27.1269 44.3105 26.9952L44.9075 26.7506C45.2316 26.6189 45.602 26.7694 45.7377 27.0877C45.8718 27.406 45.7169 27.7713 45.3944 27.903L44.7974 28.146C44.7192 28.179 44.6361 28.1946 44.5547 28.1946Z" fill="#100D0D"/>
<path fill-rule="evenodd" clip-rule="evenodd" d="M40.2044 29.9632C39.9553 29.9632 39.7191 29.819 39.6169 29.5775C39.4828 29.2592 39.6376 28.8939 39.9617 28.7638L40.5588 28.5223C40.8829 28.3906 41.2548 28.5427 41.3873 28.861C41.5214 29.1793 41.3666 29.5446 41.0425 29.6747L40.4454 29.9162C40.3672 29.9475 40.2858 29.9632 40.2044 29.9632Z" fill="#100D0D"/>
<path fill-rule="evenodd" clip-rule="evenodd" d="M35.8557 31.7318C35.6067 31.7318 35.3688 31.5876 35.2683 31.3461C35.1342 31.0278 35.289 30.6625 35.6131 30.5324L36.2102 30.2909C36.5342 30.1592 36.9062 30.3113 37.0387 30.6296C37.1728 30.9479 37.0179 31.3132 36.6939 31.4433L36.0984 31.6863C36.0186 31.7161 35.9356 31.7318 35.8557 31.7318Z" fill="#100D0D"/>
<path fill-rule="evenodd" clip-rule="evenodd" d="M31.507 33.5004C31.2579 33.5004 31.0201 33.3561 30.9195 33.1147C30.7854 32.7964 30.9403 32.4311 31.2643 32.2994L31.8614 32.0579C32.1855 31.9262 32.5558 32.0783 32.6899 32.3966C32.824 32.7164 32.6692 33.0802 32.3451 33.2119L31.7481 33.4534C31.6698 33.4863 31.5868 33.5004 31.507 33.5004Z" fill="#100D0D"/>
<path fill-rule="evenodd" clip-rule="evenodd" d="M27.1584 35.2705C26.9109 35.2705 26.673 35.1263 26.5709 34.8864C26.4368 34.5681 26.59 34.2028 26.9141 34.0711L27.5112 33.8281C27.8352 33.6964 28.2072 33.8469 28.3413 34.1652C28.4754 34.4835 28.3222 34.8488 27.9981 34.9805L27.401 35.2235C27.3212 35.2549 27.2382 35.2705 27.1584 35.2705Z" fill="#100D0D"/>
</svg>
