<svg width="32" height="32" viewBox="0 0 32 32" fill="none" xmlns="http://www.w3.org/2000/svg">
<rect x="0.6" y="1.38802" width="30.012" height="30.012" rx="6.4" fill="white" stroke="black" stroke-width="1.2"/>
<path fill-rule="evenodd" clip-rule="evenodd" d="M5.45955 22.3202C4.86867 22.3202 4.28991 22.0543 3.90963 21.571C3.85206 21.4968 3.83085 21.399 3.85509 21.3081C3.87933 21.2165 3.94372 21.1415 4.0316 21.1059L10.2767 18.5197C10.6168 18.378 11.0062 18.4704 11.2463 18.7507L11.5031 19.0484L26.6735 12.7632C26.8273 12.6995 27.0038 12.773 27.0674 12.9268C27.2227 13.3003 27.2227 13.7124 27.0674 14.0866C26.9121 14.46 26.6212 14.7524 26.247 14.907L11.7675 20.9044C11.4054 21.0551 10.9903 20.9566 10.735 20.6589L10.5055 20.3915L6.20799 22.1717C5.96558 22.2717 5.7118 22.3202 5.45955 22.3202ZM4.69292 21.4846C5.06563 21.7339 5.54818 21.793 5.97694 21.6149L10.4759 19.7514C10.5964 19.7022 10.735 19.7347 10.8198 19.834L11.1926 20.2658C11.2782 20.3658 11.416 20.3983 11.5372 20.3483L26.0167 14.3502C26.2417 14.2563 26.4175 14.0813 26.5106 13.8563C26.5644 13.7275 26.5864 13.5904 26.5788 13.4556L11.5312 19.6878C11.4107 19.7378 11.2721 19.7044 11.1873 19.606L10.7888 19.1431C10.7191 19.0621 10.6055 19.0348 10.507 19.0764L4.69292 21.4846Z" fill="#100F0D"/>
<path fill-rule="evenodd" clip-rule="evenodd" d="M7.28524 23.7307C7.20797 23.7307 7.12918 23.7012 7.07085 23.6413L5.62775 22.1869C5.51034 22.0695 5.51109 21.8786 5.62927 21.7604C5.74744 21.6437 5.93758 21.6437 6.05576 21.7619L7.49962 23.2164C7.61628 23.3345 7.61628 23.5254 7.49734 23.6429C7.43826 23.7012 7.36175 23.7307 7.28524 23.7307Z" fill="#100F0D"/>
<path fill-rule="evenodd" clip-rule="evenodd" d="M18.5202 23.5126C18.402 23.5126 18.2892 23.4429 18.2414 23.3262C18.1778 23.1724 18.2513 22.9959 18.4043 22.9323L25.0744 20.1703C25.4494 20.015 25.6925 19.6514 25.694 19.2454L25.7092 14.6782C25.71 14.5116 25.844 14.3782 26.0107 14.3782C26.0107 14.3782 26.0114 14.3782 26.0122 14.3782C26.1789 14.379 26.3129 14.5146 26.3122 14.6805L26.297 19.2477C26.2948 19.8984 25.9054 20.4794 25.3047 20.7279L18.6346 23.4906C18.5967 23.5057 18.5573 23.5126 18.5202 23.5126Z" fill="#100F0D"/>
<path fill-rule="evenodd" clip-rule="evenodd" d="M11.9925 17.6417C11.9039 17.6417 11.8168 17.6023 11.7584 17.5303C11.6743 17.4273 11.6675 17.2811 11.7433 17.1713C11.8758 16.9758 11.9008 16.3228 11.6039 15.6054C11.3069 14.8888 10.8274 14.4441 10.5949 14.3994C10.4646 14.3744 10.3653 14.2661 10.3517 14.1335C10.3381 14.0002 10.413 13.8752 10.5365 13.8245L15.9021 11.6019C16.1892 11.4829 16.571 11.589 16.9498 11.8928C17.3028 12.1753 17.602 12.5836 17.7922 13.0427C17.9823 13.501 18.0596 14.001 18.0096 14.451C17.9558 14.9335 17.7604 15.2782 17.4733 15.3971L12.1084 17.619C12.0705 17.6341 12.0311 17.6417 11.9925 17.6417ZM11.3266 14.1502C11.6486 14.4358 11.9516 14.8721 12.1599 15.3744C12.3682 15.8774 12.4622 16.4008 12.4364 16.8296L17.2422 14.8396C17.3801 14.7737 17.5642 14.0669 17.2354 13.273C16.9066 12.4776 16.2764 12.1094 16.1332 12.1594L11.3266 14.1502Z" fill="#100F0D"/>
<path fill-rule="evenodd" clip-rule="evenodd" d="M10.7502 12.9829C10.6616 12.9829 10.5744 12.9435 10.5161 12.8715C10.432 12.7685 10.4252 12.6223 10.501 12.5117C10.5979 12.3677 10.6123 11.8519 10.3828 11.2966C10.1532 10.7413 9.77903 10.3868 9.60707 10.3542C9.47677 10.3292 9.37753 10.2209 9.3639 10.0883C9.35026 9.95499 9.42526 9.83 9.54798 9.77925L13.8962 7.97783C14.1485 7.87329 14.4788 7.96268 14.803 8.221C15.0969 8.45584 15.3454 8.7937 15.5029 9.17473C15.7257 9.71258 15.7567 10.33 15.5832 10.7481C15.4999 10.9504 15.3711 11.0913 15.2128 11.1572L10.8661 12.9594C10.8282 12.976 10.7888 12.9829 10.7502 12.9829ZM10.3154 10.1171C10.5585 10.3527 10.7828 10.6875 10.9396 11.0678C11.0971 11.4481 11.1744 11.8435 11.1699 12.1814L14.9765 10.605C15.0681 10.5277 15.1954 10.0111 14.9454 9.40805C14.6962 8.80506 14.2409 8.53083 14.1212 8.53992L10.3154 10.1171Z" fill="#100F0D"/>
<path fill-rule="evenodd" clip-rule="evenodd" d="M9.88197 8.8899C9.79333 8.8899 9.70622 8.85051 9.64789 8.77854C9.56456 8.67476 9.55774 8.52931 9.63274 8.41871C9.67364 8.35735 9.70698 8.0301 9.5388 7.62633C9.38502 7.25439 9.13201 7.01804 9.04489 6.99986C8.9146 6.9741 8.81536 6.86577 8.80248 6.73396C8.7896 6.60215 8.86308 6.4764 8.9858 6.42564L12.1091 5.13178C12.5129 4.96436 13.1045 5.38707 13.3742 6.03703C13.6431 6.68699 13.5249 7.40438 13.1212 7.57255L9.99711 8.86642C9.95999 8.88308 9.9206 8.8899 9.88197 8.8899ZM9.71531 6.7779C9.87666 6.96198 10.0107 7.18772 10.0971 7.3968C10.1835 7.60664 10.2479 7.86117 10.2645 8.1051L12.8659 7.02788C12.9151 6.94607 12.9689 6.63169 12.8189 6.26959C12.6682 5.90749 12.4091 5.72265 12.3167 5.70069L9.71531 6.7779Z" fill="#100F0D"/>
<path fill-rule="evenodd" clip-rule="evenodd" d="M10.9047 6.25975C10.7865 6.25975 10.6736 6.19006 10.6259 6.0734L10.1994 5.04391C10.1358 4.89013 10.2093 4.71362 10.3631 4.65075C10.5168 4.58712 10.6933 4.65984 10.757 4.81362L11.1835 5.84311C11.2471 5.99688 11.1736 6.17339 11.0198 6.23702C10.982 6.25217 10.9426 6.25975 10.9047 6.25975Z" fill="#100F0D"/>
<path fill-rule="evenodd" clip-rule="evenodd" d="M12.1727 9.32321C12.0546 9.32321 11.9425 9.25276 11.894 9.13686L11.4054 7.95814C11.3417 7.80436 11.4152 7.62785 11.569 7.56422C11.7228 7.50059 11.8985 7.57407 11.9621 7.72785L12.4508 8.90657C12.5144 9.06035 12.4409 9.23685 12.2871 9.30048C12.2508 9.31488 12.2121 9.32321 12.1727 9.32321Z" fill="#100F0D"/>
<path fill-rule="evenodd" clip-rule="evenodd" d="M15.7355 17.9212C15.6173 17.9212 15.5052 17.8515 15.4567 17.7356L14.809 16.1721C14.7454 16.0183 14.8189 15.8418 14.9727 15.7782C15.1265 15.7145 15.3022 15.788 15.3658 15.9418L16.0135 17.5053C16.0772 17.6591 16.0037 17.8356 15.8499 17.8985C15.8128 17.9144 15.7734 17.9212 15.7355 17.9212Z" fill="#100F0D"/>
<path fill-rule="evenodd" clip-rule="evenodd" d="M13.747 13.123C13.628 13.123 13.5159 13.0525 13.4674 12.9366L12.9796 11.7587C12.916 11.6049 12.9894 11.4284 13.1425 11.3648C13.2962 11.3011 13.4727 11.3746 13.5364 11.5284L14.0242 12.7064C14.0879 12.8601 14.0144 13.0366 13.8606 13.1003C13.825 13.1154 13.7856 13.123 13.747 13.123Z" fill="#100F0D"/>
<path fill-rule="evenodd" clip-rule="evenodd" d="M19.4482 14.7646C19.3596 14.7646 19.2724 14.7252 19.2149 14.6532C19.1308 14.5502 19.1232 14.404 19.199 14.2941C19.3111 14.1298 19.33 13.5449 19.0709 12.9215C18.8134 12.298 18.3861 11.8981 18.1907 11.8609C18.0596 11.8359 17.9612 11.7276 17.9475 11.595C17.9339 11.4625 18.0089 11.3375 18.1316 11.2867L22.9381 9.29594C23.4707 9.07474 24.2972 9.69743 24.6721 10.6012C25.0464 11.5057 24.9024 12.5306 24.3699 12.751L19.5633 14.7418C19.5262 14.7562 19.4868 14.7646 19.4482 14.7646ZM18.9103 11.6155C19.1884 11.8746 19.4482 12.2549 19.6277 12.6897C19.8088 13.1245 19.8936 13.5775 19.88 13.9578L24.1388 12.1943C24.2426 12.1284 24.4055 11.5344 24.1146 10.8322C23.8229 10.13 23.2881 9.82697 23.1639 9.85424L18.9103 11.6155Z" fill="#100F0D"/>
<path fill-rule="evenodd" clip-rule="evenodd" d="M18.3361 10.5928C18.2475 10.5928 18.1604 10.5534 18.102 10.4815C18.0187 10.3785 18.0111 10.2322 18.0869 10.1224C18.1611 10.0141 18.1869 9.56789 17.9786 9.06489C17.7702 8.56037 17.4362 8.26342 17.3074 8.23842C17.1763 8.21342 17.0778 8.1051 17.0642 7.97253C17.0506 7.8392 17.1256 7.71497 17.2491 7.66345L21.1435 6.04991C21.3799 5.95219 21.6874 6.03324 21.9874 6.27262C22.2541 6.48625 22.4806 6.79381 22.6237 7.14C22.9442 7.91344 22.8146 8.76263 22.3473 8.95732L18.4528 10.5701C18.4141 10.5853 18.3747 10.5928 18.3361 10.5928ZM18.0005 8.00359C18.2263 8.23691 18.4157 8.5475 18.5338 8.83233C18.652 9.11716 18.7376 9.47017 18.7429 9.79515L22.1026 8.40356C22.1859 8.31645 22.27 7.86723 22.0647 7.36953C21.8586 6.87183 21.4806 6.61351 21.3609 6.61124L18.0005 8.00359Z" fill="#100F0D"/>
<path fill-rule="evenodd" clip-rule="evenodd" d="M22.7934 14.9986C22.6752 14.9986 22.5631 14.929 22.5146 14.8123L21.9419 13.4306C21.9268 13.3942 21.9185 13.3548 21.9185 13.3147C21.9185 13.148 22.0533 13.0132 22.22 13.0132C22.351 13.0132 22.4609 13.0965 22.5033 13.2116L23.0707 14.582C23.1343 14.7358 23.0608 14.9123 22.907 14.9752C22.8707 14.9903 22.832 14.9986 22.7934 14.9986Z" fill="#100F0D"/>
<path fill-rule="evenodd" clip-rule="evenodd" d="M21.0208 10.7171C20.9026 10.7171 20.7905 10.6466 20.742 10.5315L20.3042 9.47547C20.2405 9.3217 20.314 9.14519 20.467 9.08156C20.6208 9.01792 20.7973 9.09141 20.861 9.24518L21.2988 10.3012C21.3624 10.455 21.289 10.6307 21.1352 10.6943C21.0981 10.7095 21.0594 10.7171 21.0208 10.7171Z" fill="#100F0D"/>
<path fill-rule="evenodd" clip-rule="evenodd" d="M6.32919 24.0133C6.30192 24.0133 6.27465 24.0125 6.24813 24.011C5.83528 23.9959 5.44136 23.8565 5.1088 23.6103L4.94896 23.4906C4.4346 23.1096 3.74221 23.1096 3.22785 23.4914L2.60895 23.9519C2.47486 24.0519 2.28699 24.0239 2.187 23.8906C2.08776 23.7565 2.11503 23.5686 2.24836 23.4686L2.86726 23.008C3.59753 22.4664 4.57853 22.4664 5.30804 23.0073L5.46863 23.127C5.70195 23.3005 5.97997 23.3982 6.27237 23.4095C6.30949 23.4111 6.34813 23.4111 6.38525 23.4095C6.67841 23.3989 6.95643 23.3012 7.18975 23.127L7.34959 23.008C8.07985 22.4672 9.0601 22.4672 9.79036 23.0073L9.95096 23.127C10.1843 23.3005 10.4623 23.3982 10.7539 23.4095C10.7918 23.4111 10.8289 23.4111 10.8668 23.4095C11.1592 23.3989 11.438 23.3012 11.6721 23.127L11.8319 23.0073C12.5622 22.4672 13.5424 22.4672 14.2712 23.0073L14.4318 23.127C14.6651 23.3005 14.9431 23.3982 15.2355 23.4095C15.2734 23.4111 15.3105 23.4111 15.3484 23.4095C15.6408 23.3989 15.9188 23.3012 16.1536 23.127L16.3135 23.0073C17.0437 22.4672 18.024 22.4672 18.7535 23.0073L18.9141 23.127C19.1482 23.3005 19.4254 23.3982 19.7178 23.4095C19.7557 23.4111 19.7928 23.4111 19.8307 23.4095C20.1231 23.3989 20.4011 23.3012 20.636 23.127L20.7966 23.0073C21.5261 22.4672 22.5071 22.4672 23.2358 23.0073L23.3964 23.127C23.6305 23.3005 23.9077 23.3982 24.2002 23.4095C24.238 23.4111 24.2751 23.4111 24.313 23.4095C24.6054 23.3989 24.8834 23.3012 25.1183 23.127L25.2781 23.0073C26.0084 22.4672 26.9886 22.4672 27.7181 23.0073L28.3393 23.4679C28.4734 23.5679 28.5014 23.7557 28.4022 23.8898C28.3029 24.0239 28.1143 24.0519 27.9802 23.9527L27.3591 23.4914C26.8439 23.1103 26.1523 23.1103 25.6379 23.4921L25.4781 23.611C25.1456 23.8572 24.7516 23.9959 24.3373 24.0118C24.285 24.014 24.2312 24.014 24.1774 24.0118C23.7646 23.9966 23.3707 23.8572 23.0389 23.611L22.8783 23.4914C22.3639 23.1103 21.6723 23.1103 21.1571 23.4921L20.9973 23.611C20.6647 23.8572 20.2708 23.9959 19.8565 24.0118C19.8042 24.014 19.7504 24.014 19.6966 24.0118C19.2838 23.9966 18.8898 23.8572 18.558 23.611L18.3974 23.4914C17.8831 23.1103 17.1915 23.1103 16.6763 23.4921L16.5165 23.611C16.1839 23.8572 15.79 23.9959 15.3756 24.0118C15.3234 24.014 15.2696 24.014 15.2158 24.0118C14.803 23.9966 14.409 23.8572 14.0772 23.611L13.9166 23.4914C13.403 23.1103 12.7106 23.1103 12.1955 23.4921L12.0357 23.611C11.7039 23.8572 11.3092 23.9959 10.8948 24.0118C10.8426 24.014 10.7888 24.014 10.735 24.0118C10.3221 23.9966 9.92823 23.8572 9.59643 23.611L9.43659 23.4914C8.92223 23.1103 8.2306 23.1103 7.71548 23.4921L7.55639 23.6103C7.22459 23.8565 6.82992 23.9951 6.41479 24.0118C6.38222 24.0125 6.3557 24.0133 6.32919 24.0133Z" fill="#100F0D"/>
<path fill-rule="evenodd" clip-rule="evenodd" d="M6.32919 26.3995C6.30192 26.3995 6.27465 26.3988 6.24813 26.398C5.83528 26.3829 5.44136 26.2435 5.1088 25.9973L4.94896 25.8776C4.4346 25.4965 3.74221 25.4965 3.22785 25.8783L2.60895 26.3382C2.47486 26.4382 2.28699 26.4101 2.187 26.2768C2.08776 26.1427 2.11503 25.9548 2.24836 25.8549L2.86726 25.3935C3.59753 24.8526 4.57853 24.8526 5.30804 25.3935L5.46787 25.5132C5.70195 25.6867 5.97997 25.7844 6.27162 25.7958C6.30874 25.7973 6.34737 25.7973 6.38449 25.7958C6.67766 25.7852 6.95567 25.6874 7.18899 25.5132L7.34883 25.3943C8.07909 24.8534 9.05934 24.8534 9.7896 25.3928L9.94944 25.5124C10.1835 25.6859 10.4615 25.7836 10.7532 25.795C10.7911 25.7965 10.8282 25.7965 10.8661 25.795C11.1585 25.7844 11.4365 25.6867 11.6713 25.5124L11.8312 25.3935C12.5614 24.8526 13.5417 24.8526 14.2704 25.3935L14.431 25.5124C14.6651 25.6859 14.9431 25.7844 15.2347 25.795C15.2726 25.7965 15.3097 25.7965 15.3476 25.795C15.64 25.7844 15.918 25.6867 16.1529 25.5124L16.3127 25.3935C17.043 24.8526 18.0232 24.8526 18.7527 25.3935L18.9133 25.5124C19.1474 25.6859 19.4254 25.7844 19.7171 25.795C19.7549 25.7965 19.7921 25.7965 19.8299 25.795C20.1224 25.7844 20.4004 25.6867 20.6352 25.5124L20.7958 25.3935C21.5253 24.8526 22.5063 24.8526 23.2351 25.3935L23.3949 25.5124C23.6297 25.6859 23.907 25.7844 24.1986 25.795C24.2365 25.7965 24.2736 25.7965 24.3115 25.795C24.6039 25.7844 24.8819 25.6867 25.1168 25.5124L25.2766 25.3935C26.0069 24.8534 26.9871 24.8526 27.7166 25.3935L28.3378 25.8541C28.4719 25.9533 28.4999 26.142 28.4007 26.276C28.3014 26.4101 28.1128 26.4382 27.9787 26.3382L27.3575 25.8776C26.8424 25.4965 26.1508 25.4965 25.6364 25.8776L25.4766 25.9965C25.144 26.2427 24.7501 26.3813 24.3357 26.398C24.2835 26.3995 24.2297 26.3995 24.1759 26.398C23.7638 26.3829 23.3691 26.2435 23.0373 25.9973L22.8767 25.8776C22.3624 25.4965 21.6707 25.4965 21.1556 25.8776L20.9958 25.9965C20.6632 26.2427 20.2693 26.3813 19.8549 26.398C19.8027 26.3995 19.7489 26.4003 19.6951 26.398C19.283 26.3829 18.8883 26.2435 18.5565 25.9973L18.3959 25.8776C17.8823 25.4965 17.1899 25.4965 16.6748 25.8776L16.515 25.9965C16.1824 26.2427 15.7885 26.3813 15.3741 26.398C15.3219 26.3995 15.2681 26.4003 15.2143 26.398C14.8014 26.3829 14.4075 26.2435 14.0757 25.9973L13.9151 25.8776C13.4015 25.4965 12.7091 25.4965 12.194 25.8776L12.0342 25.9965C11.7016 26.2427 11.3077 26.3813 10.8933 26.398C10.8411 26.3995 10.7873 26.4003 10.7335 26.398C10.3214 26.3829 9.92671 26.2435 9.59491 25.9973L9.43508 25.8776C8.92071 25.4965 8.22908 25.4965 7.71396 25.8783L7.55488 25.9973C7.22308 26.2435 6.8284 26.3821 6.41328 26.3988C6.38222 26.3988 6.3557 26.3995 6.32919 26.3995Z" fill="#100F0D"/>
<path fill-rule="evenodd" clip-rule="evenodd" d="M6.32929 28.785C6.30202 28.785 6.27474 28.7842 6.24823 28.7835C5.83538 28.7683 5.44146 28.6289 5.1089 28.382L4.94906 28.2623C4.4347 27.8813 3.74231 27.8813 3.22795 28.2631L2.6098 28.7236C2.47572 28.8236 2.28785 28.7956 2.18785 28.6623C2.08862 28.5282 2.11589 28.3403 2.24921 28.2403L2.86812 27.7797C3.59838 27.2389 4.57939 27.2389 5.30889 27.779L5.46873 27.8987C5.70281 28.0722 5.98082 28.1691 6.27247 28.1812C6.30959 28.1828 6.34823 28.1828 6.38534 28.1812C6.67851 28.1699 6.95652 28.0729 7.18984 27.8987L7.34968 27.7797C8.07995 27.2389 9.06019 27.2389 9.79046 27.779L9.95029 27.8987C10.1844 28.0722 10.4624 28.1691 10.754 28.1812C10.7919 28.1828 10.829 28.1828 10.8669 28.1812C11.1593 28.1699 11.4381 28.0729 11.6722 27.8987L11.832 27.7797C12.5623 27.2389 13.5425 27.2389 14.2713 27.779L14.4319 27.8987C14.6652 28.0722 14.9432 28.1699 15.2356 28.1812C15.2735 28.1828 15.3106 28.1828 15.3485 28.1812C15.6409 28.1699 15.9189 28.0729 16.1537 27.8987L16.3136 27.7797C17.0438 27.2389 18.0241 27.2389 18.7536 27.779L18.9142 27.8987C19.1483 28.0722 19.4255 28.1699 19.7179 28.1812C19.7558 28.1828 19.7929 28.1828 19.8308 28.1812C20.1232 28.1699 20.4012 28.0729 20.6361 27.8987L20.7967 27.7797C21.5262 27.2389 22.5072 27.2389 23.2359 27.779L23.3957 27.8987C23.6306 28.0722 23.9078 28.1699 24.1995 28.1812C24.2374 28.1828 24.2745 28.1828 24.3124 28.1812C24.6048 28.1699 24.8828 28.0729 25.1176 27.8987L25.2775 27.7797C26.0077 27.2389 26.988 27.2389 27.7175 27.779L28.3387 28.2396C28.4727 28.3396 28.5008 28.5282 28.4015 28.6615C28.3023 28.7956 28.1137 28.8236 27.9796 28.7244L27.3584 28.2638C26.8433 27.8828 26.1517 27.8828 25.6373 28.2638L25.4774 28.3827C25.1449 28.6289 24.751 28.7676 24.3366 28.7842C24.2843 28.7858 24.2305 28.7858 24.1768 28.7842C23.7639 28.7691 23.37 28.6297 23.0382 28.3827L22.8776 28.2638C22.3632 27.8828 21.6716 27.8828 21.1565 28.2638L20.9966 28.3827C20.6648 28.6289 20.2702 28.7676 19.8558 28.7842C19.8035 28.7858 19.7497 28.7858 19.696 28.7842C19.2831 28.7691 18.8892 28.6297 18.5574 28.3827L18.3968 28.2638C17.8832 27.8828 17.1908 27.8828 16.6757 28.2638L16.5158 28.3827C16.184 28.6289 15.7894 28.7676 15.375 28.7842C15.3227 28.7858 15.2689 28.7858 15.2151 28.7842C14.8023 28.7691 14.4084 28.6297 14.0766 28.3827L13.916 28.2638C13.4024 27.8828 12.71 27.8828 12.1949 28.2638L12.035 28.3827C11.7032 28.6289 11.3086 28.7676 10.8942 28.7842C10.8419 28.7858 10.7881 28.7858 10.7343 28.7842C10.3215 28.7691 9.92757 28.6297 9.59577 28.3827L9.43593 28.2631C8.92156 27.882 8.22994 27.882 7.71481 28.2638L7.55573 28.382C7.22393 28.6289 6.82926 28.7676 6.41413 28.7835C6.38231 28.7842 6.3558 28.785 6.32929 28.785Z" fill="#100F0D"/>
<path fill-rule="evenodd" clip-rule="evenodd" d="M23.0306 17.9644C22.9124 17.9644 22.8003 17.8939 22.7518 17.7788C22.6882 17.625 22.7609 17.4485 22.9147 17.3849L23.198 17.2667C23.3518 17.2031 23.5275 17.2758 23.5919 17.4296C23.6555 17.5834 23.582 17.7599 23.429 17.8235L23.1457 17.9409C23.1086 17.9568 23.0692 17.9644 23.0306 17.9644Z" fill="#100F0D"/>
<path fill-rule="evenodd" clip-rule="evenodd" d="M20.9662 18.8189C20.8481 18.8189 20.7359 18.7492 20.6875 18.6325C20.6238 18.4788 20.6973 18.3022 20.8511 18.2394L21.1344 18.1227C21.2882 18.0591 21.4647 18.1326 21.5276 18.2863C21.5912 18.4401 21.5177 18.6166 21.3639 18.6795L21.0806 18.7962C21.0435 18.8113 21.0049 18.8189 20.9662 18.8189Z" fill="#100F0D"/>
<path fill-rule="evenodd" clip-rule="evenodd" d="M18.9028 19.6734C18.7846 19.6734 18.6717 19.6037 18.624 19.487C18.5604 19.3333 18.6338 19.1567 18.7876 19.0939L19.0709 18.9772C19.2247 18.9136 19.4012 18.9871 19.4641 19.1408C19.5277 19.2946 19.4542 19.4711 19.3005 19.534L19.0179 19.6514C18.98 19.6658 18.9406 19.6734 18.9028 19.6734Z" fill="#100F0D"/>
<path fill-rule="evenodd" clip-rule="evenodd" d="M16.8392 20.5279C16.721 20.5279 16.6081 20.4582 16.5604 20.3415C16.4968 20.1877 16.5702 20.0112 16.724 19.9476L17.0073 19.831C17.1611 19.7673 17.3369 19.8408 17.4005 19.9946C17.4641 20.1491 17.3906 20.3249 17.2369 20.3885L16.9536 20.5052C16.9164 20.5211 16.877 20.5279 16.8392 20.5279Z" fill="#100F0D"/>
<path fill-rule="evenodd" clip-rule="evenodd" d="M14.7757 21.3831C14.6583 21.3831 14.5454 21.3134 14.4969 21.1975C14.4333 21.0438 14.506 20.8673 14.6598 20.8036L14.9431 20.6862C15.0969 20.6226 15.2734 20.6953 15.337 20.8491C15.4006 21.0029 15.3279 21.1794 15.1741 21.243L14.8908 21.3604C14.8529 21.3756 14.8136 21.3831 14.7757 21.3831Z" fill="#100F0D"/>
</svg>
