<svg xmlns="http://www.w3.org/2000/svg" viewBox="0 0 1771.7 1771.7"><g stroke="#fff"><path d="M1736.909 449.975a121.741 121.741 0 11-243.482 0 121.741 121.741 0 11243.482 0z" stroke-linejoin="round" stroke-linecap="square" stroke-width=".7076931"/><path d="M512.11 739.84c-36.457-25.64-82.1-52.592-135.47-80.647-9.574-4.444-20.179-4.763-32.168.453-31.759 6.47-30.779 9.821-38.964 14.045-21.355 22.604-27.582 50.71-36.246 77.93l-3.624 1.811-10.874 29.903 1.812 1.812c-17.779 42.722-20.791 93.498-25.825 143.17-2.679 13.145-6.014 25.712-12.686 35.34-6.011.316-10.97-3.406-20.388 9.967-36.293.183-62.902-5.633-89.708-11.327-8.17-3.468-16.797-6.785-28.543-9.06-26.193-4.685-39.487 29.86-26.278 52.555 6.246 9.966 13.562 19.473 24.013 27.638l10.885-.46c6.343 8.763 12.686 11.385 19.029 14.951l-.68 8.381 6.57 2.04 5.437-7.25 14.498 5.89v7.703l7.023 1.586 3.624-6.344c30.423 6.097 57.637 13.351 75.437 27.864l-.906 9.514 7.702 2.493 3.625-6.57 16.764 4.984.679 8.382 8.156 1.586 3.398-6.343c61.6-11.048 39.51-45.223 40.78-72.945h-2.718c-.125-48.951 20.774-71.947 35.184-100.71 18.613-29.02 46.69-48.04 47.728-116.31 6.367-4.692 14.143 7.511 22.2 23.107l.454 14.045c21.474 12.663 42.354 28.896 62.977 46.667 25.98 27.318 50.884 47.804 74.304 58.899l3.17 10.42 6.797.453c15.64 7.095 22.862 27.418 33.074 43.042-1.038 14.766 7.11 22.968 24.013 24.92 9.533 40.466 37.855 62.616 81.553 69.772 13.397-1.006 25.3 2.77 34.434 15.405l-56.63 38.496-106.47 56.18c-5.942-1.475-11.422.754-16.764 4.078-8.941-1.45-10.804.638-15.404 1.359-6.796 2.232-14.498-1.783-21.295-5.89-4.778-3.467-13.947-8.7-15.857 3.851-.486 4.727 4.942 19.89 34.886 25.6 18.267 14.246 30.497 13.754 47.573 11.326 8.85-2.096 24.981-3.632 34.433-2.265 14.653 1.951 21.109-6.82 24.919-18.123 62.856-2.888 126.83-23.698 192.1-65.243 26.666-14.244 55.573.669 69.773 6.343 37.271 11.738 75.835 4.075 113.87 4.387 73.147 10.773 98.242 8.24 116.61 3.845 9.88-6.852 19.164-8.928 28.193-8.97-6.837 27.296 12.094 42.997 20.504 63.432 1.842 15.805 5.923 31.61 17.941 47.415-4.703 22.908 3.994 39.59 12.174 57.667 1.016 39.68 27.232 65.5 43.57 96.752l65.356 115.33c4.463 10.33 9.627 20.156 8.33 34.6-2.306 14.662 12.96 23.711 20.504 24.348 46.895 2.229 68.093 30.154 100.6 46.774 9.458 2.949 19.384 8.47 27.232 2.563 16.188 3.316 23.013 3.336 27.552-4.165.33-3.571 7.278-10.285-13.776-14.417-26.247-4.595-53.42-22.96-81.374-50.618-13.505-13.983-22.29-18.523-32.678-26.271-18.494-29.614-30.407-64.796-37.804-103.8-9.701-47.95-9.656-95.897-39.726-143.85 6.842-3.082 14.516-4.5 23.067-4.165-2.136-9.398-1.362-16.855-6.408-28.193-5.266-10.256-7.018-28.419-8.97-46.133-9.487-28.63-17.228-57.405-36.522-85.218 2.528-101.11-28.652-140.13-74.646-151.86 19.004-2.204 115.09-50.186 68.88-156.98-10.024-20.87-53.15-70.953-90.024-57.026-24.548 12.792-35.04 25.5-40.687 31.716-12.98 19.237-23.976 26.774-40.366 37.484-8.156 6.013-36.597 40.741-39.085 72.404-23.272-1.965-45.816-1.507-67.278 2.563l-42.93-8.97c8.402-8.422 16.367-18.857 21.786-41.007 4.228-4.248 10.393-5.784 8.97-17.941 12.347-19.58 25.794-33.296 36.522-61.511 5.624.146 11 2.034 16.018 6.407 4.512 1.769 5.858-26.456 1.955-29.435l-7.721-3.883c15.682-41.245 37.935-81.177 37.804-125.59 16.873-17.644 33.746-44.707 50.618-119.82 12.057-37.183 24.766-73.063 35.24-113.41 7.502-1.931 10.86-11.11 11.535-24.99 9.292-58.093 15.75-116.19 39.726-174.28 3.49-7.295 8.119-19.006 21.785-23.706 21.616-7.574 43.014-16.771 63.433-33.318 55.888-35.701 68.739-24.148 92.907-49.337 2.647-5.298 10.59-25.478-16.018-30.755l-3.845-7.048-5.766-1.282-2.563 7.048-12.408-.267-1.767-7.048h-6.744l-2.485 6.861c-16.206-1.037-18.575-2.437-24.011-2.11l-1.54-7.236c-4.403-.191-6.25.214-8.939-.373l-1.734 8.594-6.517.298-1.133-7.048-8.893-.045c-1.615 4.469-3.753 9.068-7.766 14.135-24.017 10.716-51.284 10.595-80.733 3.204l-2.415-10.478-10.588.227-1.585 5.993-15.527.414-1.36-6.18-13.378-.227-1.469 6.258c-33.642 19.911-32.035 45.253-24.16 68.708l3.844 24.348c-4.031 48.041-31.934 88.124-49.623 131.61-9.265 19.607-20.623 38.167-36.7 54.37-18.62 23.124-33.18 81.556-32.167 123.69l-5.437 3.624-1.36 24.466 2.72-.907 2.265 14.045c-21.503 23.186-31.687 48.635-45.307 73.398-35.12 32.841-66.995 68.928-98.77 105.11-20.521.267-39.504-2.545-58.9-4.53-18.124 19.75-10.27 51.045-15.404 76.568-3.097 10.032-14.478 17.697-25.825 25.372-115.53-10.169-157.77-44.77-198.9-79.74-9.042.853-18.637 3.183-31.262 13.591z" stroke-width=".709"/><path d="M933.46 1851.76c25.263-34.483 61.973-33.03 91.103-14.347" stroke-width="3.523" fill="none"/></g></svg>