<svg width="43" height="36" viewBox="0 0 43 36" fill="none" xmlns="http://www.w3.org/2000/svg">
<path d="M23.0815 0.153291C23.1499 0.215486 23.2821 0.238809 23.478 0.22326C27.4201 0.460638 31.1093 1.32981 34.5456 2.83079C36.2466 3.57402 37.8015 4.65881 39.2102 6.08515C41.0792 8.21222 41.7525 10.2895 42.1163 13.1769C42.4594 15.3932 42.5387 17.6255 42.3542 19.8738C42.1132 22.7939 41.9593 24.9163 40.5677 27.2066C39.0998 29.4197 37.1236 31.1026 34.6389 32.2553C31.7064 33.6143 28.6386 34.4974 25.4573 34.7913C24.9463 34.838 24.4358 34.8851 23.9258 34.9328C22.1159 35.1023 20.3169 35.051 18.5086 35.0448C18.4619 35.0448 18.4262 35.0245 18.4013 34.9841C18.3754 34.9416 18.3438 34.9193 18.3065 34.9173C12.8364 34.6125 6.32457 32.7202 2.67993 28.3246C1.56664 26.9501 0.867464 25.4848 0.582403 23.9289C-0.0193351 20.6404 -0.241683 16.8231 0.336732 13.1132L0.815634 10.7094C1.12039 9.20942 1.76929 7.86186 2.76234 6.66668C4.16069 5.03509 5.80731 3.79378 7.70219 2.94274C11.2162 1.36506 14.9624 0.462711 18.9408 0.235699C19.2751 0.215486 19.6126 0.0724371 19.978 0.0646627C20.8269 0.0475591 22.3056 -0.115703 23.0815 0.153291ZM12.3155 6.80506C10.8897 8.69735 10.8228 10.2336 10.6767 12.8364C10.6248 13.758 10.5865 14.6836 10.5616 15.6134C10.4357 18.5708 10.3253 22.6726 10.9705 25.9083C11.2058 26.9832 11.6785 27.9198 12.3886 28.718C16.6878 33.4821 25.2319 33.6858 29.727 29.0569C30.5615 28.295 31.1259 27.3108 31.4203 26.1042C31.6204 25.3102 31.7489 24.4975 31.8059 23.6662C32.0842 19.6344 31.9443 15.5497 31.6877 11.5194C31.6515 10.9431 31.6027 10.359 31.5416 9.7671C30.5091 5.58292 26.6219 3.42164 22.6026 2.98783C18.8071 2.5789 14.7582 3.8057 12.3155 6.80506Z" fill="#FBE021"/>
</svg>
