<svg width="21" height="21" viewBox="0 0 21 21" fill="none" xmlns="http://www.w3.org/2000/svg">
<rect x="0.180481" y="0.247437" width="20" height="20" rx="4" fill="#B64901"/>
<path d="M11.7868 6.46576L10.1022 5.71149L7.26115 6.8429C6.87564 7.60555 6.15485 9.21943 5.99395 9.6016C5.93734 9.73603 5.75144 10.276 6.3133 10.5906C6.94143 10.9423 7.4362 10.1868 7.4362 10.1868L7.99028 8.70343C7.99028 8.70343 8.16763 8.20055 8.4177 8.12516C8.76912 8.01921 8.83725 8.46438 8.83725 8.58172L7.53772 13.1285L5.67718 15.6679C5.51795 15.8606 5.34028 16.3668 5.90347 16.8496C6.46665 17.3323 7.04325 16.7993 7.26115 16.4724L9.34797 13.6816L9.92925 12.4964L11.2588 13.6816C11.242 14.6119 11.2186 16.5479 11.2588 16.8496C11.3091 17.2267 11.4851 17.5284 12.0131 17.5284C12.4355 17.5284 12.826 17.0758 12.9685 16.8496V13.1285C12.3986 12.4077 11.2019 10.8418 11.114 10.6833C11.026 10.5248 11.0222 10.2779 11.0577 10.1868C11.175 9.88512 11.4247 9.25154 11.4851 9.13085C11.6078 8.88532 12.0131 9.13085 12.0131 9.13085C12.298 9.30685 13.0791 9.76444 13.9239 10.1868C14.9799 10.7148 15.8347 9.38228 14.653 8.70343L12.3148 7.42117L11.7868 6.46576Z" fill="white"/>
<circle cx="11.7064" cy="4.35291" r="1.4062" fill="white"/>
</svg>
