<svg width="29" height="29" viewBox="0 0 29 29" fill="none" xmlns="http://www.w3.org/2000/svg">
<rect x="0.830933" y="0.581665" width="27.2618" height="27.2618" rx="4.5" fill="#D5FAFF" stroke="black"/>
<path d="M5.00037 22H21.0004" stroke="black" stroke-width="1.5" stroke-linecap="round" stroke-linejoin="round"/>
<path d="M6.82533 14.1661C6.55033 13.9661 6.30033 13.7161 6.00034 12.8411C5.91897 12.6241 5.61145 11.5362 5.35034 10.5411C5.13009 9.7017 4.93383 8.93555 5.02534 8.74109C5.10035 8.54109 5.20033 8.39109 5.52533 8.19109C5.72533 8.06802 6.75033 7.81609 6.95033 7.76609C7.15033 7.71609 7.42532 7.69109 7.65033 7.76609C8.07533 7.84109 8.95033 9.11609 9.17533 9.26609C9.27532 9.36609 9.60033 9.657 9.97533 9.69109C10.2503 9.71609 10.5253 9.64109 10.8253 9.51609C11.1003 9.40151 16.5254 6.76609 17.0254 6.54109C21.1004 4.84109 24.0604 7.63609 24.5104 8.23609C24.9754 8.81609 25.0754 8.99109 24.9504 9.49109C24.7888 10.0161 24.3504 10.1161 24.1004 10.1911C23.8504 10.2661 20.4004 11.1911 19.0504 11.5661C18.7555 11.6621 18.6115 11.8549 18.5754 11.8911C18.4004 12.1411 17.6054 13.8411 17.3804 14.2161C17.2254 14.6161 16.8004 15.1161 16.2504 15.3161C15.6754 15.5161 14.6754 15.7411 14.4504 15.8161C14.2254 15.8911 13.7004 16.0411 13.5254 15.9911C13.3004 15.9411 13.0854 15.7161 13.1854 15.3661C13.2854 15.0161 13.4754 14.0411 13.5004 13.8911C13.5254 13.7411 13.7754 13.1161 13.5004 13.0911C13.4504 13.0161 12.9253 13.2411 12.1503 13.4161C11.5746 13.5782 10.9716 13.7386 10.5503 13.8411C8.92533 14.3161 8.04527 14.4411 7.85033 14.4411C7.47533 14.4411 7.20033 14.3911 6.82533 14.1661Z" stroke="black" stroke-width="1.5"/>
</svg>
