<svg width="50" height="37" viewBox="0 0 50 37" fill="none" xmlns="http://www.w3.org/2000/svg">
<g clip-path="url(#clip0_1395_73)">
<path d="M50 0H0V37H50V0Z" fill="#009C00"/>
<path fill-rule="evenodd" clip-rule="evenodd" d="M7.48813 18.5C7.48818 18.526 7.48304 18.5517 7.47301 18.5757C7.46298 18.5996 7.44825 18.6214 7.42968 18.6398C7.4111 18.6581 7.38904 18.6727 7.36475 18.6827C7.34046 18.6926 7.31443 18.6977 7.28814 18.6977C7.26184 18.6977 7.23581 18.6926 7.21152 18.6827C7.18723 18.6727 7.16517 18.6581 7.14659 18.6398C7.12802 18.6214 7.11329 18.5996 7.10326 18.5757C7.09323 18.5517 7.08809 18.526 7.08814 18.5C7.08809 18.4741 7.09323 18.4484 7.10326 18.4244C7.11329 18.4004 7.12802 18.3786 7.14659 18.3603C7.16517 18.3419 7.18723 18.3274 7.21152 18.3174C7.23581 18.3075 7.26184 18.3024 7.28814 18.3024C7.31443 18.3024 7.34046 18.3075 7.36475 18.3174C7.38904 18.3274 7.4111 18.3419 7.42968 18.3603C7.44825 18.3786 7.46298 18.4004 7.47301 18.4244C7.48304 18.4484 7.48818 18.4741 7.48813 18.5Z" fill="white"/>
<path d="M3.30591 25.7738H9.36425V11.3907H3.34167" stroke="white"/>
<path d="M3.35289 15.1722H5.46322L5.39478 21.7898H3.27319" stroke="white"/>
<path d="M3.24174 17.198H2.14673V19.8315H3.24174" stroke="white"/>
<path d="M9.35314 21.0823C11.2694 19.985 11.1928 17.0196 9.34497 15.9392" stroke="white"/>
<path d="M3.34473 2.90043C3.34473 2.90043 3.74942 2.80518 3.84966 2.38757" stroke="white"/>
<path d="M3.81739 34.6784C3.81739 34.6784 3.72086 34.2791 3.29761 34.1802" stroke="white"/>
<path d="M46.9004 34.1414C46.9004 34.1414 46.4958 34.2366 46.3955 34.6542" stroke="white"/>
<path fill-rule="evenodd" clip-rule="evenodd" d="M3.32886 34.6535V2.3761L46.8556 2.44362L46.9241 34.6535H3.32886Z" stroke="white"/>
<path fill-rule="evenodd" clip-rule="evenodd" d="M28.3241 18.5001C28.3241 19.3699 27.9739 20.2042 27.3505 20.8192C26.7271 21.4343 25.8816 21.7799 24.9999 21.7799C24.1183 21.7799 23.2728 21.4343 22.6494 20.8192C22.026 20.2042 21.6758 19.3699 21.6758 18.5001C21.6758 17.6302 22.026 16.7959 22.6494 16.1809C23.2728 15.5658 24.1183 15.2202 24.9999 15.2202C25.8816 15.2202 26.7271 15.5658 27.3505 16.1809C27.9739 16.7959 28.3241 17.6302 28.3241 18.5001Z" stroke="white" stroke-linejoin="round"/>
<path d="M46.9013 25.7818L40.9573 25.7738V11.3907H46.8737" stroke="white"/>
<path d="M46.9115 15.1722H44.8584L44.9268 21.7898L46.9014 21.7898" stroke="white"/>
<path d="M46.8818 17.198H48.0749V19.8315L46.9063 19.8315" stroke="white"/>
<path d="M40.944 21.0823C39.0277 19.985 39.1043 17.0599 40.9522 15.9795" stroke="white"/>
<path d="M25 2.3761V34.5859" stroke="white"/>
<path d="M46.29 2.46814C46.29 2.46814 46.3866 2.86743 46.8098 2.96634" stroke="white"/>
<path fill-rule="evenodd" clip-rule="evenodd" d="M43.2601 18.5001C43.2601 18.5524 43.239 18.6026 43.2015 18.6396C43.164 18.6766 43.1132 18.6974 43.0601 18.6974C43.0071 18.6974 42.9562 18.6766 42.9187 18.6396C42.8812 18.6026 42.8601 18.5524 42.8601 18.5001C42.8601 18.4477 42.8812 18.3975 42.9187 18.3605C42.9562 18.3235 43.0071 18.3027 43.0601 18.3027C43.1132 18.3027 43.164 18.3235 43.2015 18.3605C43.239 18.3975 43.2601 18.4477 43.2601 18.5001Z" fill="white"/>
<path fill-rule="evenodd" clip-rule="evenodd" d="M25.2001 18.5C25.2001 18.526 25.1949 18.5517 25.1849 18.5756C25.1749 18.5996 25.1602 18.6214 25.1416 18.6398C25.123 18.6581 25.1009 18.6727 25.0767 18.6826C25.0524 18.6926 25.0263 18.6977 25.0001 18.6977C24.9738 18.6977 24.9477 18.6926 24.9234 18.6826C24.8992 18.6727 24.8771 18.6581 24.8585 18.6398C24.8399 18.6214 24.8252 18.5996 24.8152 18.5756C24.8052 18.5517 24.8 18.526 24.8 18.5C24.8 18.4741 24.8052 18.4484 24.8152 18.4244C24.8252 18.4004 24.8399 18.3786 24.8585 18.3603C24.8771 18.3419 24.8992 18.3274 24.9234 18.3174C24.9477 18.3075 24.9738 18.3024 25.0001 18.3024C25.0263 18.3024 25.0524 18.3075 25.0767 18.3174C25.1009 18.3274 25.123 18.3419 25.1416 18.3603C25.1602 18.3786 25.1749 18.4004 25.1849 18.4244C25.1949 18.4484 25.2001 18.4741 25.2001 18.5Z" fill="white"/>
</g>
<rect x="0.25" y="0.25" width="49.5" height="36.5" stroke="white" stroke-width="0.5"/>
<defs>
<clipPath id="clip0_1395_73">
<rect width="50" height="37" fill="white"/>
</clipPath>
</defs>
</svg>
