<svg width="99" height="131" viewBox="0 0 99 131" fill="none" xmlns="http://www.w3.org/2000/svg">
<ellipse cx="49.5" cy="48" rx="49.5" ry="48" fill="#E9E90C"/>
<path d="M45.4147 125.211C47.4067 128.034 51.5933 128.034 53.5853 125.211L86.8058 78.1328C89.143 74.8206 86.7742 70.25 82.7205 70.25H16.2795C12.2258 70.25 9.85702 74.8206 12.1942 78.1328L45.4147 125.211Z" fill="#E9E90C"/>
<g clip-path="url(#clip0_383_35)">
<circle cx="49.8518" cy="47.8518" r="43.3518" fill="white" stroke="black"/>
<path d="M90.5675 48.3285L91.3537 48.8997L91.3614 47.928L91.3614 47.9275C91.3615 47.9219 91.3623 47.8693 91.3623 47.8518C91.3623 39.0853 88.66 30.7323 83.6522 23.7429L83.076 22.9387L82.7702 23.8796L80.7038 30.239L80.6542 30.3917L80.7027 30.5447L85.0313 44.1858L85.081 44.3425L85.214 44.4391L90.5675 48.3285ZM85.4008 68.83H85.6893L85.8337 68.5803C88.8631 63.3411 90.7025 57.4921 91.213 51.3711L91.2364 51.0905L91.0087 50.925L84.4674 46.1725L84.1735 45.959L83.8797 46.1725L72.4435 54.4812L72.1496 54.6948L72.2619 55.0403L76.6302 68.4845L76.7425 68.83H77.1057H85.4008ZM62.5131 78.6439L62.8166 78.8644L63.1131 78.6347L74.7228 69.6438L75.0009 69.4285L74.8922 69.094L70.4824 55.5219L70.3956 55.255L70.1226 55.19L63.4967 53.6138L63.273 53.5606L63.0871 53.6957L50.9786 62.4932L50.7725 62.6429V62.8977V69.859V70.1138L50.9786 70.2635L62.5131 78.6439ZM36.5776 78.6392L36.8749 78.8733L37.1809 78.6509L48.7251 70.2634L48.9312 70.1136V69.8588V62.8975V62.6427L48.7251 62.493L36.5553 53.6512L36.3679 53.5151L36.1429 53.5699L29.5852 55.1694L29.3143 55.2355L29.2281 55.5007L24.8477 68.9826L24.74 69.3142L25.0138 69.5299L36.5776 78.6392ZM8.69486 50.925L8.46706 51.0905L8.49048 51.3711C9.00122 57.4922 10.8406 63.3411 13.87 68.5805L14.0144 68.8302H14.3029H22.5978H22.9611L23.0733 68.4847L27.4416 55.0407L27.5539 54.6952L27.26 54.4816L15.8239 46.1727L15.53 45.9592L15.2361 46.1727L8.69486 50.925ZM21.024 31.271H20.657L20.547 31.6212L16.6377 44.0668L16.5299 44.4098L16.8208 44.6211L28.7582 53.2941L28.9455 53.4302L29.1705 53.3754L35.8197 51.7535L36.0906 51.6874L36.1768 51.4223L40.6133 37.7679L40.6957 37.5145L40.5311 37.3048L35.9467 31.4623L35.7965 31.271H35.5533H21.024ZM42.2589 15.8126H41.8957L41.7834 16.1581L37.3255 29.8781L37.2431 30.1316L37.4077 30.3413L41.9516 36.132L42.1017 36.3234H42.3449H57.3377H57.5829L57.733 36.1296L62.2745 30.2667L62.4365 30.0575L62.3547 29.806L57.9201 16.1581L57.8078 15.8126H57.4446H42.2589ZM79.1123 31.6198L79.0016 31.271H78.6357H64.0708H63.8257L63.6756 31.4648L59.1644 37.2883L59.0024 37.4974L59.0841 37.749L63.5478 51.4868L63.6345 51.7538L63.9076 51.8188L70.5153 53.3908L70.7389 53.444L70.9249 53.3089L82.8795 44.6232L83.1713 44.4112L83.0622 44.0675L79.1123 31.6198ZM49.558 60.8222L49.8518 61.0358L50.1457 60.8222L61.5821 52.5135L61.876 52.3L61.7637 51.9545L57.3954 38.5102L57.2831 38.1647H56.9199H42.784H42.4208L42.3085 38.5102L37.9402 51.9545L37.8279 52.3L38.1218 52.5135L49.558 60.8222ZM81.6113 21.4882L81.6976 21.2226L81.5166 21.0098C80.7836 20.1479 80.014 19.3096 79.2041 18.4995L79.2041 18.4994C75.6594 14.9547 71.5841 12.132 67.1585 10.1004L66.8927 9.97841L66.656 10.1503L59.8695 15.0811L59.5756 15.2946L59.6879 15.6401L64.0564 29.0842L64.1686 29.4296H64.5319H78.6675H79.0308L79.1431 29.0841L81.6113 21.4882ZM64.155 9.69174L64.9169 9.13819L64.0316 8.81717C59.5455 7.19058 54.7634 6.34137 49.8518 6.34137C44.9403 6.34137 40.1582 7.19058 35.6723 8.81717L34.787 9.1382L35.5489 9.69174L41.3078 13.8758L41.4392 13.9712H41.6016H58.1022H58.2647L58.3961 13.8758L64.155 9.69174ZM20.4994 18.4996L20.4994 18.4997C19.6896 19.3096 18.92 20.1481 18.1871 21.01L18.0061 21.2227L18.0924 21.4884L20.5604 29.0843L20.6727 29.4298H21.036H35.1716H35.5349L35.6471 29.0843L40.0157 15.6403L40.1279 15.2948L39.834 15.0813L33.0475 10.1505L32.8108 9.9786L32.545 10.1006C28.1194 12.1322 24.0441 14.9549 20.4994 18.4996ZM16.9333 23.8796L16.6276 22.9386L16.0513 23.7429C11.0437 30.7325 8.34137 39.0853 8.34118 47.8518C8.34118 47.8689 8.3415 47.8852 8.34173 47.8963L8.34175 47.8978L8.34213 47.924V48.9053L9.13601 48.3285L14.4873 44.4408L14.6209 44.3437L14.6704 44.1861L18.9779 30.4725L19.0258 30.3201L18.9764 30.1682L16.9333 23.8796ZM16.1062 70.6714H15.1504L15.6955 71.4565C17.108 73.4913 18.7111 75.4157 20.4994 77.2041C25.2898 81.9945 31.0476 85.4681 37.3322 87.4473L38.2578 87.7387L37.9579 86.8158L35.9326 80.5824L35.8857 80.4381L35.7665 80.3442L23.6236 70.7786L23.4875 70.6714H23.3142H16.1062ZM40.282 88.0104L40.37 88.2811L40.6477 88.3437C43.6343 89.0165 46.7168 89.3623 49.8518 89.3623C52.9867 89.3623 56.0692 89.0165 59.0555 88.3437L59.3331 88.2811L59.4211 88.0104L61.7633 80.8022L61.8756 80.4567L61.5817 80.2432L50.1455 71.9345L49.8517 71.7209L49.5578 71.9345L38.1216 80.2434L37.8277 80.4569L37.94 80.8024L40.282 88.0104ZM61.7456 86.816L61.4457 87.7389L62.3713 87.4474C68.6559 85.4683 74.4139 81.9946 79.2043 77.2043L78.8507 76.8507L79.2043 77.2042C80.9926 75.4157 82.5957 73.4913 84.0082 71.4565L84.5533 70.6714H83.5975H76.574H76.403L76.2679 70.7761L63.9486 80.3166L63.8268 80.4109L63.7792 80.5574L61.7456 86.816ZM49.8518 4.5C61.4325 4.5 72.3176 9.00867 80.5062 17.1975C88.695 25.3861 93.2037 36.2712 93.2037 47.8518C93.2037 59.4325 88.6948 70.3174 80.5062 78.5062C72.3176 86.695 61.4325 91.2037 49.8518 91.2037C38.2712 91.2037 27.3863 86.6948 19.1975 78.5062C11.0087 70.3176 6.5 59.4325 6.5 47.8518C6.5 36.2712 11.0089 25.3863 19.1975 17.1975C27.3861 9.00867 38.2712 4.5 49.8518 4.5Z" fill="#E9E90C" stroke="black"/>
</g>
<defs>
<clipPath id="clip0_383_35">
<rect width="87.7037" height="87.7037" fill="white" transform="translate(6 4)"/>
</clipPath>
</defs>
</svg>
