<svg width="148" height="148" viewBox="0 0 148 148" fill="none" xmlns="http://www.w3.org/2000/svg">
<g clip-path="url(#clip0_378_22)">
<circle cx="74" cy="76.7407" r="43.8518" fill="white"/>
<path d="M105.008 45.7328C96.7255 37.4502 85.7133 32.8889 74 32.8889C62.2867 32.8889 51.2745 37.4502 42.9921 45.7328C34.7097 54.0154 30.1481 65.0275 30.1481 76.7407C30.1481 88.454 34.7095 99.4662 42.9921 107.749C51.2747 116.031 62.2867 120.593 74 120.593C85.7133 120.593 96.7255 116.031 105.008 107.749C113.29 99.466 117.852 88.454 117.852 76.7407C117.852 65.0275 113.29 54.0152 105.008 45.7328ZM115.01 76.8129L109.656 72.9234L105.327 59.2824L107.394 52.923C112.341 59.8272 115.01 68.0783 115.01 76.7407C115.01 76.7648 115.01 76.7888 115.01 76.8129ZM109.549 97.2189H101.254L96.8855 83.7746L108.322 75.4659L114.863 80.2184C114.358 86.2661 112.541 92.0438 109.549 97.2189ZM86.9551 107.128L75.4207 98.7479V91.7866L87.5291 82.9891L94.155 84.5653L98.5648 98.1374L86.9551 107.128ZM61.0352 107.135L49.4714 98.026L53.8518 84.5441L60.4095 82.9446L72.5793 91.7864V98.7477L61.0352 107.135ZM33.1369 80.2184L39.6781 75.4661L51.1142 83.775L46.7459 97.2191H38.451C35.4587 92.0438 33.6415 86.2661 33.1369 80.2184ZM45.1722 60.6599H59.7014L64.2859 66.5023L59.8494 80.1566L53.2002 81.7785L41.2628 73.1055L45.1722 60.6599ZM66.4071 45.2015H81.5927L86.0273 58.8494L81.4859 64.7123H66.4931L61.9492 58.9215L66.4071 45.2015ZM102.784 60.6599L106.734 73.1076L94.7791 81.7933L88.1714 80.2212L83.7078 66.4834L88.219 60.6599H102.784ZM74 89.3066L62.5638 80.9979L66.9322 67.5536H81.068L85.4363 80.9979L74 89.3066ZM105.284 50.2226L102.816 57.8185H88.68L84.3115 44.3745L91.098 39.4437C95.4696 41.4505 99.4958 44.239 102.999 47.7419C103.799 48.542 104.559 49.3704 105.284 50.2226ZM88.0093 38.1761L82.2504 42.3601H65.7498L59.9909 38.1761C64.4219 36.5694 69.1463 35.7303 74 35.7303C78.8536 35.7303 83.5781 36.5694 88.0093 38.1761ZM45.0011 47.7421C48.504 44.2392 52.5302 41.4507 56.9017 39.4439L63.6883 44.3747L59.3197 57.8187H45.1841L42.7161 50.2228C43.4408 49.3706 44.2014 48.542 45.0011 47.7421ZM40.6059 52.923L42.649 59.2115L38.3415 72.9251L32.9903 76.8129C32.9903 76.7888 32.9893 76.7648 32.9893 76.7407C32.9895 68.0783 35.6593 59.8274 40.6059 52.923ZM40.2543 100.06H47.4623L59.6052 109.626L61.6305 115.859C55.4229 113.904 49.7348 110.473 45.0011 105.739C43.234 103.972 41.65 102.071 40.2543 100.06ZM64.9057 116.745L62.5636 109.537L73.9998 101.228L85.4359 109.537L83.0937 116.745C80.1436 117.409 77.098 117.751 74 117.751C70.9017 117.751 67.8562 117.409 64.9057 116.745ZM102.999 105.74C98.2651 110.473 92.5769 113.905 86.3692 115.859L88.4029 109.601L100.722 100.06H107.746C106.35 102.071 104.766 103.972 102.999 105.74Z" fill="#EBEBEB"/>
</g>
<g clip-path="url(#clip1_378_22)">
<path d="M145.094 37.5889C145.094 40.2861 144.022 42.8728 142.115 44.78C140.208 46.6872 137.621 47.7586 134.924 47.7586C132.227 47.7586 129.64 46.6872 127.733 44.78C125.826 42.8728 124.754 40.2861 124.754 37.5889C124.754 34.8918 125.826 32.305 127.733 30.3979C129.64 28.4907 132.227 27.4192 134.924 27.4192C137.621 27.4192 140.208 28.4907 142.115 30.3979C144.022 32.305 145.094 34.8918 145.094 37.5889Z" fill="#EBEBEB" stroke="white" stroke-width="0.707693" stroke-linecap="square" stroke-linejoin="round"/>
<path d="M42.7794 61.803C39.7339 59.6611 35.9211 57.4097 31.4628 55.0661C30.6631 54.6948 29.7772 54.6682 28.7757 55.1039C26.1226 55.6444 26.2045 55.9243 25.5208 56.2772C23.7369 58.1654 23.2167 60.5133 22.4929 62.7871L22.1902 62.9384L21.2818 65.4364L21.4332 65.5877C19.948 69.1565 19.6964 73.3981 19.2759 77.5475C19.0521 78.6456 18.7735 79.6954 18.2162 80.4997C17.714 80.526 17.2998 80.2151 16.5131 81.3323C13.4813 81.3475 11.2585 80.8617 9.01924 80.386C8.33675 80.0963 7.61609 79.8193 6.63488 79.6292C4.44684 79.2378 3.33631 82.1236 4.43974 84.0194C4.9615 84.8519 5.57265 85.6461 6.44568 86.3282L7.35496 86.2898C7.88483 87.0218 8.41469 87.2408 8.94456 87.5387L8.88775 88.2388L9.43658 88.4092L9.89077 87.8036L11.1019 88.2956V88.9391L11.6885 89.0716L11.9913 88.5416C14.5327 89.0509 16.806 89.6569 18.2929 90.8693L18.2173 91.664L18.8607 91.8723L19.1635 91.3234L20.5639 91.7398L20.6206 92.44L21.3019 92.5725L21.5857 92.0426C26.7315 91.1197 24.8862 88.2649 24.9923 85.9491H24.7653C24.7548 81.8599 26.5006 79.939 27.7044 77.5362C29.2592 75.112 31.6047 73.5232 31.6914 67.8202C32.2233 67.4283 32.8728 68.4476 33.5459 69.7505L33.5838 70.9237C35.3776 71.9815 37.1219 73.3376 38.8446 74.8221C41.0149 77.1041 43.0952 78.8154 45.0516 79.7422L45.3165 80.6127L45.8842 80.6505C47.1907 81.2432 47.794 82.9409 48.6471 84.2461C48.5604 85.4795 49.241 86.1647 50.653 86.3278C51.4494 89.7081 53.8153 91.5584 57.4656 92.1562C58.5848 92.0722 59.5791 92.3876 60.3421 93.4431L55.6115 96.6589L46.7174 101.352C46.2211 101.229 45.7633 101.415 45.317 101.693C44.5701 101.571 44.4145 101.746 44.0303 101.806C43.4625 101.993 42.8192 101.657 42.2514 101.314C41.8522 101.024 41.0863 100.587 40.9267 101.636C40.8861 102.031 41.3396 103.297 43.841 103.774C45.3669 104.964 46.3886 104.923 47.815 104.72C48.5543 104.545 49.9018 104.417 50.6914 104.531C51.9154 104.694 52.4547 103.961 52.773 103.017C58.0237 102.776 63.3678 101.038 68.8202 97.5671C71.0478 96.3773 73.4625 97.623 74.6487 98.097C77.7622 99.0775 80.9836 98.4374 84.1609 98.4635C90.2713 99.3634 92.3676 99.1518 93.902 98.7847C94.7273 98.2123 95.5029 98.0389 96.2571 98.0354C95.686 100.316 97.2674 101.627 97.9699 103.334C98.1238 104.654 98.4647 105.975 99.4687 107.295C99.0758 109.209 99.8023 110.602 100.486 112.112C100.57 115.427 102.76 117.584 104.125 120.195L109.585 129.829C109.958 130.692 110.389 131.512 110.281 132.719C110.088 133.944 111.363 134.7 111.993 134.753C115.911 134.939 117.682 137.272 120.397 138.66C121.187 138.907 122.016 139.368 122.672 138.874C124.024 139.151 124.594 139.153 124.974 138.526C125.001 138.228 125.582 137.667 123.823 137.322C121.63 136.938 119.36 135.404 117.025 133.094C115.897 131.926 115.163 131.546 114.295 130.899C112.75 128.425 111.755 125.486 111.137 122.228C110.327 118.223 110.331 114.217 107.819 110.212C108.39 109.954 109.031 109.836 109.746 109.864C109.567 109.079 109.632 108.456 109.21 107.508C108.771 106.652 108.624 105.134 108.461 103.655C107.669 101.263 107.022 98.8594 105.41 96.536C105.621 88.0897 103.017 84.8301 99.1747 83.8503C100.762 83.6662 108.789 79.6579 104.929 70.7368C104.091 68.9935 100.489 64.8097 97.4084 65.9731C95.3578 67.0417 94.4813 68.1033 94.0096 68.6226C92.9253 70.2295 92.0068 70.8591 90.6376 71.7538C89.9563 72.2561 87.5805 75.1571 87.3726 77.8021C85.4286 77.638 83.5454 77.6762 81.7525 78.0162L78.1663 77.2669C78.8682 76.5634 79.5336 75.6917 79.9862 73.8414C80.3394 73.4865 80.8544 73.3582 80.7355 72.3427C81.767 70.707 82.8903 69.5613 83.7864 67.2043C84.2562 67.2165 84.7053 67.3742 85.1245 67.7395C85.5014 67.8873 85.6139 65.5295 85.2878 65.2806L84.6428 64.9563C85.9528 61.5108 87.8118 58.1751 87.8008 54.465C89.2103 52.9911 90.6198 50.7304 92.0292 44.4558C93.0364 41.3497 94.0981 38.3524 94.973 34.982C95.5997 34.8207 95.8802 34.054 95.9366 32.8945C96.7128 28.0416 97.2523 23.1885 99.2551 18.3359C99.5467 17.7265 99.9334 16.7482 101.075 16.3556C102.881 15.7229 104.668 14.9546 106.374 13.5724C111.043 10.5901 112.116 11.5551 114.135 9.45096C114.356 9.00839 115.02 7.32264 112.797 6.88183L112.476 6.29307L111.994 6.18598L111.78 6.77473L110.743 6.75243L110.596 6.16367H110.032L109.825 6.73681C108.471 6.65018 108.273 6.53323 107.819 6.56055L107.69 5.95609C107.323 5.94013 107.168 5.97396 106.944 5.92493L106.799 6.64283L106.254 6.66773L106.16 6.07897L105.417 6.07521C105.282 6.44853 105.103 6.83271 104.768 7.25598C102.762 8.15115 100.484 8.14104 98.0241 7.52363L97.8223 6.64834L96.9379 6.66731L96.8055 7.16794L95.5084 7.20252L95.3948 6.68627L94.2773 6.66731L94.1545 7.19007C91.3442 8.85335 91.4785 10.9703 92.1363 12.9296L92.4574 14.9636C92.1207 18.9767 89.7898 22.3251 88.3121 25.9577C87.5382 27.5956 86.5894 29.146 85.2464 30.4995C83.6909 32.4312 82.4747 37.3123 82.5593 40.832L82.1051 41.1348L81.9915 43.1785L82.2187 43.1028L82.4079 44.276C80.6117 46.2129 79.7609 48.3388 78.6232 50.4074C75.6894 53.1508 73.0267 56.1653 70.3724 59.1878C68.6581 59.2101 67.0724 58.9752 65.4521 58.8094C63.9381 60.4592 64.5942 63.0735 64.1653 65.2055C63.9066 66.0436 62.9559 66.6839 62.008 67.325C52.3572 66.4755 48.8286 63.5851 45.3928 60.6639C44.6375 60.7351 43.836 60.9298 42.7813 61.7992L42.7794 61.803Z" fill="#EBEBEB" stroke="white" stroke-width="0.709"/>
</g>
<defs>
<clipPath id="clip0_378_22">
<rect width="87.7037" height="87.7037" fill="white" transform="translate(30.1481 32.8889)"/>
</clipPath>
<clipPath id="clip1_378_22">
<rect width="148" height="148" fill="white"/>
</clipPath>
</defs>
</svg>
