<svg width="43" height="87" viewBox="0 0 43 87" fill="none" xmlns="http://www.w3.org/2000/svg">
<path d="M41.9953 17.5386C41.9953 23.0974 39.7643 26.925 36.1959 29.4028C32.5759 31.9164 27.4869 33.1007 21.728 33.1007C15.9692 33.1007 10.8802 31.9164 7.26019 29.4028C3.69174 26.925 1.46082 23.0974 1.46082 17.5386C1.46082 12.1245 4.6532 8.16562 8.87425 5.51127C13.1124 2.84614 18.2444 1.60004 21.728 1.60004C25.2117 1.60004 30.3437 2.84614 34.5818 5.51127C38.8029 8.16562 41.9953 12.1245 41.9953 17.5386Z" fill="#FB3C0D" stroke="white" stroke-width="2"/>
<path d="M8.47387 24.1353L10.2789 17.4853L8.47387 10.8353H11.0389L11.9889 15.3383L12.9199 10.8353H15.4849L13.6799 17.4853L15.4849 24.1353H12.9199L11.9889 19.6323L11.0389 24.1353H8.47387Z" fill="white"/>
<path d="M28.1201 23.9716L29.9251 17.3216L28.1201 10.6716H30.6851L31.6351 15.1746L32.5661 10.6716H35.1311L33.3261 17.3216L35.1311 23.9716H32.5661L31.6351 19.4686L30.6851 23.9716H28.1201Z" fill="white"/>
<path d="M16.6755 27.1656L19.3355 17.3656L16.6755 7.56563H20.4555L21.8555 14.2016L23.2275 7.56563H27.0075L24.3475 17.3656L27.0075 27.1656H23.2275L21.8555 20.5296L20.4555 27.1656H16.6755Z" fill="white"/>
<rect x="20.6152" y="31.4033" width="2.47" height="55.0456" rx="1.235" fill="#D9D9D9"/>
</svg>
