<svg width="38" height="30" viewBox="0 0 38 30" fill="none" xmlns="http://www.w3.org/2000/svg">
<path d="M36.7108 14.944C36.7108 19.8957 34.7149 23.341 31.5071 25.5684C28.2735 27.8136 23.7623 28.8512 18.7106 28.8512C13.6589 28.8512 9.14776 27.8136 5.9142 25.5684C2.7064 23.341 0.710449 19.8957 0.710449 14.944C0.710449 10.0646 3.59453 6.51883 7.33232 4.16837C11.0787 1.81253 15.6113 0.709266 18.7106 0.709266C21.81 0.709266 26.3426 1.81253 30.0889 4.16837C33.8267 6.51883 36.7108 10.0646 36.7108 14.944Z" fill="#FB3C0D" stroke="white"/>
<path d="M5.02795 21.5746L6.83295 14.9246L5.02795 8.27458H7.59295L8.54295 12.7776L9.47395 8.27458H12.0389L10.2339 14.9246L12.0389 21.5746H9.47395L8.54295 17.0716L7.59295 21.5746H5.02795Z" fill="white"/>
<path d="M24.6742 21.4109L26.4792 14.7609L24.6742 8.11086H27.2392L28.1892 12.6139L29.1202 8.11086H31.6852L29.8802 14.7609L31.6852 21.4109H29.1202L28.1892 16.9079L27.2392 21.4109H24.6742Z" fill="white"/>
<path d="M13.2296 24.6049L15.8896 14.8049L13.2296 5.00489H17.0096L18.4096 11.6409L19.7816 5.00489H23.5616L20.9016 14.8049L23.5616 24.6049H19.7816L18.4096 17.9689L17.0096 24.6049H13.2296Z" fill="white"/>
</svg>
