<svg xmlns="http://www.w3.org/2000/svg" xmlns:xlink="http://www.w3.org/1999/xlink" version="1.1" x="0px" y="0px" viewBox="0 0 100 125" style="enable-background:new 0 0 100 100;" xml:space="preserve"><style type="text/css">
	.st0{fill:none;}
</style><path class="st0" d="M68.729,83.519H31.27c-3.272,0-5.948-2.677-5.948-5.948V22.429c0-3.272,2.677-5.948,5.948-5.948h37.459  c3.272,0,5.948,2.677,5.948,5.948v55.142C74.678,80.842,72.001,83.519,68.729,83.519z"/><g><path d="M68.729,84.293H31.27c-3.706,0-6.722-3.016-6.722-6.722V22.429c0-3.706,3.015-6.722,6.722-6.722h37.459   c3.706,0,6.722,3.015,6.722,6.722v55.142C75.452,81.277,72.436,84.293,68.729,84.293z M31.27,17.254   c-2.853,0-5.175,2.322-5.175,5.175v55.142c0,2.853,2.322,5.175,5.175,5.175h37.459c2.853,0,5.175-2.321,5.175-5.175V22.429   c0-2.853-2.321-5.175-5.175-5.175H31.27z"/></g><g><path d="M68.729,87.862H31.27c-5.674,0-10.291-4.617-10.291-10.291V22.429c0-5.674,4.616-10.291,10.291-10.291h37.459   c5.674,0,10.291,4.616,10.291,10.291v55.142C79.021,83.245,74.404,87.862,68.729,87.862z M31.27,13.685   c-4.822,0-8.744,3.923-8.744,8.744v55.142c0,4.822,3.923,8.744,8.744,8.744h37.459c4.822,0,8.744-3.922,8.744-8.744V22.429   c0-4.822-3.922-8.744-8.744-8.744H31.27z"/></g><g><path d="M68.729,91.431H31.27c-7.642,0-13.86-6.218-13.86-13.86V22.429c0-7.642,6.217-13.86,13.86-13.86h37.459   c7.642,0,13.86,6.217,13.86,13.86v55.142C82.59,85.213,76.372,91.431,68.729,91.431z M31.27,10.116   c-6.79,0-12.313,5.524-12.313,12.313v55.142c0,6.79,5.524,12.313,12.313,12.313h37.459c6.79,0,12.313-5.523,12.313-12.313V22.429   c0-6.79-5.523-12.313-12.313-12.313H31.27z"/></g><g><path d="M68.729,95H31.27c-9.61,0-17.429-7.819-17.429-17.429V22.429C13.842,12.819,21.66,5,31.27,5h37.459   c9.61,0,17.429,7.818,17.429,17.429v55.142C86.159,87.181,78.34,95,68.729,95z M31.27,6.547c-8.758,0-15.882,7.125-15.882,15.882   v55.142c0,8.758,7.125,15.882,15.882,15.882h37.459c8.758,0,15.882-7.124,15.882-15.882V22.429c0-8.758-7.124-15.882-15.882-15.882   H31.27z"/></g><path d="M68.729,18.414H31.27c-2.214,0-4.015,1.801-4.015,4.015v55.142c0,2.214,1.801,4.015,4.015,4.015h37.459  c2.214,0,4.015-1.801,4.015-4.015V22.429C72.745,20.215,70.944,18.414,68.729,18.414z M61.43,28.209H38.512v-8.903h5.695v2.83  c0,0.246,0.2,0.446,0.446,0.446h10.635c0.246,0,0.446-0.2,0.446-0.446v-2.83h5.695V28.209z M53.212,29.101  c-0.831,0.923-1.972,1.467-3.241,1.467c-1.269,0-2.41-0.544-3.241-1.467H53.212z M54.842,21.69h-9.743v-2.384h9.743V21.69z   M31.27,19.306h6.349v9.349c0,0.246,0.2,0.446,0.446,0.446h7.524c0.013,0.037,0.024,0.075,0.048,0.109  c1.005,1.43,2.584,2.25,4.334,2.25c1.748,0,3.327-0.82,4.332-2.25c0.024-0.034,0.035-0.072,0.048-0.109h7.525  c0.246,0,0.446-0.2,0.446-0.446v-9.349h6.407c1.722,0,3.123,1.401,3.123,3.123v27.125H55.69c-0.232-2.95-2.68-5.289-5.69-5.289  c-3.009,0-5.457,2.338-5.69,5.289H28.148V22.429C28.148,20.707,29.549,19.306,31.27,19.306z M45.203,49.554  c0.229-2.458,2.28-4.396,4.797-4.396s4.568,1.938,4.797,4.396H45.203z M54.797,50.446c-0.229,2.458-2.28,4.396-4.797,4.396  s-4.568-1.938-4.797-4.396H54.797z M38.512,71.791H61.43v8.903h-5.695v-2.83c0-0.246-0.2-0.446-0.446-0.446H44.653  c-0.246,0-0.446,0.2-0.446,0.446v2.83h-5.695V71.791z M47.016,70.899c0.804-0.749,1.845-1.176,2.98-1.176  c1.135,0,2.177,0.427,2.98,1.176H47.016z M45.099,78.31h9.743v2.384h-9.743V78.31z M68.729,80.694h-6.407v-9.349  c0-0.246-0.2-0.446-0.446-0.446h-7.692c-1.008-1.313-2.518-2.068-4.187-2.068c-0.001,0-0.001,0-0.001,0  c-1.67,0-3.18,0.755-4.188,2.068h-7.743c-0.246,0-0.446,0.2-0.446,0.446v9.349H31.27c-1.722,0-3.123-1.401-3.123-3.123V50.446H44.31  c0.232,2.951,2.681,5.289,5.69,5.289c3.01,0,5.458-2.338,5.69-5.289h16.163v27.125C71.852,79.293,70.451,80.694,68.729,80.694z"/><text x="0" y="115" fill="#000000" font-size="5px" font-weight="bold" font-family="'Helvetica Neue', Helvetica, Arial-Unicode, Arial, Sans-serif">Created by Bence Bezeredy</text><text x="0" y="120" fill="#000000" font-size="5px" font-weight="bold" font-family="'Helvetica Neue', Helvetica, Arial-Unicode, Arial, Sans-serif">from the Noun Project</text></svg>