<svg width="26" height="27" viewBox="0 0 26 27" fill="none" xmlns="http://www.w3.org/2000/svg">
<g clip-path="url(#clip0_1395_193)">
<path d="M17.5 3.65942H7.5C5.01472 3.65942 3 5.67414 3 8.15942V18.1594C3 20.6447 5.01472 22.6594 7.5 22.6594H17.5C19.9853 22.6594 22 20.6447 22 18.1594V8.15942C22 5.67414 19.9853 3.65942 17.5 3.65942Z" fill="white" stroke="white" stroke-width="7" stroke-linejoin="round"/>
<path d="M17.5 3.65942H7.5C5.01472 3.65942 3 5.67414 3 8.15942V18.1594C3 20.6447 5.01472 22.6594 7.5 22.6594H17.5C19.9853 22.6594 22 20.6447 22 18.1594V8.15942C22 5.67414 19.9853 3.65942 17.5 3.65942Z" fill="#2FABF3"/>
<path d="M20 12.4776V14.1594L13.5 13.1594L13.1818 17.9321L16 19.6594V20.6594L12.5 19.9776L9 20.6594V19.6594L11.8182 17.9321L11.5 13.1594L5 14.1594V12.4776L11.5 10.1594V7.15942C11.5 7.15942 11.5 5.65942 12.5 5.65942C13.5 5.65942 13.5 7.15942 13.5 7.15942V9.97762L20 12.4776Z" fill="black"/>
</g>
<defs>
<clipPath id="clip0_1395_193">
<rect width="26" height="26" fill="white" transform="translate(0 0.659424)"/>
</clipPath>
</defs>
</svg>
