<svg width="26" height="27" viewBox="0 0 26 27" fill="none" xmlns="http://www.w3.org/2000/svg">
<g clip-path="url(#clip0_1395_208)">
<path d="M17.5 3.65942H7.5C5.01472 3.65942 3 5.67414 3 8.15942V18.1594C3 20.6447 5.01472 22.6594 7.5 22.6594H17.5C19.9853 22.6594 22 20.6447 22 18.1594V8.15942C22 5.67414 19.9853 3.65942 17.5 3.65942Z" fill="white" stroke="white" stroke-width="7" stroke-linejoin="round"/>
<path d="M17.5 3.65942H7.5C5.01472 3.65942 3 5.67414 3 8.15942V18.1594C3 20.6447 5.01472 22.6594 7.5 22.6594H17.5C19.9853 22.6594 22 20.6447 22 18.1594V8.15942C22 5.67414 19.9853 3.65942 17.5 3.65942Z" fill="#ED4980"/>
<path d="M8 7.65942V18.6594H13V15.6594H16V18.6594H17V7.65942H8ZM12 17.6594H9V15.6594H12V17.6594ZM12 14.6594H9V12.6594H12V14.6594ZM12 11.6594H9V9.65942H12V11.6594ZM16 14.6594H13V12.6594H16V14.6594ZM16 11.6594H13V9.65942H16V11.6594Z" fill="black"/>
</g>
<defs>
<clipPath id="clip0_1395_208">
<rect width="26" height="26" fill="white" transform="translate(0 0.659424)"/>
</clipPath>
</defs>
</svg>
