<svg width="26" height="26" viewBox="0 0 26 26" fill="none" xmlns="http://www.w3.org/2000/svg">
<g clip-path="url(#clip0_1395_198)">
<path d="M17.5 3H7.5C5.01472 3 3 5.01472 3 7.5V17.5C3 19.9853 5.01472 22 7.5 22H17.5C19.9853 22 22 19.9853 22 17.5V7.5C22 5.01472 19.9853 3 17.5 3Z" fill="white" stroke="white" stroke-width="7" stroke-linejoin="round"/>
<path d="M17.5 3H7.5C5.01472 3 3 5.01472 3 7.5V17.5C3 19.9853 5.01472 22 7.5 22H17.5C19.9853 22 22 19.9853 22 17.5V7.5C22 5.01472 19.9853 3 17.5 3Z" fill="#1EBB53"/>
<path d="M16 6.5C16 7.3284 15.3284 8 14.5 8C13.6716 8 13 7.3284 13 6.5C13 5.6716 13.6716 5 14.5 5C15.3284 5 16 5.6716 16 6.5ZM16 16C15.4477 16 15 16.4477 15 17C15 17.5523 15.4477 18 16 18C16.5523 18 17 17.5523 17 17C17 16.4477 16.5523 16 16 16ZM17.84 11.09L15.93 9.18C15.8399 9.0675 15.7041 9.0014 15.56 9H8.50002C8.22392 9 8.00002 9.2239 8.00002 9.5C8.00002 9.7761 8.22392 10 8.50002 10H11.2L8.00002 16.3C7.98622 16.366 7.98622 16.434 8.00002 16.5C7.94202 16.7761 8.11892 17.047 8.39502 17.105C8.67112 17.163 8.94202 16.9861 9.00002 16.71L10 15H12L10.07 19.24C10.0228 19.3184 9.99862 19.4085 10 19.5C9.94482 19.7761 10.1239 20.0448 10.4 20.1C10.6761 20.1552 10.9448 19.9761 11 19.7L15.7 10.32L17.14 11.8C17.351 11.9782 17.6664 11.9516 17.8446 11.7407C18.0037 11.5523 18.0018 11.2761 17.84 11.09Z" fill="black"/>
</g>
<defs>
<clipPath id="clip0_1395_198">
<rect width="26" height="26" fill="white"/>
</clipPath>
</defs>
</svg>
