<svg width="26" height="27" viewBox="0 0 26 27" fill="none" xmlns="http://www.w3.org/2000/svg">
<g clip-path="url(#clip0_1395_203)">
<path d="M17.5 3.65942H7.5C5.01472 3.65942 3 5.67414 3 8.15942V18.1594C3 20.6447 5.01472 22.6594 7.5 22.6594H17.5C19.9853 22.6594 22 20.6447 22 18.1594V8.15942C22 5.67414 19.9853 3.65942 17.5 3.65942Z" fill="white" stroke="white" stroke-width="7" stroke-linejoin="round"/>
<path d="M17.5 3.65942H7.5C5.01472 3.65942 3 5.67414 3 8.15942V18.1594C3 20.6447 5.01472 22.6594 7.5 22.6594H17.5C19.9853 22.6594 22 20.6447 22 18.1594V8.15942C22 5.67414 19.9853 3.65942 17.5 3.65942Z" fill="#F4DD0F"/>
<path d="M12 6.65942V8.65942V10.1594V10.6692C9.1695 10.7631 7.0021 11.6259 7 12.6594V17.1594C7 18.264 9.4624 19.1594 12.5 19.1594C15.5376 19.1594 18 18.264 18 17.1594V12.6594C17.9979 11.6259 15.8305 10.7631 13 10.6692V9.72192L16 8.40942L12 6.65942ZM8 13.8059C8.5148 14.073 9.2014 14.2902 10 14.4387V17.4055C8.7948 17.1364 8 16.6793 8 16.1594V13.8059ZM17 13.8078V16.1594C17 16.6793 16.2052 17.1364 15 17.4055V14.4406C15.7986 14.2922 16.4852 14.0749 17 13.8078ZM11 14.5813C11.4877 14.6324 11.9925 14.6586 12.5 14.6594C13.0073 14.6593 13.5121 14.6337 14 14.5832V17.5676C13.5287 17.6234 13.0288 17.6594 12.5 17.6594C11.9712 17.6594 11.4713 17.6234 11 17.5676V14.5813Z" fill="black"/>
</g>
<defs>
<clipPath id="clip0_1395_203">
<rect width="26" height="26" fill="white" transform="translate(0 0.659424)"/>
</clipPath>
</defs>
</svg>
